<svg id="svg" version="1.1" xmlns="http://www.w3.org/2000/svg" xmlns:xlink="http://www.w3.org/1999/xlink" width="400" height="390.40000000000003" viewBox="0, 0, 400,390.40000000000003"><g id="svgg"><path id="path0" d="M0.000 195.313 L 0.000 390.625 200.000 390.625 L 400.000 390.625 400.000 195.313 L 400.000 0.000 200.000 0.000 L 0.000 0.000 0.000 195.313 M390.234 3.516 C 391.470 4.751,391.470 385.874,390.234 387.109 C 389.455 387.888,388.932 387.891,198.437 387.891 C 7.943 387.891,7.420 387.888,6.641 387.109 C 5.405 385.874,5.405 4.751,6.641 3.516 C 7.876 2.280,388.999 2.280,390.234 3.516 " stroke="none" fill="#dcecc9" fill-rule="evenodd"></path><path id="path1" d="M221.563 161.016 C 221.211 161.367,221.094 166.271,221.094 180.680 C 221.094 201.095,221.198 202.403,222.987 204.322 C 223.438 204.806,224.103 206.095,224.466 207.187 C 226.586 213.569,239.287 218.912,245.172 215.898 C 245.787 215.584,247.344 215.005,248.633 214.612 C 251.339 213.787,254.820 210.940,255.932 208.643 C 256.309 207.864,256.996 206.760,257.459 206.190 C 258.865 204.457,259.645 197.506,259.043 192.086 C 258.442 186.684,258.608 187.014,254.126 182.334 C 251.772 179.877,251.438 179.670,248.949 179.115 C 247.486 178.789,245.272 178.246,244.028 177.908 C 241.808 177.304,241.674 177.315,236.606 178.526 C 229.305 180.270,229.688 180.045,229.688 182.595 C 229.688 185.919,232.246 186.472,236.603 184.089 C 238.929 182.817,242.475 182.637,244.434 183.691 C 245.132 184.067,246.274 184.663,246.973 185.016 C 249.375 186.228,252.634 190.068,253.098 192.234 C 253.975 196.322,253.462 201.256,251.968 203.095 C 251.519 203.649,250.679 204.838,250.103 205.739 C 249.528 206.640,248.697 207.551,248.259 207.764 C 241.451 211.067,239.313 211.499,237.500 209.939 C 237.178 209.662,235.921 209.064,234.708 208.611 C 231.495 207.410,230.665 206.377,229.235 201.803 L 228.001 197.852 227.919 179.720 C 227.842 162.682,227.794 161.556,227.125 161.067 C 226.238 160.419,222.197 160.381,221.563 161.016 M226.119 161.300 C 226.749 161.637,226.787 162.870,226.662 179.016 C 226.522 196.962,226.722 200.344,228.035 202.255 C 228.437 202.841,229.085 204.179,229.475 205.228 C 230.367 207.633,231.165 208.428,233.278 209.020 C 234.204 209.278,235.313 209.893,235.742 210.384 C 237.759 212.693,242.677 212.682,245.313 210.363 C 245.850 209.890,247.116 209.199,248.126 208.828 C 249.335 208.384,250.051 207.860,250.218 207.299 C 250.359 206.829,251.134 205.828,251.942 205.073 C 254.174 202.989,254.793 199.081,253.890 192.773 C 253.362 189.087,253.302 188.945,251.930 188.135 C 251.273 187.746,250.570 186.996,250.370 186.469 C 250.155 185.904,249.401 185.260,248.538 184.905 C 247.731 184.572,246.706 183.852,246.262 183.305 C 244.662 181.337,238.105 181.338,236.017 183.307 C 233.432 185.744,230.859 185.400,230.859 182.617 C 230.859 180.388,231.111 180.259,236.523 179.720 C 241.992 179.175,241.876 179.174,247.461 179.808 L 251.758 180.297 252.379 181.609 C 252.721 182.330,253.468 183.166,254.039 183.465 C 254.611 183.764,255.078 184.291,255.078 184.634 C 255.078 184.978,255.737 185.881,256.543 186.641 L 258.008 188.022 258.008 195.867 L 258.008 203.711 256.968 204.733 C 256.397 205.295,255.606 206.680,255.210 207.810 C 254.666 209.368,254.237 209.956,253.438 210.238 C 252.858 210.442,252.044 211.186,251.628 211.891 C 251.212 212.596,250.456 213.266,249.947 213.380 C 236.302 216.437,227.061 213.701,224.927 205.972 C 224.715 205.202,223.946 203.675,223.220 202.579 L 221.899 200.586 221.859 181.160 C 221.837 170.476,221.930 161.555,222.065 161.336 C 222.373 160.838,225.209 160.813,226.119 161.300 M83.145 177.112 C 82.362 177.388,81.239 177.993,80.651 178.456 C 79.389 179.449,78.180 179.505,75.132 178.711 C 70.505 177.506,70.703 176.697,70.703 196.769 C 70.703 215.486,70.642 215.108,73.576 214.640 C 76.171 214.226,76.169 214.235,76.200 203.539 C 76.237 191.383,76.361 190.483,78.341 188.111 C 81.392 184.454,83.402 182.989,86.152 182.418 C 88.610 181.908,88.847 181.640,88.725 179.511 C 88.582 177.031,86.234 176.021,83.145 177.112 M194.965 176.960 C 194.022 177.159,192.967 177.568,192.621 177.868 C 192.275 178.168,190.890 178.902,189.544 179.498 C 187.327 180.479,186.979 180.799,185.876 182.869 C 185.205 184.127,184.510 185.156,184.331 185.156 C 182.902 185.156,182.619 187.491,182.495 200.324 C 182.352 215.064,182.306 214.844,185.534 214.844 C 188.705 214.844,188.672 214.981,188.672 201.726 L 188.672 190.344 190.332 187.880 C 195.393 180.370,202.482 180.588,206.381 188.373 L 207.813 191.232 207.813 202.189 C 207.813 214.885,207.801 214.844,211.442 214.844 C 214.574 214.844,214.532 215.059,214.364 199.733 C 214.210 185.668,214.073 184.593,212.284 183.421 C 211.767 183.082,211.079 182.291,210.754 181.663 C 209.162 178.586,200.079 175.880,194.965 176.960 M324.609 176.932 C 323.643 177.110,321.990 177.715,320.938 178.276 C 319.885 178.838,318.807 179.297,318.542 179.297 C 318.007 179.297,313.672 184.214,313.672 184.822 C 313.672 185.033,313.193 186.206,312.607 187.427 L 311.542 189.648 311.404 201.290 C 311.253 214.125,311.193 213.786,313.729 214.469 C 315.058 214.826,315.410 214.772,316.418 214.054 L 317.578 213.228 317.578 203.298 C 317.578 193.548,317.597 193.320,318.592 190.727 C 319.149 189.274,319.780 187.616,319.994 187.042 C 320.871 184.684,324.341 182.779,327.772 182.771 L 330.857 182.765 333.189 184.817 C 336.286 187.543,336.067 186.417,336.309 200.820 C 336.477 210.794,336.640 213.694,337.060 214.199 C 338.051 215.392,342.360 214.765,343.618 213.244 C 344.360 212.348,343.629 189.995,342.751 186.724 C 342.029 184.035,338.978 179.950,337.314 179.444 C 336.879 179.311,335.469 178.701,334.180 178.087 C 331.577 176.848,327.640 176.373,324.609 176.932 M153.125 177.514 C 152.158 177.798,149.975 178.404,148.274 178.860 C 146.572 179.316,145.136 179.733,145.081 179.786 C 145.026 179.839,143.624 181.113,141.966 182.617 C 139.948 184.447,138.647 185.998,138.033 187.305 C 137.528 188.379,136.756 189.705,136.316 190.251 C 134.396 192.634,134.412 201.186,136.341 203.638 C 136.753 204.162,137.556 205.665,138.125 206.978 C 140.397 212.218,148.436 216.577,155.664 216.489 C 163.450 216.395,170.518 211.477,173.019 204.413 C 173.612 202.738,174.232 201.059,174.396 200.681 C 174.939 199.434,171.062 198.376,168.482 199.068 C 167.598 199.305,166.797 200.972,166.797 202.575 C 166.797 204.205,163.178 207.819,160.057 209.306 C 156.575 210.964,154.540 211.057,151.563 209.695 C 150.381 209.154,148.934 208.595,148.347 208.452 C 145.845 207.842,143.373 204.588,143.347 201.868 C 143.340 201.163,143.076 200.245,142.761 199.828 C 142.030 198.861,142.035 197.215,142.780 193.872 C 143.106 192.408,143.452 190.851,143.549 190.411 C 143.818 189.191,147.647 185.525,149.469 184.743 C 150.358 184.361,151.196 183.871,151.330 183.653 C 152.358 181.990,157.837 182.887,160.556 185.164 C 162.963 187.179,162.972 187.589,160.645 188.914 C 159.624 189.495,158.261 190.461,157.616 191.062 C 156.970 191.663,155.703 192.415,154.798 192.734 C 153.894 193.053,152.664 193.675,152.065 194.115 C 151.467 194.555,150.186 195.312,149.219 195.797 C 144.858 197.986,145.891 202.759,150.464 201.552 C 151.390 201.307,152.764 200.522,153.516 199.807 C 154.268 199.092,155.674 198.282,156.641 198.007 C 157.607 197.733,158.853 197.137,159.409 196.684 C 159.965 196.231,162.908 194.638,165.948 193.145 C 173.901 189.238,173.924 189.051,167.338 181.945 C 166.116 180.627,164.820 179.618,164.177 179.485 C 163.577 179.361,161.768 178.844,160.156 178.336 C 156.026 177.035,155.116 176.929,153.125 177.514 M41.406 177.788 C 40.869 178.005,38.871 178.602,36.967 179.114 C 34.130 179.877,33.233 180.314,32.007 181.527 C 31.183 182.341,30.141 183.359,29.691 183.789 C 26.586 186.752,25.542 189.437,25.132 195.514 C 24.867 199.434,26.071 206.137,27.208 207.081 C 27.535 207.352,28.160 208.336,28.598 209.268 C 29.036 210.200,29.768 211.154,30.225 211.388 C 30.681 211.623,31.499 212.227,32.041 212.732 C 35.830 216.257,45.890 217.334,51.227 214.786 L 54.212 213.360 54.359 211.512 C 54.598 208.507,51.725 207.857,47.611 209.984 C 44.714 211.482,36.937 209.165,33.969 205.920 C 31.883 203.639,31.651 202.793,31.645 197.418 C 31.637 191.263,31.842 190.544,34.330 187.954 C 41.746 180.236,50.692 181.853,55.591 191.797 L 57.227 195.117 57.195 207.143 C 57.164 218.894,57.144 219.193,56.311 220.229 C 55.842 220.812,55.181 221.816,54.842 222.461 C 54.271 223.548,52.646 224.954,49.961 226.687 C 48.831 227.416,37.126 227.755,34.638 227.130 C 32.428 226.576,31.106 230.492,32.899 232.285 C 34.539 233.926,48.984 233.993,51.902 232.373 C 52.821 231.863,54.219 231.094,55.009 230.664 C 56.926 229.621,60.370 226.219,60.741 225.000 C 60.905 224.463,61.588 222.969,62.258 221.680 L 63.477 219.336 63.477 205.234 L 63.477 191.133 61.523 187.323 C 60.269 184.877,59.221 183.333,58.594 183.007 C 58.057 182.728,57.162 181.988,56.605 181.362 C 55.963 180.640,54.749 179.969,53.285 179.527 C 52.015 179.143,50.047 178.495,48.911 178.087 C 46.685 177.286,43.010 177.140,41.406 177.788 M86.278 177.775 C 87.589 178.232,88.281 179.140,88.281 180.401 C 88.281 181.216,87.827 181.396,84.599 181.863 C 83.386 182.038,82.374 182.460,81.864 183.003 C 81.419 183.477,80.671 184.068,80.201 184.316 C 79.731 184.564,79.130 185.367,78.865 186.101 C 78.599 186.835,77.969 187.624,77.464 187.854 C 75.961 188.539,75.799 189.740,75.579 201.848 C 75.464 208.220,75.330 213.462,75.282 213.498 C 74.786 213.869,71.867 213.976,71.654 213.631 C 71.320 213.089,71.397 180.762,71.734 179.881 C 71.916 179.407,72.249 179.307,73.002 179.501 C 77.962 180.774,81.577 180.292,83.707 178.072 C 84.524 177.220,84.645 177.206,86.278 177.775 M105.859 178.090 C 105.107 178.481,103.592 179.013,102.492 179.271 C 100.468 179.747,99.436 180.515,95.213 184.688 C 94.192 185.698,93.160 187.139,92.920 187.891 C 92.680 188.643,92.109 189.873,91.652 190.625 C 90.088 193.197,90.436 201.321,92.272 205.078 C 94.310 209.249,98.513 213.398,101.758 214.443 C 102.617 214.719,103.496 215.075,103.711 215.234 C 105.800 216.778,112.896 216.883,116.665 215.426 C 118.134 214.858,119.801 214.218,120.369 214.002 C 121.374 213.622,126.729 208.506,127.426 207.261 C 128.038 206.167,129.344 200.687,129.128 200.123 C 128.103 197.452,122.586 198.621,122.108 201.611 C 121.639 204.544,118.813 208.199,116.583 208.759 C 115.975 208.911,115.000 209.376,114.417 209.792 C 109.796 213.081,99.093 207.552,99.244 201.953 C 99.280 200.633,99.059 199.335,98.672 198.586 C 98.015 197.319,98.304 192.990,99.243 190.018 C 101.077 184.212,110.753 181.189,115.527 184.931 C 118.521 187.277,118.531 187.500,115.723 189.076 C 114.487 189.769,113.330 190.589,113.150 190.897 C 112.971 191.205,111.564 192.068,110.025 192.815 C 104.253 195.615,102.637 196.706,102.041 198.200 C 100.539 201.967,105.300 203.066,108.956 199.797 C 109.724 199.111,111.254 198.253,112.356 197.891 C 113.459 197.529,114.657 196.906,115.019 196.506 C 115.382 196.106,116.709 195.393,117.969 194.922 C 119.229 194.451,120.556 193.738,120.917 193.338 C 121.279 192.939,122.709 192.234,124.094 191.773 C 126.646 190.924,126.888 190.672,127.473 188.248 C 127.871 186.600,120.964 179.791,118.403 179.305 C 117.390 179.113,115.641 178.593,114.516 178.150 C 111.875 177.109,107.799 177.081,105.859 178.090 M202.549 178.503 C 203.833 179.141,205.159 179.668,205.497 179.675 C 207.234 179.710,209.709 180.953,210.147 182.010 C 210.398 182.616,211.044 183.494,211.582 183.962 C 213.553 185.676,213.651 186.442,213.682 200.361 C 213.715 214.966,213.871 214.063,211.328 214.063 C 208.760 214.063,208.881 214.652,208.734 201.503 C 208.590 188.570,208.678 189.062,205.755 184.961 C 203.861 182.305,202.631 181.688,199.219 181.680 C 194.809 181.669,193.789 182.091,191.147 185.018 C 187.904 188.611,187.891 188.680,187.891 201.674 C 187.891 214.546,187.974 214.063,185.748 214.063 C 183.097 214.063,183.160 214.419,183.285 200.046 L 183.398 187.123 184.863 185.916 C 185.669 185.252,186.328 184.493,186.328 184.228 C 186.328 183.015,188.676 180.594,190.316 180.115 C 191.238 179.846,193.047 179.115,194.336 178.491 C 197.447 176.984,199.498 176.987,202.549 178.503 M279.815 178.120 C 278.703 178.515,276.786 179.048,275.554 179.303 C 273.372 179.756,268.750 183.505,268.750 184.821 C 268.750 185.043,268.234 185.956,267.604 186.850 C 264.730 190.929,264.704 202.488,267.560 206.475 C 268.188 207.351,268.825 208.560,268.976 209.161 C 269.137 209.805,269.733 210.516,270.425 210.889 C 271.071 211.238,272.145 211.986,272.812 212.552 C 277.861 216.838,292.932 216.209,294.156 211.661 C 294.922 208.817,293.648 205.905,292.207 207.208 C 288.854 210.243,278.372 209.371,274.700 205.752 C 272.178 203.266,271.880 202.281,271.877 196.412 C 271.875 190.958,272.020 190.511,274.685 187.798 C 281.022 181.345,290.449 181.503,295.355 188.143 C 297.495 191.041,297.548 191.428,297.362 202.946 C 297.177 214.355,297.308 214.844,300.546 214.844 C 303.841 214.844,303.907 214.612,303.904 202.905 C 303.901 188.499,303.628 187.433,298.599 182.186 C 296.454 179.949,295.975 179.647,293.716 179.112 C 292.338 178.785,290.508 178.262,289.648 177.948 C 287.431 177.139,282.321 177.228,279.815 178.120 M332.194 178.485 C 332.706 178.966,334.128 179.535,335.540 179.823 C 337.742 180.272,338.066 180.463,338.694 181.687 C 339.079 182.437,339.824 183.247,340.350 183.487 C 341.731 184.115,342.166 187.926,342.171 199.414 C 342.173 204.570,342.284 209.763,342.418 210.954 C 342.697 213.443,342.027 214.063,339.058 214.063 C 336.880 214.063,336.772 213.644,336.899 205.656 C 336.961 201.793,336.917 195.922,336.801 192.608 L 336.592 186.584 334.344 184.280 L 332.097 181.976 329.183 181.756 C 325.414 181.471,323.594 181.835,322.320 183.131 C 321.753 183.708,320.943 184.358,320.519 184.576 C 320.063 184.811,319.530 185.765,319.210 186.920 C 318.914 187.991,318.205 189.362,317.636 189.966 L 316.602 191.066 316.351 200.709 C 316.212 206.012,316.188 210.993,316.296 211.776 C 316.463 212.979,316.364 213.242,315.662 213.465 C 314.659 213.783,312.008 212.979,312.333 212.455 C 312.459 212.250,312.619 207.298,312.688 201.451 C 312.785 193.112,312.938 190.526,313.395 189.453 C 313.716 188.701,314.184 187.084,314.435 185.859 C 314.769 184.229,315.097 183.566,315.660 183.387 C 316.082 183.253,316.731 182.508,317.101 181.732 C 317.710 180.454,318.017 180.262,320.355 179.694 C 321.775 179.350,323.364 178.788,323.887 178.446 C 326.004 177.059,330.700 177.081,332.194 178.485 M158.667 179.294 C 160.453 179.722,162.658 180.074,163.566 180.075 C 165.094 180.078,165.277 180.193,166.001 181.612 C 166.432 182.456,167.141 183.260,167.578 183.398 C 168.015 183.537,168.624 184.253,168.932 184.988 C 169.239 185.724,169.922 186.523,170.449 186.763 L 171.406 187.199 170.567 188.885 C 169.743 190.537,168.953 191.084,166.667 191.585 C 166.059 191.719,164.677 192.436,163.596 193.180 C 162.515 193.923,161.212 194.531,160.699 194.531 C 160.187 194.531,159.108 195.114,158.302 195.825 C 157.496 196.537,156.074 197.340,155.143 197.609 C 153.985 197.943,153.247 198.452,152.807 199.219 C 152.371 199.979,151.641 200.486,150.541 200.794 C 146.025 202.058,146.361 197.722,150.921 195.893 C 152.180 195.388,153.453 194.627,153.751 194.202 C 154.054 193.769,154.969 193.315,155.827 193.169 C 156.799 193.005,157.854 192.433,158.701 191.610 C 159.438 190.895,160.764 189.940,161.648 189.489 C 164.441 188.065,164.555 185.770,161.884 184.754 C 161.352 184.552,160.813 184.114,160.685 183.780 C 160.163 182.421,157.429 181.789,152.846 181.967 C 151.652 182.014,150.846 182.339,149.916 183.150 C 149.210 183.766,148.198 184.406,147.666 184.572 C 146.080 185.068,143.032 188.518,142.731 190.159 C 142.585 190.953,142.035 192.118,141.509 192.749 C 140.215 194.301,140.302 199.855,141.651 201.758 C 142.107 202.402,142.612 203.545,142.772 204.297 C 143.427 207.375,144.591 208.443,148.033 209.122 C 148.777 209.269,149.856 209.839,150.431 210.390 C 152.557 212.427,157.627 212.522,159.907 210.567 C 160.581 209.990,161.709 209.286,162.412 209.004 C 163.116 208.721,164.044 207.997,164.473 207.393 C 164.903 206.790,165.596 206.188,166.014 206.055 C 166.834 205.795,167.572 203.741,167.576 201.708 C 167.579 199.813,169.892 198.840,172.353 199.698 C 173.380 200.056,173.399 200.113,172.855 201.164 C 172.544 201.766,172.131 203.274,171.936 204.516 C 171.661 206.270,171.353 206.942,170.556 207.521 C 169.993 207.932,169.531 208.504,169.531 208.792 C 169.531 209.080,168.985 209.724,168.318 210.224 C 167.651 210.724,166.626 211.602,166.041 212.176 C 163.706 214.469,157.169 215.322,150.195 214.244 L 145.508 213.520 142.707 210.666 C 141.167 209.097,139.723 207.813,139.499 207.813 C 139.276 207.813,138.904 207.112,138.673 206.255 C 138.443 205.398,137.623 203.639,136.853 202.345 C 135.408 199.920,134.971 193.439,136.199 192.647 C 136.767 192.280,138.672 188.614,138.672 187.887 C 138.672 187.160,142.227 183.203,142.880 183.203 C 143.138 183.203,143.793 182.500,144.336 181.641 C 145.230 180.225,145.477 180.077,146.978 180.064 C 148.847 180.048,153.782 179.161,154.171 178.771 C 154.561 178.382,155.146 178.450,158.667 179.294 M48.047 179.492 C 54.006 180.261,53.971 180.250,55.713 181.844 C 56.546 182.606,57.682 183.477,58.239 183.780 C 58.983 184.185,59.480 185.035,60.116 186.990 C 60.604 188.490,61.354 189.937,61.838 190.310 C 63.183 191.347,63.191 219.169,61.846 220.111 C 60.975 220.721,60.413 222.108,59.971 224.735 C 59.771 225.926,59.491 226.308,58.591 226.622 C 57.970 226.838,57.108 227.617,56.674 228.351 C 56.178 229.193,55.584 229.688,55.072 229.688 C 54.058 229.688,52.049 230.684,50.847 231.784 C 49.985 232.572,49.548 232.616,42.839 232.603 C 34.767 232.587,33.675 232.314,33.058 230.159 C 32.466 228.092,32.723 228.029,41.548 228.101 C 49.605 228.166,51.953 227.818,51.953 226.557 C 51.953 226.351,52.663 225.734,53.531 225.186 C 54.399 224.638,55.262 223.786,55.450 223.292 C 55.638 222.798,56.334 221.851,56.997 221.188 C 58.151 220.034,58.203 219.841,58.206 216.729 C 58.208 214.940,58.224 209.521,58.242 204.688 C 58.288 192.223,58.362 193.067,57.115 191.820 C 56.516 191.221,55.697 190.001,55.294 189.107 C 54.254 186.803,49.028 182.309,46.824 181.825 C 44.038 181.213,38.281 182.643,38.281 183.948 C 38.281 184.149,37.762 184.427,37.128 184.566 C 35.769 184.865,33.984 186.176,33.984 186.876 C 33.984 187.147,33.564 187.593,33.051 187.868 C 30.349 189.313,29.950 203.892,32.553 206.055 C 33.070 206.484,33.691 207.219,33.933 207.687 C 34.242 208.285,35.014 208.681,36.538 209.022 C 37.729 209.288,39.092 209.847,39.567 210.263 C 41.789 212.212,46.140 212.321,49.610 210.515 C 51.909 209.319,53.356 209.141,53.281 210.064 C 53.260 210.330,53.216 211.126,53.184 211.833 C 53.013 215.571,36.376 215.716,32.733 212.012 C 32.152 211.421,31.432 210.938,31.133 210.938 C 30.368 210.938,29.451 209.779,29.124 208.398 C 28.971 207.754,28.405 206.648,27.867 205.941 C 25.410 202.713,25.562 189.960,28.089 187.333 C 28.724 186.673,29.364 185.643,29.511 185.045 C 29.692 184.309,30.199 183.781,31.075 183.415 C 31.787 183.118,32.638 182.355,32.966 181.722 C 33.532 180.627,33.752 180.545,37.353 180.092 C 39.438 179.830,41.511 179.467,41.959 179.285 C 43.061 178.839,42.960 178.836,48.047 179.492 M112.597 179.491 C 113.940 179.807,116.125 180.069,117.453 180.072 C 119.922 180.078,121.094 180.659,121.094 181.877 C 121.094 182.191,121.681 182.795,122.399 183.218 C 123.117 183.642,123.898 184.413,124.134 184.931 C 124.370 185.449,125.057 186.115,125.660 186.410 C 128.141 187.626,126.309 190.586,122.581 191.386 C 121.260 191.669,120.087 192.236,119.338 192.952 C 118.692 193.569,117.376 194.283,116.413 194.538 C 115.449 194.793,114.100 195.494,113.414 196.096 C 112.729 196.698,111.583 197.315,110.869 197.466 C 109.453 197.765,107.813 199.054,107.813 199.865 C 107.813 200.146,107.373 200.467,106.836 200.578 C 106.299 200.690,105.448 200.865,104.946 200.968 C 102.461 201.477,102.177 197.225,104.654 196.605 C 106.461 196.153,109.026 194.878,109.237 194.326 C 109.351 194.030,110.088 193.583,110.874 193.332 C 111.661 193.081,112.884 192.326,113.591 191.653 C 114.298 190.980,115.793 189.990,116.911 189.453 C 119.604 188.160,119.769 186.730,117.410 185.128 C 116.566 184.555,115.736 183.708,115.565 183.248 C 114.745 181.030,107.475 181.102,105.128 183.351 C 104.540 183.914,103.814 184.375,103.515 184.375 C 101.295 184.375,98.840 187.565,98.192 191.294 C 97.907 192.929,97.344 194.595,96.848 195.265 C 95.830 196.642,96.032 199.319,97.272 200.896 C 97.684 201.420,98.135 202.562,98.274 203.434 C 98.725 206.253,101.155 208.978,103.222 208.983 C 103.597 208.984,104.564 209.574,105.370 210.296 C 107.794 212.464,113.303 212.550,115.541 210.455 C 116.124 209.909,117.041 209.336,117.578 209.182 C 120.096 208.457,122.290 205.333,122.858 201.666 C 123.095 200.131,123.228 199.981,124.708 199.583 C 127.077 198.945,128.309 199.591,127.953 201.282 C 127.807 201.973,127.531 203.470,127.338 204.608 C 127.013 206.528,126.744 206.915,123.597 209.985 C 119.924 213.568,119.867 213.593,112.584 214.844 C 109.645 215.348,101.102 213.722,99.837 212.418 C 99.360 211.926,98.407 211.222,97.720 210.854 C 97.033 210.486,96.364 209.871,96.234 209.487 C 96.104 209.103,95.552 208.409,95.007 207.944 C 91.088 204.599,91.255 189.192,95.244 186.070 C 95.926 185.536,96.484 184.852,96.484 184.550 C 96.484 184.248,97.153 183.659,97.970 183.242 C 98.787 182.826,99.658 182.040,99.905 181.498 C 100.209 180.831,100.773 180.437,101.642 180.283 C 102.350 180.158,104.160 179.835,105.664 179.566 C 109.609 178.859,109.904 178.856,112.597 179.491 M290.250 179.502 C 296.307 180.308,296.373 180.328,296.952 181.518 C 297.232 182.092,297.961 182.838,298.572 183.175 C 299.253 183.552,299.883 184.370,300.199 185.291 C 300.483 186.117,301.069 187.172,301.503 187.635 C 302.997 189.229,303.125 190.357,303.125 201.900 C 303.125 214.205,303.153 214.063,300.781 214.063 C 298.417 214.063,298.438 214.165,298.435 202.363 C 298.433 190.906,298.220 189.172,296.666 187.950 C 296.137 187.533,295.703 187.028,295.703 186.828 C 295.703 186.214,294.003 184.838,292.908 184.566 C 292.338 184.425,291.479 183.892,291.000 183.382 C 289.038 181.293,281.147 181.263,278.962 183.336 C 278.394 183.874,277.181 184.612,276.266 184.975 C 275.120 185.429,274.528 185.929,274.365 186.581 C 274.234 187.101,273.613 187.793,272.984 188.118 C 271.339 188.969,271.094 190.020,271.094 196.219 C 271.094 204.986,273.220 208.261,279.492 209.157 C 280.566 209.310,281.847 209.694,282.338 210.010 C 283.135 210.521,283.599 210.496,286.635 209.776 C 293.288 208.200,292.928 208.240,293.185 209.050 C 293.516 210.093,293.040 211.927,292.263 212.605 C 289.390 215.112,277.154 214.757,274.144 212.079 C 273.433 211.447,272.412 210.828,271.875 210.705 C 269.687 210.204,269.782 210.318,269.340 207.671 C 269.200 206.830,268.642 205.716,268.080 205.154 C 266.702 203.776,266.426 202.255,266.416 195.970 C 266.406 190.400,266.554 189.732,268.146 188.139 C 268.663 187.622,269.280 186.478,269.518 185.597 C 269.807 184.524,270.288 183.818,270.974 183.458 C 271.538 183.162,272.280 182.325,272.624 181.597 C 273.247 180.275,273.252 180.273,276.761 179.988 C 278.693 179.831,280.801 179.539,281.445 179.338 C 283.177 178.799,285.260 178.838,290.250 179.502 M364.844 179.310 C 360.654 179.730,360.459 179.830,356.392 183.652 C 353.155 186.694,350.058 194.262,350.545 197.940 C 350.906 200.663,352.703 205.710,353.829 207.161 C 354.408 207.908,355.178 209.056,355.539 209.711 C 355.899 210.367,356.778 211.170,357.492 211.496 C 358.205 211.821,359.229 212.445,359.766 212.881 C 362.497 215.100,374.755 215.553,376.374 213.495 C 376.997 212.703,376.602 209.479,375.842 209.153 C 375.486 209.001,372.822 208.757,369.922 208.612 C 363.827 208.307,363.324 208.110,360.867 205.072 C 358.640 202.319,358.201 201.002,358.212 197.110 C 358.235 189.537,361.838 185.797,370.052 184.819 C 374.795 184.254,376.049 183.668,376.388 181.860 C 376.916 179.047,373.961 178.394,364.844 179.310 M374.951 180.322 C 376.434 180.619,376.491 181.023,375.169 181.889 C 373.863 182.745,368.871 184.375,367.556 184.375 C 365.476 184.375,362.825 185.488,361.342 186.984 C 360.529 187.805,359.362 188.851,358.749 189.310 L 357.635 190.142 357.626 195.950 C 357.616 202.779,357.751 203.404,359.673 205.408 C 360.476 206.245,361.396 207.306,361.719 207.764 C 362.487 208.857,365.338 209.375,370.587 209.375 C 375.523 209.375,376.172 209.646,376.172 211.705 L 376.172 213.226 373.930 213.691 C 369.261 214.660,362.576 213.693,360.108 211.690 C 359.545 211.233,358.496 210.739,357.778 210.592 C 356.643 210.360,356.406 210.096,355.968 208.580 C 355.690 207.621,354.953 206.358,354.329 205.775 C 351.412 203.045,351.396 191.530,354.305 188.272 C 355.290 187.168,355.764 186.266,356.375 184.333 C 356.484 183.987,357.122 183.595,357.793 183.461 C 358.599 183.300,359.240 182.814,359.682 182.030 C 360.067 181.347,360.849 180.695,361.523 180.495 C 362.881 180.094,373.146 179.961,374.951 180.322 " stroke="none" fill="#6c9943" fill-rule="evenodd"></path><path id="path2" d="M7.603 4.785 C 7.501 5.054,7.462 90.967,7.517 195.703 L 7.617 386.133 198.438 386.133 L 389.258 386.133 389.258 195.313 L 389.258 4.492 198.523 4.394 C 46.140 4.316,7.751 4.394,7.603 4.785 M228.285 159.921 C 230.200 160.721,230.214 160.789,230.265 169.322 C 230.320 178.633,230.901 179.853,234.085 177.349 C 236.726 175.271,244.684 175.224,248.859 177.262 C 250.272 177.951,251.643 178.516,251.904 178.516 C 252.397 178.516,254.144 180.057,257.436 183.398 C 259.433 185.424,259.352 185.216,260.457 191.211 C 260.729 192.686,260.836 192.785,262.364 192.990 L 263.982 193.206 264.610 190.060 C 264.958 188.314,265.586 186.479,266.021 185.938 C 266.452 185.400,267.248 184.295,267.791 183.481 C 268.334 182.667,269.192 181.813,269.698 181.583 C 270.203 181.352,270.809 180.742,271.044 180.227 C 271.278 179.712,272.133 179.010,272.942 178.668 C 273.752 178.325,275.246 177.614,276.263 177.089 C 278.796 175.781,284.206 175.186,288.418 175.753 C 291.233 176.132,292.553 176.602,297.552 179.003 C 298.032 179.233,298.528 179.747,298.654 180.145 C 298.780 180.543,299.393 181.132,300.016 181.454 C 300.639 181.776,301.355 182.433,301.608 182.914 C 301.861 183.395,302.552 184.346,303.143 185.028 C 303.758 185.736,304.403 187.125,304.649 188.270 C 305.247 191.059,305.231 213.438,304.630 214.560 C 303.202 217.230,299.476 217.689,297.198 215.477 C 295.946 214.260,295.766 214.198,294.892 214.682 C 294.372 214.971,293.609 215.213,293.198 215.221 C 292.788 215.228,291.687 215.683,290.752 216.230 C 287.835 217.940,279.972 218.224,277.632 216.704 C 277.151 216.391,275.863 215.840,274.770 215.479 C 273.677 215.118,272.271 214.283,271.645 213.622 C 271.020 212.962,270.121 212.271,269.648 212.087 C 269.175 211.903,268.491 211.173,268.129 210.466 C 267.766 209.759,266.984 208.622,266.391 207.941 C 265.354 206.751,264.832 205.081,264.249 201.098 C 264.017 199.511,263.823 199.212,262.792 198.852 C 260.755 198.142,260.689 198.223,260.178 202.051 C 259.611 206.305,259.150 207.697,258.124 208.246 C 257.710 208.467,257.044 209.411,256.644 210.343 C 256.245 211.276,255.585 212.144,255.178 212.273 C 254.771 212.402,254.061 213.018,253.600 213.641 C 253.140 214.264,252.097 214.993,251.284 215.260 C 250.470 215.528,249.158 216.174,248.368 216.696 C 241.304 221.361,225.549 216.130,223.205 208.340 C 222.896 207.314,222.217 206.029,221.696 205.484 C 220.066 203.778,219.941 202.054,219.931 180.957 C 219.920 157.529,219.553 159.375,224.231 159.375 C 225.742 159.375,227.566 159.621,228.285 159.921 M89.425 176.420 C 91.320 178.829,90.109 183.235,87.398 183.795 C 86.702 183.938,85.515 184.454,84.760 184.941 C 84.006 185.428,82.988 185.953,82.500 186.108 C 82.011 186.263,81.154 187.115,80.594 188.001 C 80.035 188.888,79.211 189.909,78.765 190.271 C 77.885 190.983,77.099 204.430,77.612 210.004 C 78.113 215.454,73.765 219.079,70.674 215.789 L 69.727 214.781 69.607 197.332 C 69.481 178.933,69.596 177.426,71.208 176.401 C 72.356 175.670,75.310 176.135,76.758 177.274 C 78.110 178.337,78.708 178.346,79.432 177.311 C 80.899 175.217,87.982 174.586,89.425 176.420 M114.453 175.981 C 115.420 176.108,116.914 176.620,117.773 177.119 C 118.633 177.617,119.775 178.157,120.313 178.319 C 120.850 178.481,122.035 179.338,122.946 180.224 C 128.871 185.988,128.907 186.035,128.900 188.153 C 128.892 191.060,128.297 191.866,125.460 192.818 C 124.107 193.272,122.747 194.004,122.438 194.446 C 122.128 194.887,120.777 195.618,119.434 196.069 C 118.091 196.520,116.619 197.283,116.163 197.764 C 115.707 198.246,114.546 198.850,113.583 199.108 C 112.621 199.365,111.120 200.171,110.249 200.899 C 109.378 201.627,107.873 202.444,106.905 202.715 C 104.909 203.274,102.985 205.035,103.191 206.114 C 103.770 209.134,116.740 208.720,118.204 205.635 C 118.560 204.884,119.150 204.110,119.515 203.915 C 119.901 203.708,120.385 202.637,120.672 201.353 C 120.944 200.140,121.489 198.824,121.883 198.430 C 123.520 196.792,129.110 197.162,130.858 199.022 C 133.512 201.847,127.108 212.544,121.008 215.478 C 119.874 216.023,118.242 216.844,117.383 217.302 C 114.356 218.914,101.953 218.183,101.953 216.393 C 101.953 216.220,101.088 215.791,100.030 215.440 C 97.612 214.637,93.388 210.764,91.888 207.975 C 91.301 206.883,90.469 205.484,90.039 204.867 C 88.779 203.058,88.858 190.791,90.140 189.189 C 90.625 188.582,91.438 187.192,91.946 186.099 C 92.482 184.945,93.559 183.553,94.515 182.779 C 95.420 182.045,96.946 180.787,97.906 179.983 C 98.867 179.178,100.126 178.406,100.705 178.267 C 101.284 178.128,102.525 177.571,103.463 177.030 C 105.908 175.618,109.258 175.298,114.453 175.981 M157.772 175.790 C 159.520 176.017,161.295 176.530,162.264 177.090 C 163.146 177.598,164.391 178.141,165.032 178.295 C 166.178 178.571,172.137 184.238,173.023 185.894 C 174.665 188.962,172.040 193.359,168.567 193.359 C 168.287 193.359,167.796 193.760,167.475 194.250 C 167.125 194.784,166.017 195.416,164.706 195.829 C 163.504 196.208,161.985 196.968,161.332 197.518 C 160.679 198.067,159.023 198.853,157.652 199.265 C 155.988 199.764,154.956 200.323,154.547 200.948 C 154.210 201.462,153.269 202.096,152.455 202.355 C 151.642 202.614,150.389 203.097,149.671 203.428 C 148.905 203.781,148.259 203.880,148.108 203.667 C 147.564 202.898,145.595 202.277,145.286 202.777 C 144.811 203.546,145.305 204.243,146.420 204.372 C 147.193 204.461,147.495 204.743,147.592 205.469 C 148.050 208.890,160.960 209.215,162.701 205.849 C 163.029 205.214,163.712 204.424,164.218 204.092 C 164.887 203.653,165.260 202.868,165.586 201.211 C 166.277 197.698,168.581 196.585,172.977 197.640 C 176.457 198.474,177.165 201.016,174.892 204.513 C 174.341 205.361,173.665 206.826,173.390 207.769 C 172.814 209.747,168.694 214.041,166.406 215.047 C 165.654 215.378,164.600 215.904,164.063 216.216 C 161.113 217.929,160.382 218.095,155.664 218.122 C 150.070 218.154,148.610 217.895,147.107 216.601 C 146.483 216.064,145.727 215.625,145.428 215.625 C 144.554 215.625,142.507 214.454,140.820 212.990 C 137.311 209.944,137.107 209.694,136.859 208.139 C 136.701 207.156,136.143 206.086,135.348 205.243 C 132.778 202.518,132.837 191.333,135.435 188.543 C 136.070 187.862,136.800 186.563,137.057 185.656 C 137.379 184.522,138.018 183.609,139.108 182.727 C 139.979 182.022,141.472 180.792,142.426 179.993 C 143.379 179.194,144.838 178.358,145.667 178.135 C 146.496 177.911,147.384 177.476,147.641 177.167 C 148.078 176.641,150.648 175.951,153.320 175.643 C 153.965 175.568,154.580 175.487,154.688 175.461 C 154.795 175.436,156.183 175.584,157.772 175.790 M204.727 175.835 C 205.457 176.080,206.626 176.704,207.325 177.223 C 208.024 177.742,209.095 178.340,209.704 178.553 C 210.358 178.781,211.163 179.563,211.668 180.463 C 212.139 181.301,212.873 182.097,213.298 182.232 C 214.281 182.544,215.062 184.079,215.391 186.350 C 215.594 187.743,215.804 209.335,215.657 213.613 C 215.639 214.117,215.079 215.040,214.412 215.664 C 211.203 218.662,205.418 215.568,205.974 211.152 C 206.452 207.353,205.561 191.287,204.749 189.071 C 203.987 186.987,202.765 185.547,201.762 185.547 C 201.490 185.547,201.049 185.283,200.781 184.961 C 200.162 184.214,196.967 184.179,196.125 184.910 C 195.785 185.204,194.980 185.614,194.336 185.820 C 193.663 186.036,192.918 186.681,192.587 187.336 C 192.270 187.963,191.567 189.165,191.025 190.006 L 190.039 191.536 190.013 202.116 C 189.981 215.245,190.076 214.314,188.631 215.664 C 186.324 217.818,182.238 216.869,181.282 213.958 C 180.798 212.483,180.777 198.672,181.248 191.362 C 181.571 186.352,182.004 184.838,183.500 183.484 C 183.922 183.102,184.588 182.078,184.980 181.208 C 185.527 179.995,186.153 179.396,187.671 178.636 C 188.758 178.091,189.944 177.385,190.306 177.067 C 192.098 175.490,201.340 174.701,204.727 175.835 M333.594 175.815 C 334.561 176.037,335.703 176.541,336.133 176.933 C 336.563 177.325,337.648 178.015,338.546 178.465 C 339.443 178.915,340.285 179.623,340.417 180.037 C 340.548 180.451,341.099 181.080,341.641 181.436 C 342.184 181.791,342.980 182.905,343.412 183.912 C 343.843 184.919,344.425 186.006,344.705 186.328 C 345.815 187.607,346.401 212.502,345.366 214.381 C 344.122 216.637,338.466 217.587,336.596 215.854 C 335.186 214.547,335.179 214.483,335.064 201.563 C 334.986 192.836,334.835 189.817,334.440 189.126 C 333.582 187.619,331.199 185.156,330.599 185.156 C 330.291 185.156,329.517 184.886,328.878 184.556 C 327.760 183.978,327.597 184.014,324.470 185.542 C 320.168 187.644,320.203 187.510,320.012 202.438 L 319.868 213.665 318.772 214.762 C 316.264 217.270,312.089 217.252,310.512 214.726 C 309.232 212.675,309.528 188.091,310.853 186.454 C 311.343 185.848,312.087 184.648,312.505 183.789 C 313.415 181.921,316.879 178.125,317.674 178.125 C 317.984 178.125,318.749 177.681,319.373 177.138 C 319.997 176.596,320.947 176.053,321.484 175.932 C 322.021 175.812,322.637 175.654,322.852 175.583 C 323.790 175.270,331.998 175.447,333.594 175.815 M49.805 176.213 C 50.664 176.448,51.631 176.864,51.953 177.137 C 52.275 177.410,53.464 177.935,54.595 178.303 C 56.038 178.773,56.964 179.382,57.698 180.345 C 58.274 181.100,59.158 181.874,59.662 182.066 C 60.166 182.258,60.880 182.967,61.247 183.641 C 61.614 184.316,62.311 185.311,62.796 185.853 C 64.645 187.920,64.844 189.730,64.844 204.491 C 64.844 219.098,64.580 222.074,63.112 224.023 C 62.627 224.668,61.922 225.848,61.546 226.646 C 61.170 227.444,60.554 228.194,60.178 228.313 C 59.802 228.433,58.931 229.230,58.244 230.086 C 57.557 230.941,56.806 231.641,56.576 231.641 C 56.346 231.641,55.581 232.147,54.877 232.765 C 51.570 235.669,33.196 235.823,30.826 232.967 C 28.194 229.797,31.780 224.144,35.615 225.416 C 38.607 226.409,47.717 226.195,49.093 225.099 C 49.699 224.617,50.863 223.862,51.679 223.422 C 52.495 222.981,53.251 222.321,53.359 221.955 C 53.467 221.589,53.804 220.803,54.107 220.209 C 54.410 219.614,54.592 218.911,54.510 218.646 C 54.429 218.381,54.256 217.681,54.127 217.090 C 53.838 215.770,53.180 215.737,51.391 216.951 C 48.808 218.704,38.750 218.642,36.328 216.858 C 35.791 216.463,34.691 215.921,33.883 215.655 C 32.005 215.036,27.802 211.539,27.502 210.345 C 27.376 209.843,27.035 209.340,26.743 209.228 C 25.987 208.938,25.166 207.173,24.646 204.716 C 24.399 203.551,23.827 201.997,23.374 201.264 C 22.409 199.703,22.496 194.423,23.521 192.358 C 23.834 191.727,24.390 190.068,24.757 188.672 C 25.325 186.510,25.756 185.796,27.654 183.876 C 32.102 179.372,32.645 178.922,34.341 178.328 C 35.290 177.996,36.295 177.534,36.575 177.301 C 38.229 175.928,46.328 175.262,49.805 176.213 M377.309 178.639 C 379.709 183.598,377.987 185.702,371.019 186.320 C 366.267 186.742,365.234 186.959,365.234 187.537 C 365.234 187.726,364.550 188.313,363.714 188.840 C 359.379 191.577,358.135 198.037,361.112 202.355 C 364.119 206.716,364.217 206.766,370.452 207.092 C 377.418 207.455,377.878 207.715,378.044 211.393 C 378.180 214.417,377.456 215.624,375.079 216.336 C 373.294 216.871,365.957 216.960,365.410 216.453 C 365.206 216.264,363.708 215.819,362.081 215.465 C 358.734 214.737,358.135 214.312,352.939 208.984 C 352.415 208.447,351.724 207.262,351.403 206.351 C 351.081 205.440,350.366 203.923,349.813 202.979 C 348.022 199.924,347.987 193.678,349.748 191.506 C 350.227 190.914,350.930 189.417,351.308 188.178 C 351.765 186.682,352.328 185.710,352.987 185.278 C 353.532 184.921,354.129 184.230,354.315 183.741 C 354.501 183.253,355.144 182.544,355.744 182.165 C 356.345 181.787,357.451 180.838,358.203 180.056 C 359.418 178.794,359.916 178.581,362.673 178.145 C 364.380 177.874,366.138 177.507,366.580 177.328 C 367.021 177.149,369.433 176.992,371.938 176.978 L 376.493 176.953 377.309 178.639 M236.898 186.006 C 234.347 186.627,231.966 187.401,231.605 187.727 C 230.005 189.175,229.715 194.470,230.857 201.367 C 231.071 202.656,231.246 203.755,231.248 203.809 C 231.304 206.248,239.270 209.050,243.175 208.004 C 247.119 206.948,247.589 206.659,248.797 204.546 C 249.434 203.433,250.405 202.099,250.954 201.583 C 253.055 199.610,252.279 191.782,249.778 189.720 C 249.041 189.112,248.438 188.374,248.438 188.081 C 248.438 187.379,248.129 187.210,244.557 185.947 L 241.535 184.878 236.898 186.006 M39.757 186.175 C 37.773 186.853,36.663 187.451,36.513 187.922 C 36.389 188.316,35.791 189.055,35.185 189.564 C 32.118 192.145,31.814 201.146,34.691 204.175 C 35.484 205.009,36.309 205.984,36.523 206.341 C 37.814 208.485,52.238 208.465,54.387 206.316 C 56.173 204.530,54.612 191.455,52.374 189.453 C 51.773 188.916,51.078 188.087,50.830 187.611 C 49.743 185.530,43.868 184.769,39.757 186.175 M107.227 185.716 C 104.205 186.569,103.125 187.050,103.125 187.542 C 103.125 187.790,102.497 188.586,101.730 189.310 C 99.128 191.764,99.402 196.447,102.073 195.179 C 102.824 194.823,103.626 194.531,103.855 194.531 C 104.084 194.531,104.882 193.920,105.630 193.172 C 106.574 192.228,107.495 191.732,108.646 191.548 C 109.691 191.381,110.744 190.860,111.499 190.137 C 112.157 189.507,113.375 188.595,114.206 188.110 L 115.717 187.230 114.331 186.373 C 112.557 185.277,109.712 185.014,107.227 185.716 M152.930 185.430 C 147.140 186.787,142.767 192.081,144.995 195.037 C 145.641 195.895,148.489 194.836,150.694 192.917 C 151.437 192.270,152.657 191.694,153.605 191.542 C 154.692 191.368,155.585 190.900,156.282 190.137 C 156.856 189.508,157.991 188.591,158.804 188.101 L 160.281 187.209 159.290 186.560 C 157.462 185.362,155.049 184.933,152.930 185.430 M281.250 185.727 C 278.296 186.606,276.932 187.327,276.244 188.374 C 275.882 188.925,275.059 190.038,274.414 190.848 C 273.270 192.286,273.242 192.424,273.242 196.680 L 273.242 201.039 275.000 203.206 C 278.914 208.031,287.378 209.310,291.150 205.646 C 291.914 204.904,292.944 204.294,293.438 204.291 C 295.390 204.278,295.508 203.930,295.508 198.159 C 295.508 188.660,293.298 185.819,285.547 185.356 C 284.097 185.269,282.254 185.428,281.250 185.727 " stroke="none" fill="#040404" fill-rule="evenodd"></path><path id="path3" d="M6.641 3.516 C 5.405 4.751,5.405 385.874,6.641 387.109 C 7.420 387.888,7.943 387.891,198.437 387.891 C 388.932 387.891,389.455 387.888,390.234 387.109 C 391.470 385.874,391.470 4.751,390.234 3.516 C 388.999 2.280,7.876 2.280,6.641 3.516 M389.830 4.271 C 390.397 5.330,390.397 385.295,389.830 386.354 C 389.328 387.291,8.046 387.577,7.109 386.641 C 6.426 385.957,6.426 4.668,7.109 3.984 C 8.046 3.048,389.328 3.334,389.830 4.271 M222.065 161.336 C 221.930 161.555,221.837 170.476,221.859 181.160 L 221.899 200.586 223.220 202.579 C 223.946 203.675,224.715 205.202,224.927 205.972 C 227.061 213.701,236.302 216.437,249.947 213.380 C 250.456 213.266,251.212 212.596,251.628 211.891 C 252.044 211.186,252.858 210.442,253.438 210.238 C 254.237 209.956,254.666 209.368,255.210 207.810 C 255.606 206.680,256.397 205.295,256.968 204.733 L 258.008 203.711 258.008 195.867 L 258.008 188.022 256.543 186.641 C 255.737 185.881,255.078 184.978,255.078 184.634 C 255.078 184.291,254.611 183.764,254.039 183.465 C 253.468 183.166,252.721 182.330,252.379 181.609 L 251.758 180.297 247.461 179.808 C 241.876 179.174,241.992 179.175,236.523 179.720 C 231.111 180.259,230.859 180.388,230.859 182.617 C 230.859 185.400,233.432 185.744,236.017 183.307 C 238.105 181.338,244.662 181.337,246.262 183.305 C 246.706 183.852,247.731 184.572,248.538 184.905 C 249.401 185.260,250.155 185.904,250.370 186.469 C 250.570 186.996,251.273 187.746,251.930 188.135 C 253.302 188.945,253.362 189.087,253.890 192.773 C 254.793 199.081,254.174 202.989,251.942 205.073 C 251.134 205.828,250.359 206.829,250.218 207.299 C 250.051 207.860,249.335 208.384,248.126 208.828 C 247.116 209.199,245.850 209.890,245.313 210.363 C 242.677 212.682,237.759 212.693,235.742 210.384 C 235.313 209.893,234.204 209.278,233.278 209.020 C 231.165 208.428,230.367 207.633,229.475 205.228 C 229.085 204.179,228.437 202.841,228.035 202.255 C 226.722 200.344,226.522 196.962,226.662 179.016 C 226.787 162.870,226.749 161.637,226.119 161.300 C 225.209 160.813,222.373 160.838,222.065 161.336 M83.707 178.072 C 81.577 180.292,77.962 180.774,73.002 179.501 C 72.249 179.307,71.916 179.407,71.734 179.881 C 71.397 180.762,71.320 213.089,71.654 213.631 C 71.867 213.976,74.786 213.869,75.282 213.498 C 75.330 213.462,75.464 208.220,75.579 201.848 C 75.799 189.740,75.961 188.539,77.464 187.854 C 77.969 187.624,78.599 186.835,78.865 186.101 C 79.130 185.367,79.731 184.564,80.201 184.316 C 80.671 184.068,81.419 183.477,81.864 183.003 C 82.374 182.460,83.386 182.038,84.599 181.863 C 87.827 181.396,88.281 181.216,88.281 180.401 C 88.281 179.140,87.589 178.232,86.278 177.775 C 84.645 177.206,84.524 177.220,83.707 178.072 M194.336 178.491 C 193.047 179.115,191.238 179.846,190.316 180.115 C 188.676 180.594,186.328 183.015,186.328 184.228 C 186.328 184.493,185.669 185.252,184.863 185.916 L 183.398 187.123 183.285 200.046 C 183.160 214.419,183.097 214.063,185.748 214.063 C 187.974 214.063,187.891 214.546,187.891 201.674 C 187.891 188.680,187.904 188.611,191.147 185.018 C 193.789 182.091,194.809 181.669,199.219 181.680 C 202.631 181.688,203.861 182.305,205.755 184.961 C 208.678 189.062,208.590 188.570,208.734 201.503 C 208.881 214.652,208.760 214.063,211.328 214.063 C 213.871 214.063,213.715 214.966,213.682 200.361 C 213.651 186.442,213.553 185.676,211.582 183.962 C 211.044 183.494,210.398 182.616,210.147 182.010 C 209.709 180.953,207.234 179.710,205.497 179.675 C 205.159 179.668,203.833 179.141,202.549 178.503 C 199.498 176.987,197.447 176.984,194.336 178.491 M325.602 177.606 C 325.181 177.725,324.410 178.103,323.887 178.446 C 323.364 178.788,321.775 179.350,320.355 179.694 C 318.017 180.262,317.710 180.454,317.101 181.732 C 316.731 182.508,316.082 183.253,315.660 183.387 C 315.097 183.566,314.769 184.229,314.435 185.859 C 314.184 187.084,313.716 188.701,313.395 189.453 C 312.938 190.526,312.785 193.112,312.688 201.451 C 312.619 207.298,312.459 212.250,312.333 212.455 C 312.008 212.979,314.659 213.783,315.662 213.465 C 316.364 213.242,316.463 212.979,316.296 211.776 C 316.188 210.993,316.212 206.012,316.351 200.709 L 316.602 191.066 317.636 189.966 C 318.205 189.362,318.914 187.991,319.210 186.920 C 319.530 185.765,320.063 184.811,320.519 184.576 C 320.943 184.358,321.753 183.708,322.320 183.131 C 323.594 181.835,325.414 181.471,329.183 181.756 L 332.097 181.976 334.344 184.280 L 336.592 186.584 336.801 192.608 C 336.917 195.922,336.961 201.793,336.899 205.656 C 336.772 213.644,336.880 214.063,339.058 214.063 C 342.027 214.063,342.697 213.443,342.418 210.954 C 342.284 209.763,342.173 204.570,342.171 199.414 C 342.166 187.926,341.731 184.115,340.350 183.487 C 339.824 183.247,339.079 182.437,338.694 181.687 C 338.066 180.463,337.742 180.272,335.540 179.823 C 334.128 179.535,332.706 178.966,332.194 178.485 C 331.285 177.631,327.358 177.107,325.602 177.606 M154.171 178.771 C 153.782 179.161,148.847 180.048,146.978 180.064 C 145.477 180.077,145.230 180.225,144.336 181.641 C 143.793 182.500,143.138 183.203,142.880 183.203 C 142.227 183.203,138.672 187.160,138.672 187.887 C 138.672 188.614,136.767 192.280,136.199 192.647 C 134.971 193.439,135.408 199.920,136.853 202.345 C 137.623 203.639,138.443 205.398,138.673 206.255 C 138.904 207.112,139.276 207.813,139.499 207.813 C 139.723 207.813,141.167 209.097,142.707 210.666 L 145.508 213.520 150.195 214.244 C 157.169 215.322,163.706 214.469,166.041 212.176 C 166.626 211.602,167.651 210.724,168.318 210.224 C 168.985 209.724,169.531 209.080,169.531 208.792 C 169.531 208.504,169.993 207.932,170.556 207.521 C 171.353 206.942,171.661 206.270,171.936 204.516 C 172.131 203.274,172.544 201.766,172.855 201.164 C 173.399 200.113,173.380 200.056,172.353 199.698 C 169.892 198.840,167.579 199.813,167.576 201.708 C 167.572 203.741,166.834 205.795,166.014 206.055 C 165.596 206.188,164.903 206.790,164.473 207.393 C 164.044 207.997,163.116 208.721,162.412 209.004 C 161.709 209.286,160.581 209.990,159.907 210.567 C 157.627 212.522,152.557 212.427,150.431 210.390 C 149.856 209.839,148.777 209.269,148.033 209.122 C 144.591 208.443,143.427 207.375,142.772 204.297 C 142.612 203.545,142.107 202.402,141.651 201.758 C 140.302 199.855,140.215 194.301,141.509 192.749 C 142.035 192.118,142.585 190.953,142.731 190.159 C 143.032 188.518,146.080 185.068,147.666 184.572 C 148.198 184.406,149.210 183.766,149.916 183.150 C 152.211 181.148,159.846 181.595,160.685 183.780 C 160.813 184.114,161.352 184.552,161.884 184.754 C 164.555 185.770,164.441 188.065,161.648 189.489 C 160.764 189.940,159.438 190.895,158.701 191.610 C 157.854 192.433,156.799 193.005,155.827 193.169 C 154.969 193.315,154.054 193.769,153.751 194.202 C 153.453 194.627,152.180 195.388,150.921 195.893 C 146.361 197.722,146.025 202.058,150.541 200.794 C 151.641 200.486,152.371 199.979,152.807 199.219 C 153.247 198.452,153.985 197.943,155.143 197.609 C 156.074 197.340,157.496 196.537,158.302 195.825 C 159.108 195.114,160.187 194.531,160.699 194.531 C 161.212 194.531,162.515 193.923,163.596 193.180 C 164.677 192.436,166.059 191.719,166.667 191.585 C 168.953 191.084,169.743 190.537,170.567 188.885 L 171.406 187.199 170.449 186.763 C 169.922 186.523,169.239 185.724,168.932 184.988 C 168.624 184.253,168.015 183.537,167.578 183.398 C 167.141 183.260,166.432 182.456,166.001 181.612 C 165.277 180.193,165.094 180.078,163.566 180.075 C 162.658 180.074,160.453 179.722,158.667 179.294 C 155.146 178.450,154.561 178.382,154.171 178.771 M41.959 179.285 C 41.511 179.467,39.438 179.830,37.353 180.092 C 33.752 180.545,33.532 180.627,32.966 181.722 C 32.638 182.355,31.787 183.118,31.075 183.415 C 30.199 183.781,29.692 184.309,29.511 185.045 C 29.364 185.643,28.724 186.673,28.089 187.333 C 25.562 189.960,25.410 202.713,27.867 205.941 C 28.405 206.648,28.971 207.754,29.124 208.398 C 29.451 209.779,30.368 210.938,31.133 210.938 C 31.432 210.938,32.152 211.421,32.733 212.012 C 36.376 215.716,53.013 215.571,53.184 211.833 C 53.216 211.126,53.260 210.330,53.281 210.064 C 53.356 209.141,51.909 209.319,49.610 210.515 C 46.140 212.321,41.789 212.212,39.567 210.263 C 39.092 209.847,37.729 209.288,36.538 209.022 C 35.014 208.681,34.242 208.285,33.933 207.687 C 33.691 207.219,33.070 206.484,32.553 206.055 C 29.950 203.892,30.349 189.313,33.051 187.868 C 33.564 187.593,33.984 187.147,33.984 186.876 C 33.984 186.176,35.769 184.865,37.128 184.566 C 37.762 184.427,38.281 184.149,38.281 183.948 C 38.281 182.643,44.038 181.213,46.824 181.825 C 49.028 182.309,54.254 186.803,55.294 189.107 C 55.697 190.001,56.516 191.221,57.115 191.820 C 58.362 193.067,58.288 192.223,58.242 204.688 C 58.224 209.521,58.208 214.940,58.206 216.729 C 58.203 219.841,58.151 220.034,56.997 221.188 C 56.334 221.851,55.638 222.798,55.450 223.292 C 55.262 223.786,54.399 224.638,53.531 225.186 C 52.663 225.734,51.953 226.351,51.953 226.557 C 51.953 227.818,49.605 228.166,41.548 228.101 C 32.723 228.029,32.466 228.092,33.058 230.159 C 33.675 232.314,34.767 232.587,42.839 232.603 C 49.548 232.616,49.985 232.572,50.847 231.784 C 52.049 230.684,54.058 229.688,55.072 229.688 C 55.584 229.688,56.178 229.193,56.674 228.351 C 57.108 227.617,57.970 226.838,58.591 226.622 C 59.491 226.308,59.771 225.926,59.971 224.735 C 60.413 222.108,60.975 220.721,61.846 220.111 C 63.191 219.169,63.183 191.347,61.838 190.310 C 61.354 189.937,60.604 188.490,60.116 186.990 C 59.480 185.035,58.983 184.185,58.239 183.780 C 57.682 183.477,56.546 182.606,55.713 181.844 C 53.971 180.250,54.006 180.261,48.047 179.492 C 42.960 178.836,43.061 178.839,41.959 179.285 M105.664 179.566 C 104.160 179.835,102.350 180.158,101.642 180.283 C 100.773 180.437,100.209 180.831,99.905 181.498 C 99.658 182.040,98.787 182.826,97.970 183.242 C 97.153 183.659,96.484 184.248,96.484 184.550 C 96.484 184.852,95.926 185.536,95.244 186.070 C 91.255 189.192,91.088 204.599,95.007 207.944 C 95.552 208.409,96.104 209.103,96.234 209.487 C 96.364 209.871,97.033 210.486,97.720 210.854 C 98.407 211.222,99.360 211.926,99.837 212.418 C 101.102 213.722,109.645 215.348,112.584 214.844 C 119.867 213.593,119.924 213.568,123.597 209.985 C 126.744 206.915,127.013 206.528,127.338 204.608 C 127.531 203.470,127.807 201.973,127.953 201.282 C 128.309 199.591,127.077 198.945,124.708 199.583 C 123.228 199.981,123.095 200.131,122.858 201.666 C 122.290 205.333,120.096 208.457,117.578 209.182 C 117.041 209.336,116.124 209.909,115.541 210.455 C 113.303 212.550,107.794 212.464,105.370 210.296 C 104.564 209.574,103.597 208.984,103.222 208.983 C 101.155 208.978,98.725 206.253,98.274 203.434 C 98.135 202.562,97.684 201.420,97.272 200.896 C 96.032 199.319,95.830 196.642,96.848 195.265 C 97.344 194.595,97.907 192.929,98.192 191.294 C 98.840 187.565,101.295 184.375,103.515 184.375 C 103.814 184.375,104.540 183.914,105.128 183.351 C 107.475 181.102,114.745 181.030,115.565 183.248 C 115.736 183.708,116.566 184.555,117.410 185.128 C 119.769 186.730,119.604 188.160,116.911 189.453 C 115.793 189.990,114.298 190.980,113.591 191.653 C 112.884 192.326,111.661 193.081,110.874 193.332 C 110.088 193.583,109.351 194.030,109.237 194.326 C 109.026 194.878,106.461 196.153,104.654 196.605 C 102.177 197.225,102.461 201.477,104.946 200.968 C 105.448 200.865,106.299 200.690,106.836 200.578 C 107.373 200.467,107.813 200.146,107.813 199.865 C 107.813 199.054,109.453 197.765,110.869 197.466 C 111.583 197.315,112.729 196.698,113.414 196.096 C 114.100 195.494,115.449 194.793,116.413 194.538 C 117.376 194.283,118.692 193.569,119.338 192.952 C 120.087 192.236,121.260 191.669,122.581 191.386 C 126.309 190.586,128.141 187.626,125.660 186.410 C 125.057 186.115,124.370 185.449,124.134 184.931 C 123.898 184.413,123.117 183.642,122.399 183.218 C 121.681 182.795,121.094 182.191,121.094 181.877 C 121.094 180.659,119.922 180.078,117.453 180.072 C 116.125 180.069,113.940 179.807,112.597 179.491 C 109.904 178.856,109.609 178.859,105.664 179.566 M281.445 179.338 C 280.801 179.539,278.693 179.831,276.761 179.988 C 273.252 180.273,273.247 180.275,272.624 181.597 C 272.280 182.325,271.538 183.162,270.974 183.458 C 270.288 183.818,269.807 184.524,269.518 185.597 C 269.280 186.478,268.663 187.622,268.146 188.139 C 266.554 189.732,266.406 190.400,266.416 195.970 C 266.426 202.255,266.702 203.776,268.080 205.154 C 268.642 205.716,269.200 206.830,269.340 207.671 C 269.782 210.318,269.687 210.204,271.875 210.705 C 272.412 210.828,273.433 211.447,274.144 212.079 C 277.154 214.757,289.390 215.112,292.263 212.605 C 293.040 211.927,293.516 210.093,293.185 209.050 C 292.928 208.240,293.288 208.200,286.635 209.776 C 283.599 210.496,283.135 210.521,282.338 210.010 C 281.847 209.694,280.566 209.310,279.492 209.157 C 273.220 208.261,271.094 204.986,271.094 196.219 C 271.094 190.020,271.339 188.969,272.984 188.118 C 273.613 187.793,274.234 187.101,274.365 186.581 C 274.528 185.929,275.120 185.429,276.266 184.975 C 277.181 184.612,278.394 183.874,278.962 183.336 C 281.147 181.263,289.038 181.293,291.000 183.382 C 291.479 183.892,292.338 184.425,292.908 184.566 C 294.003 184.838,295.703 186.214,295.703 186.828 C 295.703 187.028,296.137 187.533,296.666 187.950 C 298.220 189.172,298.433 190.906,298.435 202.363 C 298.438 214.165,298.417 214.063,300.781 214.063 C 303.153 214.063,303.125 214.205,303.125 201.900 C 303.125 190.357,302.997 189.229,301.503 187.635 C 301.069 187.172,300.483 186.117,300.199 185.291 C 299.883 184.370,299.253 183.552,298.572 183.175 C 297.961 182.838,297.232 182.092,296.952 181.518 C 296.373 180.328,296.307 180.308,290.250 179.502 C 285.260 178.838,283.177 178.799,281.445 179.338 M361.523 180.495 C 360.849 180.695,360.067 181.347,359.682 182.030 C 359.240 182.814,358.599 183.300,357.793 183.461 C 357.122 183.595,356.484 183.987,356.375 184.333 C 355.764 186.266,355.290 187.168,354.305 188.272 C 351.396 191.530,351.412 203.045,354.329 205.775 C 354.953 206.358,355.690 207.621,355.968 208.580 C 356.406 210.096,356.643 210.360,357.778 210.592 C 358.496 210.739,359.545 211.233,360.108 211.690 C 362.576 213.693,369.261 214.660,373.930 213.691 L 376.172 213.226 376.172 211.705 C 376.172 209.646,375.523 209.375,370.587 209.375 C 365.338 209.375,362.487 208.857,361.719 207.764 C 361.396 207.306,360.476 206.245,359.673 205.408 C 357.751 203.404,357.616 202.779,357.626 195.950 L 357.635 190.142 358.749 189.310 C 359.362 188.851,360.529 187.805,361.342 186.984 C 362.825 185.488,365.476 184.375,367.556 184.375 C 369.819 184.375,376.172 181.812,376.172 180.899 C 376.172 180.065,364.102 179.732,361.523 180.495 " stroke="none" fill="#84a45c" fill-rule="evenodd"></path><path id="path4" d="M7.287 4.230 C 6.229 5.400,6.296 385.505,7.355 386.463 C 8.525 387.521,388.630 387.454,389.588 386.395 C 390.646 385.225,390.579 5.120,389.520 4.162 C 388.350 3.104,8.245 3.171,7.287 4.230 M389.258 195.313 L 389.258 386.133 198.438 386.133 L 7.617 386.133 7.517 195.703 C 7.462 90.967,7.501 5.054,7.603 4.785 C 7.751 4.394,46.140 4.316,198.523 4.394 L 389.258 4.492 389.258 195.313 M220.703 160.156 C 219.942 160.917,219.922 161.452,219.931 180.957 C 219.941 202.054,220.066 203.778,221.696 205.484 C 222.217 206.029,222.896 207.314,223.205 208.340 C 225.549 216.130,241.304 221.361,248.368 216.696 C 249.158 216.174,250.470 215.528,251.284 215.260 C 252.097 214.993,253.140 214.264,253.600 213.641 C 254.061 213.018,254.771 212.402,255.178 212.273 C 255.585 212.144,256.245 211.276,256.644 210.343 C 257.044 209.411,257.710 208.467,258.124 208.246 C 259.150 207.697,259.611 206.305,260.178 202.051 C 260.689 198.223,260.755 198.142,262.792 198.852 C 263.823 199.212,264.017 199.511,264.249 201.098 C 264.832 205.081,265.354 206.751,266.391 207.941 C 266.984 208.622,267.766 209.759,268.129 210.466 C 268.491 211.173,269.175 211.903,269.648 212.087 C 270.121 212.271,271.020 212.962,271.645 213.622 C 272.271 214.283,273.677 215.118,274.770 215.479 C 275.863 215.840,277.151 216.391,277.632 216.704 C 279.972 218.224,287.835 217.940,290.752 216.230 C 291.687 215.683,292.788 215.228,293.198 215.221 C 293.609 215.213,294.372 214.971,294.892 214.682 C 295.766 214.198,295.946 214.260,297.198 215.477 C 299.476 217.689,303.202 217.230,304.630 214.560 C 305.231 213.438,305.247 191.059,304.649 188.270 C 304.403 187.125,303.758 185.736,303.143 185.028 C 302.552 184.346,301.861 183.395,301.608 182.914 C 301.355 182.433,300.639 181.776,300.016 181.454 C 299.393 181.132,298.780 180.543,298.654 180.145 C 298.528 179.747,298.032 179.233,297.552 179.003 C 292.553 176.602,291.233 176.132,288.418 175.753 C 284.206 175.186,278.796 175.781,276.263 177.089 C 275.246 177.614,273.752 178.325,272.942 178.668 C 272.133 179.010,271.278 179.712,271.044 180.227 C 270.809 180.742,270.203 181.352,269.698 181.583 C 269.192 181.813,268.334 182.667,267.791 183.481 C 267.248 184.295,266.452 185.400,266.021 185.938 C 265.586 186.479,264.958 188.314,264.610 190.060 L 263.982 193.206 262.364 192.990 C 260.836 192.785,260.729 192.686,260.457 191.211 C 259.352 185.216,259.433 185.424,257.436 183.398 C 254.144 180.057,252.397 178.516,251.904 178.516 C 251.643 178.516,250.272 177.951,248.859 177.262 C 244.684 175.224,236.726 175.271,234.085 177.349 C 230.901 179.853,230.320 178.633,230.265 169.322 C 230.239 165.009,230.077 161.252,229.905 160.974 C 228.873 159.304,222.153 158.707,220.703 160.156 M227.125 161.067 C 227.794 161.556,227.842 162.682,227.919 179.720 L 228.001 197.852 229.235 201.803 C 230.665 206.377,231.495 207.410,234.708 208.611 C 235.921 209.064,237.178 209.662,237.500 209.939 C 239.313 211.499,241.451 211.067,248.259 207.764 C 248.697 207.551,249.528 206.640,250.103 205.739 C 250.679 204.838,251.519 203.649,251.968 203.095 C 253.462 201.256,253.975 196.322,253.098 192.234 C 252.634 190.068,249.375 186.228,246.973 185.016 C 246.274 184.663,245.132 184.067,244.434 183.691 C 242.475 182.637,238.929 182.817,236.603 184.089 C 232.246 186.472,229.688 185.919,229.688 182.595 C 229.688 180.045,229.305 180.270,236.606 178.526 C 241.674 177.315,241.808 177.304,244.028 177.908 C 245.272 178.246,247.486 178.789,248.949 179.115 C 251.438 179.670,251.772 179.877,254.126 182.334 C 258.608 187.014,258.442 186.684,259.043 192.086 C 259.645 197.506,258.865 204.457,257.459 206.190 C 256.996 206.760,256.309 207.864,255.932 208.643 C 254.820 210.940,251.339 213.787,248.633 214.612 C 247.344 215.005,245.787 215.584,245.172 215.898 C 239.287 218.912,226.586 213.569,224.466 207.187 C 224.103 206.095,223.438 204.806,222.987 204.322 C 221.198 202.403,221.094 201.095,221.094 180.680 C 221.094 166.271,221.211 161.367,221.563 161.016 C 222.197 160.381,226.238 160.419,227.125 161.067 M81.505 175.961 C 80.679 176.255,79.746 176.863,79.432 177.311 C 78.708 178.346,78.110 178.337,76.758 177.274 C 75.310 176.135,72.356 175.670,71.208 176.401 C 69.596 177.426,69.481 178.933,69.607 197.332 L 69.727 214.781 70.674 215.789 C 73.765 219.079,78.113 215.454,77.612 210.004 C 77.099 204.430,77.885 190.983,78.765 190.271 C 79.211 189.909,80.035 188.888,80.594 188.001 C 81.154 187.115,82.011 186.263,82.500 186.108 C 82.988 185.953,84.006 185.428,84.760 184.941 C 85.515 184.454,86.702 183.938,87.398 183.795 C 90.109 183.235,91.320 178.829,89.425 176.420 C 88.476 175.213,84.284 174.970,81.505 175.961 M107.565 175.777 C 106.125 175.938,104.488 176.438,103.463 177.030 C 102.525 177.571,101.284 178.128,100.705 178.267 C 100.126 178.406,98.867 179.178,97.906 179.983 C 96.946 180.787,95.420 182.045,94.515 182.779 C 93.559 183.553,92.482 184.945,91.946 186.099 C 91.438 187.192,90.625 188.582,90.140 189.189 C 88.858 190.791,88.779 203.058,90.039 204.867 C 90.469 205.484,91.301 206.883,91.888 207.975 C 93.388 210.764,97.612 214.637,100.030 215.440 C 101.088 215.791,101.953 216.220,101.953 216.393 C 101.953 218.183,114.356 218.914,117.383 217.302 C 118.242 216.844,119.874 216.023,121.008 215.478 C 127.108 212.544,133.512 201.847,130.858 199.022 C 129.110 197.162,123.520 196.792,121.883 198.430 C 121.489 198.824,120.944 200.140,120.672 201.353 C 120.385 202.637,119.901 203.708,119.515 203.915 C 119.150 204.110,118.560 204.884,118.204 205.635 C 116.740 208.720,103.770 209.134,103.191 206.114 C 102.985 205.035,104.909 203.274,106.905 202.715 C 107.873 202.444,109.378 201.627,110.249 200.899 C 111.120 200.171,112.621 199.365,113.583 199.108 C 114.546 198.850,115.707 198.246,116.163 197.764 C 116.619 197.283,118.091 196.520,119.434 196.069 C 120.777 195.618,122.128 194.887,122.438 194.446 C 122.747 194.004,124.107 193.272,125.460 192.818 C 128.297 191.866,128.892 191.060,128.900 188.153 C 128.907 186.035,128.871 185.988,122.946 180.224 C 122.035 179.338,120.850 178.481,120.313 178.319 C 119.775 178.157,118.633 177.617,117.773 177.119 C 115.616 175.867,111.548 175.333,107.565 175.777 M153.320 175.643 C 150.648 175.951,148.078 176.641,147.641 177.167 C 147.384 177.476,146.496 177.911,145.667 178.135 C 144.838 178.358,143.379 179.194,142.426 179.993 C 141.472 180.792,139.979 182.022,139.108 182.727 C 138.018 183.609,137.379 184.522,137.057 185.656 C 136.800 186.563,136.070 187.862,135.435 188.543 C 132.837 191.333,132.778 202.518,135.348 205.243 C 136.143 206.086,136.701 207.156,136.859 208.139 C 137.107 209.694,137.311 209.944,140.820 212.990 C 142.507 214.454,144.554 215.625,145.428 215.625 C 145.727 215.625,146.483 216.064,147.107 216.601 C 148.610 217.895,150.070 218.154,155.664 218.122 C 160.382 218.095,161.113 217.929,164.063 216.216 C 164.600 215.904,165.654 215.378,166.406 215.047 C 168.694 214.041,172.814 209.747,173.390 207.769 C 173.665 206.826,174.341 205.361,174.892 204.513 C 177.165 201.016,176.457 198.474,172.977 197.640 C 168.581 196.585,166.277 197.698,165.586 201.211 C 165.260 202.868,164.887 203.653,164.218 204.092 C 163.712 204.424,163.029 205.214,162.701 205.849 C 161.608 207.963,156.679 208.822,151.774 207.754 C 147.861 206.902,147.777 206.857,147.592 205.469 C 147.495 204.743,147.193 204.461,146.420 204.372 C 145.305 204.243,144.811 203.546,145.286 202.777 C 145.595 202.277,147.564 202.898,148.108 203.667 C 148.259 203.880,148.905 203.781,149.671 203.428 C 150.389 203.097,151.642 202.614,152.455 202.355 C 153.269 202.096,154.210 201.462,154.547 200.948 C 154.956 200.323,155.988 199.764,157.652 199.265 C 159.023 198.853,160.679 198.067,161.332 197.518 C 161.985 196.968,163.504 196.208,164.706 195.829 C 166.017 195.416,167.125 194.784,167.475 194.250 C 167.796 193.760,168.287 193.359,168.567 193.359 C 172.040 193.359,174.665 188.962,173.023 185.894 C 172.137 184.238,166.178 178.571,165.032 178.295 C 164.391 178.141,163.146 177.598,162.264 177.090 C 160.972 176.344,155.721 175.215,154.688 175.461 C 154.580 175.487,153.965 175.568,153.320 175.643 M192.455 175.957 C 191.635 176.249,190.668 176.749,190.306 177.067 C 189.944 177.385,188.758 178.091,187.671 178.636 C 186.153 179.396,185.527 179.995,184.980 181.208 C 184.588 182.078,183.922 183.102,183.500 183.484 C 182.004 184.838,181.571 186.352,181.248 191.362 C 180.777 198.672,180.798 212.483,181.282 213.958 C 182.238 216.869,186.324 217.818,188.631 215.664 C 190.076 214.314,189.981 215.245,190.013 202.116 L 190.039 191.536 191.025 190.006 C 191.567 189.165,192.270 187.963,192.587 187.336 C 192.918 186.681,193.663 186.036,194.336 185.820 C 194.980 185.614,195.785 185.204,196.125 184.910 C 196.967 184.179,200.162 184.214,200.781 184.961 C 201.049 185.283,201.490 185.547,201.762 185.547 C 202.765 185.547,203.987 186.987,204.749 189.071 C 205.561 191.287,206.452 207.353,205.974 211.152 C 205.418 215.568,211.203 218.662,214.412 215.664 C 215.079 215.040,215.639 214.117,215.657 213.613 C 215.804 209.335,215.594 187.743,215.391 186.350 C 215.062 184.079,214.281 182.544,213.298 182.232 C 212.873 182.097,212.139 181.301,211.668 180.463 C 211.163 179.563,210.358 178.781,209.704 178.553 C 209.095 178.340,208.024 177.742,207.325 177.223 C 204.799 175.347,196.213 174.616,192.455 175.957 M322.852 175.583 C 322.637 175.654,322.021 175.812,321.484 175.932 C 320.947 176.053,319.997 176.596,319.373 177.138 C 318.749 177.681,317.984 178.125,317.674 178.125 C 316.879 178.125,313.415 181.921,312.505 183.789 C 312.087 184.648,311.343 185.848,310.853 186.454 C 309.528 188.091,309.232 212.675,310.512 214.726 C 312.089 217.252,316.264 217.270,318.772 214.762 L 319.868 213.665 320.012 202.438 C 320.203 187.510,320.168 187.644,324.470 185.542 C 327.597 184.014,327.760 183.978,328.878 184.556 C 329.517 184.886,330.291 185.156,330.599 185.156 C 331.199 185.156,333.582 187.619,334.440 189.126 C 334.835 189.817,334.986 192.836,335.064 201.563 C 335.179 214.483,335.186 214.547,336.596 215.854 C 338.466 217.587,344.122 216.637,345.366 214.381 C 346.401 212.502,345.815 187.607,344.705 186.328 C 344.425 186.006,343.843 184.919,343.412 183.912 C 342.980 182.905,342.184 181.791,341.641 181.436 C 341.099 181.080,340.548 180.451,340.417 180.037 C 340.285 179.623,339.443 178.915,338.546 178.465 C 337.648 178.015,336.563 177.325,336.133 176.933 C 334.800 175.716,325.337 174.754,322.852 175.583 M38.757 176.356 C 37.837 176.643,36.855 177.068,36.575 177.301 C 36.295 177.534,35.290 177.996,34.341 178.328 C 32.645 178.922,32.102 179.372,27.654 183.876 C 25.756 185.796,25.325 186.510,24.757 188.672 C 24.390 190.068,23.834 191.727,23.521 192.358 C 22.496 194.423,22.409 199.703,23.374 201.264 C 23.827 201.997,24.399 203.551,24.646 204.716 C 25.166 207.173,25.987 208.938,26.743 209.228 C 27.035 209.340,27.376 209.843,27.502 210.345 C 27.802 211.539,32.005 215.036,33.883 215.655 C 34.691 215.921,35.791 216.463,36.328 216.858 C 38.750 218.642,48.808 218.704,51.391 216.951 C 53.180 215.737,53.838 215.770,54.127 217.090 C 54.256 217.681,54.429 218.381,54.510 218.646 C 54.592 218.911,54.410 219.614,54.107 220.209 C 53.804 220.803,53.467 221.589,53.359 221.955 C 53.251 222.321,52.495 222.981,51.679 223.422 C 50.863 223.862,49.699 224.617,49.093 225.099 C 47.717 226.195,38.607 226.409,35.615 225.416 C 31.780 224.144,28.194 229.797,30.826 232.967 C 33.196 235.823,51.570 235.669,54.877 232.765 C 55.581 232.147,56.346 231.641,56.576 231.641 C 56.806 231.641,57.557 230.941,58.244 230.086 C 58.931 229.230,59.802 228.433,60.178 228.313 C 60.554 228.194,61.170 227.444,61.546 226.646 C 61.922 225.848,62.627 224.668,63.112 224.023 C 65.924 220.289,65.665 189.060,62.796 185.853 C 62.311 185.311,61.614 184.316,61.247 183.641 C 60.880 182.967,60.166 182.258,59.662 182.066 C 59.158 181.874,58.274 181.100,57.698 180.345 C 56.964 179.382,56.038 178.773,54.595 178.303 C 53.464 177.935,52.275 177.410,51.953 177.137 C 50.346 175.774,42.170 175.290,38.757 176.356 M88.165 177.489 C 88.693 177.986,88.961 180.857,88.541 181.536 C 88.391 181.779,87.315 182.176,86.152 182.418 C 83.402 182.989,81.392 184.454,78.341 188.111 C 76.361 190.483,76.237 191.383,76.200 203.539 C 76.169 214.235,76.171 214.226,73.576 214.640 C 70.642 215.108,70.703 215.486,70.703 196.769 C 70.703 176.697,70.505 177.506,75.132 178.711 C 78.180 179.505,79.389 179.449,80.651 178.456 C 82.867 176.713,86.798 176.207,88.165 177.489 M206.503 178.729 C 209.189 180.045,210.321 180.826,210.754 181.663 C 211.079 182.291,211.767 183.082,212.284 183.421 C 214.073 184.593,214.210 185.668,214.364 199.733 C 214.532 215.059,214.574 214.844,211.442 214.844 C 207.801 214.844,207.813 214.885,207.813 202.189 L 207.813 191.232 206.381 188.373 C 202.482 180.588,195.393 180.370,190.332 187.880 L 188.672 190.344 188.672 201.726 C 188.672 214.981,188.705 214.844,185.534 214.844 C 182.306 214.844,182.352 215.064,182.495 200.324 C 182.619 187.491,182.902 185.156,184.331 185.156 C 184.510 185.156,185.205 184.127,185.876 182.869 C 186.979 180.799,187.327 180.479,189.544 179.498 C 190.890 178.902,192.275 178.168,192.621 177.868 C 194.885 175.902,201.577 176.317,206.503 178.729 M334.180 178.087 C 335.469 178.701,336.879 179.311,337.314 179.444 C 338.978 179.950,342.029 184.035,342.751 186.724 C 343.629 189.995,344.360 212.348,343.618 213.244 C 342.360 214.765,338.051 215.392,337.060 214.199 C 336.640 213.694,336.477 210.794,336.309 200.820 C 336.067 186.417,336.286 187.543,333.189 184.817 L 330.857 182.765 327.772 182.771 C 324.341 182.779,320.871 184.684,319.994 187.042 C 319.780 187.616,319.149 189.274,318.592 190.727 C 317.597 193.320,317.578 193.548,317.578 203.298 L 317.578 213.228 316.418 214.054 C 315.410 214.772,315.058 214.826,313.729 214.469 C 311.193 213.786,311.253 214.125,311.404 201.290 L 311.542 189.648 312.607 187.427 C 313.193 186.206,313.672 185.033,313.672 184.822 C 313.672 184.214,318.007 179.297,318.542 179.297 C 318.807 179.297,319.885 178.838,320.938 178.276 C 324.760 176.238,330.134 176.162,334.180 178.087 M160.156 178.336 C 161.768 178.844,163.577 179.361,164.177 179.485 C 164.820 179.618,166.116 180.627,167.338 181.945 C 173.924 189.051,173.901 189.238,165.948 193.145 C 162.908 194.638,159.965 196.231,159.409 196.684 C 158.853 197.137,157.607 197.733,156.641 198.007 C 155.674 198.282,154.268 199.092,153.516 199.807 C 152.764 200.522,151.390 201.307,150.464 201.552 C 145.891 202.759,144.858 197.986,149.219 195.797 C 150.186 195.312,151.467 194.555,152.065 194.115 C 152.664 193.675,153.894 193.053,154.798 192.734 C 155.703 192.415,156.970 191.663,157.616 191.062 C 158.261 190.461,159.624 189.495,160.645 188.914 C 162.972 187.589,162.963 187.179,160.556 185.164 C 157.837 182.887,152.358 181.990,151.330 183.653 C 151.196 183.871,150.358 184.361,149.469 184.743 C 147.647 185.525,143.818 189.191,143.549 190.411 C 143.452 190.851,143.106 192.408,142.780 193.872 C 142.035 197.215,142.030 198.861,142.761 199.828 C 143.076 200.245,143.340 201.163,143.347 201.868 C 143.373 204.588,145.845 207.842,148.347 208.452 C 148.934 208.595,150.381 209.154,151.563 209.695 C 154.540 211.057,156.575 210.964,160.057 209.306 C 163.178 207.819,166.797 204.205,166.797 202.575 C 166.797 200.972,167.598 199.305,168.482 199.068 C 171.062 198.376,174.939 199.434,174.396 200.681 C 174.232 201.059,173.612 202.738,173.019 204.413 C 168.655 216.739,152.796 220.383,141.884 211.567 C 139.654 209.765,138.973 208.934,138.125 206.978 C 137.556 205.665,136.753 204.162,136.341 203.638 C 134.412 201.186,134.396 192.634,136.316 190.251 C 136.756 189.705,137.528 188.379,138.033 187.305 C 138.647 185.998,139.948 184.447,141.966 182.617 C 143.624 181.113,145.026 179.839,145.081 179.786 C 145.136 179.733,146.572 179.316,148.274 178.860 C 149.975 178.404,152.158 177.798,153.125 177.514 C 155.116 176.929,156.026 177.035,160.156 178.336 M366.580 177.328 C 366.138 177.507,364.380 177.874,362.673 178.145 C 359.916 178.581,359.418 178.794,358.203 180.056 C 357.451 180.838,356.345 181.787,355.744 182.165 C 355.144 182.544,354.501 183.253,354.315 183.741 C 354.129 184.230,353.532 184.921,352.987 185.278 C 352.328 185.710,351.765 186.682,351.308 188.178 C 350.930 189.417,350.227 190.914,349.748 191.506 C 347.987 193.678,348.022 199.924,349.813 202.979 C 350.366 203.923,351.081 205.440,351.403 206.351 C 351.724 207.262,352.415 208.447,352.939 208.984 C 358.135 214.312,358.734 214.737,362.081 215.465 C 363.708 215.819,365.206 216.264,365.410 216.453 C 365.957 216.960,373.294 216.871,375.079 216.336 C 377.456 215.624,378.180 214.417,378.044 211.393 C 377.878 207.715,377.418 207.455,370.452 207.092 C 364.217 206.766,364.119 206.716,361.112 202.355 C 358.135 198.037,359.379 191.577,363.714 188.840 C 364.550 188.313,365.234 187.726,365.234 187.537 C 365.234 186.959,366.267 186.742,371.019 186.320 C 377.987 185.702,379.709 183.598,377.309 178.639 L 376.493 176.953 371.938 176.978 C 369.433 176.992,367.021 177.149,366.580 177.328 M48.911 178.087 C 50.047 178.495,52.015 179.143,53.285 179.527 C 54.749 179.969,55.963 180.640,56.605 181.362 C 57.162 181.988,58.057 182.728,58.594 183.007 C 59.221 183.333,60.269 184.877,61.523 187.323 L 63.477 191.133 63.477 205.234 L 63.477 219.336 62.258 221.680 C 61.588 222.969,60.905 224.463,60.741 225.000 C 60.370 226.219,56.926 229.621,55.009 230.664 C 54.219 231.094,52.821 231.863,51.902 232.373 C 48.984 233.993,34.539 233.926,32.899 232.285 C 31.106 230.492,32.428 226.576,34.638 227.130 C 37.126 227.755,48.831 227.416,49.961 226.687 C 52.646 224.954,54.271 223.548,54.842 222.461 C 55.181 221.816,55.842 220.812,56.311 220.229 C 57.144 219.193,57.164 218.894,57.195 207.143 L 57.227 195.117 55.591 191.797 C 50.692 181.853,41.746 180.236,34.330 187.954 C 31.842 190.544,31.637 191.263,31.645 197.418 C 31.651 202.793,31.883 203.639,33.969 205.920 C 36.937 209.165,44.714 211.482,47.611 209.984 C 51.725 207.857,54.598 208.507,54.359 211.512 L 54.212 213.360 51.227 214.786 C 45.890 217.334,35.830 216.257,32.041 212.732 C 31.499 212.227,30.681 211.623,30.225 211.388 C 29.768 211.154,29.036 210.200,28.598 209.268 C 28.160 208.336,27.535 207.352,27.208 207.081 C 26.071 206.137,24.867 199.434,25.132 195.514 C 25.542 189.437,26.586 186.752,29.691 183.789 C 30.141 183.359,31.183 182.341,32.007 181.527 C 33.233 180.314,34.130 179.877,36.967 179.114 C 38.871 178.602,40.869 178.005,41.406 177.788 C 43.010 177.140,46.685 177.286,48.911 178.087 M114.516 178.150 C 115.641 178.593,117.390 179.113,118.403 179.305 C 120.964 179.791,127.871 186.600,127.473 188.248 C 126.888 190.672,126.646 190.924,124.094 191.773 C 122.709 192.234,121.279 192.939,120.917 193.338 C 120.556 193.738,119.229 194.451,117.969 194.922 C 116.709 195.393,115.382 196.106,115.019 196.506 C 114.657 196.906,113.459 197.529,112.356 197.891 C 111.254 198.253,109.724 199.111,108.956 199.797 C 105.300 203.066,100.539 201.967,102.041 198.200 C 102.637 196.706,104.253 195.615,110.025 192.815 C 111.564 192.068,112.971 191.205,113.150 190.897 C 113.330 190.589,114.487 189.769,115.723 189.076 C 118.531 187.500,118.521 187.277,115.527 184.931 C 110.753 181.189,101.077 184.212,99.243 190.018 C 98.304 192.990,98.015 197.319,98.672 198.586 C 99.059 199.335,99.280 200.633,99.244 201.953 C 99.093 207.552,109.796 213.081,114.417 209.792 C 115.000 209.376,115.975 208.911,116.583 208.759 C 118.813 208.199,121.639 204.544,122.108 201.611 C 122.586 198.621,128.103 197.452,129.128 200.123 C 129.344 200.687,128.038 206.167,127.426 207.261 C 126.729 208.506,121.374 213.622,120.369 214.002 C 119.801 214.218,118.134 214.858,116.665 215.426 C 112.896 216.883,105.800 216.778,103.711 215.234 C 103.496 215.075,102.617 214.719,101.758 214.443 C 98.513 213.398,94.310 209.249,92.272 205.078 C 90.436 201.321,90.088 193.197,91.652 190.625 C 92.109 189.873,92.680 188.643,92.920 187.891 C 93.160 187.139,94.192 185.698,95.213 184.688 C 99.436 180.515,100.468 179.747,102.492 179.271 C 103.592 179.013,105.107 178.481,105.859 178.090 C 107.799 177.081,111.875 177.109,114.516 178.150 M289.648 177.948 C 290.508 178.262,292.338 178.785,293.716 179.112 C 295.975 179.647,296.454 179.949,298.599 182.186 C 303.628 187.433,303.901 188.499,303.904 202.905 C 303.907 214.612,303.841 214.844,300.546 214.844 C 297.308 214.844,297.177 214.355,297.362 202.946 C 297.548 191.428,297.495 191.041,295.355 188.143 C 290.449 181.503,281.022 181.345,274.685 187.798 C 272.020 190.511,271.875 190.958,271.877 196.412 C 271.880 202.281,272.178 203.266,274.700 205.752 C 278.372 209.371,288.854 210.243,292.207 207.208 C 293.648 205.905,294.922 208.817,294.156 211.661 C 292.932 216.209,277.861 216.838,272.812 212.552 C 272.145 211.986,271.071 211.238,270.425 210.889 C 269.733 210.516,269.137 209.805,268.976 209.161 C 268.825 208.560,268.188 207.351,267.560 206.475 C 264.704 202.488,264.730 190.929,267.604 186.850 C 268.234 185.956,268.750 185.043,268.750 184.821 C 268.750 183.505,273.372 179.756,275.554 179.303 C 276.786 179.048,278.703 178.515,279.815 178.120 C 282.321 177.228,287.431 177.139,289.648 177.948 M374.693 179.314 C 376.477 179.809,376.708 180.156,376.388 181.860 C 376.049 183.668,374.795 184.254,370.052 184.819 C 361.838 185.797,358.235 189.537,358.212 197.110 C 358.201 201.002,358.640 202.319,360.867 205.072 C 363.324 208.110,363.827 208.307,369.922 208.612 C 372.822 208.757,375.486 209.001,375.842 209.153 C 376.602 209.479,376.997 212.703,376.374 213.495 C 374.755 215.553,362.497 215.100,359.766 212.881 C 359.229 212.445,358.205 211.821,357.492 211.496 C 356.778 211.170,355.899 210.367,355.539 209.711 C 355.178 209.056,354.408 207.908,353.829 207.161 C 352.703 205.710,350.906 200.663,350.545 197.940 C 350.058 194.262,353.155 186.694,356.392 183.652 C 359.077 181.129,360.059 180.336,360.918 179.997 C 363.166 179.110,372.323 178.655,374.693 179.314 M248.008 187.281 C 248.244 187.427,248.438 187.787,248.438 188.081 C 248.438 188.374,249.041 189.112,249.778 189.720 C 252.279 191.782,253.055 199.610,250.954 201.583 C 250.405 202.099,249.434 203.433,248.797 204.546 C 247.589 206.659,247.119 206.948,243.175 208.004 C 239.810 208.905,235.084 207.740,232.787 205.443 C 231.942 204.598,231.249 203.862,231.248 203.809 C 231.246 203.755,231.071 202.656,230.857 201.367 C 229.715 194.470,230.005 189.175,231.605 187.727 C 231.966 187.401,234.347 186.627,236.898 186.006 L 241.535 184.878 244.557 185.947 C 246.218 186.534,247.771 187.134,248.008 187.281 M48.385 186.153 C 49.652 186.530,50.542 187.060,50.830 187.611 C 51.078 188.087,51.773 188.916,52.374 189.453 C 54.612 191.455,56.173 204.530,54.387 206.316 C 52.238 208.465,37.814 208.485,36.523 206.341 C 36.309 205.984,35.484 205.009,34.691 204.175 C 31.814 201.146,32.118 192.145,35.185 189.564 C 35.791 189.055,36.389 188.316,36.513 187.922 C 37.181 185.818,43.889 184.818,48.385 186.153 M114.331 186.373 L 115.717 187.230 114.206 188.110 C 113.375 188.595,112.157 189.507,111.499 190.137 C 110.744 190.860,109.691 191.381,108.646 191.548 C 107.495 191.732,106.574 192.228,105.630 193.172 C 104.882 193.920,104.084 194.531,103.855 194.531 C 103.626 194.531,102.824 194.823,102.073 195.179 C 99.402 196.447,99.128 191.764,101.730 189.310 C 102.497 188.586,103.125 187.790,103.125 187.542 C 103.125 185.613,111.660 184.722,114.331 186.373 M156.984 185.533 C 157.707 185.741,158.745 186.203,159.290 186.560 L 160.281 187.209 158.804 188.101 C 157.991 188.591,156.856 189.508,156.282 190.137 C 155.585 190.900,154.692 191.368,153.605 191.542 C 152.657 191.694,151.437 192.270,150.694 192.917 C 146.821 196.288,144.267 196.102,144.676 192.480 C 145.175 188.053,152.114 184.137,156.984 185.533 M290.478 186.328 C 294.231 187.614,295.508 190.618,295.508 198.159 C 295.508 203.930,295.390 204.278,293.438 204.291 C 292.944 204.294,291.914 204.904,291.150 205.646 C 287.378 209.310,278.914 208.031,275.000 203.206 L 273.242 201.039 273.242 196.680 C 273.242 192.424,273.270 192.286,274.414 190.848 C 275.059 190.038,275.882 188.925,276.244 188.374 C 278.128 185.507,285.144 184.499,290.478 186.328 " stroke="none" fill="#4c6827" fill-rule="evenodd"></path></g></svg>