<?xml version="1.0" encoding="UTF-8"?>
<svg id="Layer_1" data-name="Layer 1" xmlns="http://www.w3.org/2000/svg" viewBox="0 0 60.43 67.5">
  <defs>
    <style>
      .cls-1 {
        fill: #fff;
      }

      .cls-2 {
        fill: #4d8b90;
      }

      .cls-3 {
        opacity: .5;
      }

      .cls-4 {
        fill: #54a4a4;
      }

      .cls-5 {
        fill: #5b482f;
      }

      .cls-6 {
        fill: #49312f;
      }

      .cls-7 {
        opacity: .1;
      }

      .cls-8 {
        fill: #684c2f;
      }

      .cls-9 {
        fill: #3f222f;
      }

      .cls-10 {
        opacity: .3;
      }

      .cls-11 {
        fill: #606f6d;
      }

      .cls-12 {
        fill: #563d2f;
      }
    </style>
  </defs>
  <g>
    <path class="cls-4" d="m6.5,15.9c4.8-.85,9.89,4.86,11.5,12.81-2.31-5.34-6.26-8.74-10.03-8.07-4.88.87-7.6,8.19-6.07,16.35.03.14.06.27.09.4-.68-1.57-1.22-3.3-1.56-5.15-1.52-8.16,1.2-15.49,6.07-16.35Z"/>
    <path class="cls-2" d="m4.5,22.52c-2.39,2.96-3.42,8.26-2.35,13.99,1.52,8.16,6.71,14.08,11.59,13.21,1.18-.21,2.23-.8,3.13-1.69-1.02,1.26-2.27,2.1-3.73,2.36-4.88.87-10.07-5.05-11.59-13.21-1.15-6.19.13-11.88,2.94-14.66Z"/>
    <path class="cls-11" d="m2.02,28.81c.02,1.34.15,2.72.41,4.14,1.52,8.16,6.71,14.08,11.59,13.21,3.27-.58,5.56-4.06,6.26-8.75.09,6.37-2.45,11.5-6.49,12.21-4.88.87-10.07-5.05-11.59-13.21-.5-2.69-.54-5.29-.19-7.6Z"/>
  </g>
  <path class="cls-4" d="m10.5,10.95c-.04-.9.17-1.74.56-2.48C12.44,3.69,22.85,0,35.65,0c13.93,0,25.04,4.37,24.82,9.76,0,.21-.04.42-.08.63.01.19.04.37.03.57l-1.74,42.07c0,.21-.05.4-.08.61.02.28.03.57.02.86-.3,7.19-10.58,13.01-22.96,13.01s-22.7-5.83-23.05-13.01c-.01-.29,0-.58.01-.86-.03-.2-.08-.4-.09-.61l-2.04-42.07Z"/>
  <ellipse class="cls-2" cx="35.42" cy="10.28" rx="23.52" ry="9.22"/>
  <g>
    <path class="cls-6" d="m57.58,13.34c-3.22,3.59-11.93,6.16-22.18,6.16-10.82,0-19.92-2.86-22.67-6.76,3.22-3.59,11.93-6.16,22.18-6.16,10.82,0,19.92,2.86,22.67,6.76Z"/>
    <path class="cls-5" d="m37.26,13.34c.91.6,10.01,2.15,13.01,4.1-1.36.44-2.84.83-4.43,1.14-26.93-1.07-13.42-4.94-15.84-8.03-4.92-1.36-5.88-2.32-5.19-3.03,2.07-.38,4.3-.65,6.64-.78,10.63,3.04,24.37,4.68,5.82,6.6Z"/>
    <ellipse class="cls-6" cx="45.13" cy="11.26" rx=".59" ry=".38"/>
    <ellipse class="cls-9" cx="45.6" cy="10.62" rx=".3" ry=".19"/>
    <ellipse class="cls-9" cx="46.22" cy="11.66" rx=".2" ry=".12"/>
    <ellipse class="cls-9" cx="29.17" cy="14.81" rx=".9" ry=".51"/>
    <ellipse class="cls-8" cx="28.9" cy="14.55" rx=".22" ry=".12"/>
    <ellipse class="cls-12" cx="22.94" cy="15.19" rx="2.04" ry=".63"/>
    <ellipse class="cls-9" cx="21.81" cy="15.19" rx=".58" ry=".22"/>
    <ellipse class="cls-8" cx="32.41" cy="6.74" rx=".53" ry=".39"/>
    <ellipse class="cls-8" cx="25.15" cy="7.46" rx=".32" ry=".28"/>
    <ellipse class="cls-9" cx="32.41" cy="6.86" rx=".35" ry=".21"/>
    <ellipse class="cls-9" cx="40.43" cy="18.2" rx="1.93" ry="1.05"/>
    <ellipse class="cls-8" cx="46.31" cy="11.6" rx=".04" ry=".03"/>
    <ellipse class="cls-8" cx="44.95" cy="11.05" rx=".11" ry=".04" transform="translate(-1.01 5.57) rotate(-7.01)"/>
    <path class="cls-6" d="m37.72,13.55c.93.36,2.49.78,3.48.75.99-.05,2.54-.27,3.48-.67.93-.11-.62-.53-3.48-.75-2.85-.25-4.41-.03-3.48.67Z"/>
    <path class="cls-6" d="m26.65,8.36c.81.42,2.17.92,3.02.89.86-.06,2.21-.32,3.02-.79.81-.13-.54-.63-3.02-.89-2.48-.29-3.84-.04-3.02.79Z"/>
    <path class="cls-6" d="m43.48,11.04c-.82-.52-2.19-1.14-3.05-1.1-.87.07-2.23.39-3.05.98-.82.17.55.78,3.05,1.1,2.51.36,3.87.04,3.05-.98Z"/>
    <path class="cls-5" d="m26.3,7.99c-.76-.4-1.9-.68-2.46-.1-.56.67-1.4,2.13-1.79,3.79-.53.89,3.6-.04,2.54-.1-2-.18,2.69-2.41,1.7-3.59Z"/>
    <ellipse class="cls-9" cx="37.45" cy="8.46" rx=".9" ry=".51"/>
    <ellipse class="cls-8" cx="37.17" cy="8.2" rx=".22" ry=".12"/>
  </g>
  <g class="cls-7">
    <path class="cls-1" d="m57.06,18.21c.06,3.37-.11,6.72-.47,10.06-.21,1.67-.5,3.32-.67,4.99-.17,1.67-.25,3.34-.31,5.02-.09,3.36-.3,6.71-.58,10.05-.33,3.34-.72,6.67-1.32,9.99h-.1c-.04-3.38.13-6.73.35-10.08.28-3.34.63-6.68,1.09-10.01.22-1.66.42-3.33.53-5,.1-1.67.1-3.36.16-5.04.2-3.35.59-6.68,1.2-10h.1Z"/>
  </g>
  <g class="cls-7">
    <path class="cls-1" d="m52.17,38.6c.19,1.88.13,3.74-.1,5.58-.15.92-.37,1.83-.48,2.76-.12.92-.13,1.85-.12,2.79.04,1.87-.06,3.72-.2,5.58-.2,1.85-.48,3.69-.94,5.51h-.1c-.16-1.89-.13-3.75-.02-5.6.16-1.85.37-3.7.72-5.53.16-.92.3-1.84.34-2.77.04-.93-.03-1.87-.02-2.8.08-1.86.33-3.7.83-5.52h.1Z"/>
  </g>
  <g class="cls-10">
    <path class="cls-2" d="m14.45,17.91c.63,6.87,1.23,13.74,1.81,20.61.3,3.44.65,6.87.83,10.31.15,3.45.32,6.89.28,10.35h-.1c-.53-3.41-.84-6.85-1.18-10.28-.31-3.43-.44-6.88-.63-10.33-.4-6.89-.77-13.77-1.11-20.66h.1Z"/>
  </g>
  <g class="cls-10">
    <path class="cls-2" d="m13.72,24.34c-.84-2.75-1.05-5.68-.6-8.52.33,2.65.55,5.86.6,8.52h0Z"/>
  </g>
  <g class="cls-3">
    <path class="cls-11" d="m57.77,12.49c-.09-.4-.15-.8-.18-1.2-.04-.4-.03-.8-.05-1.2.02-.4.02-.8.06-1.2.03-.4.1-.8.19-1.2h.03c0,1.6,0,3.2-.03,4.8h-.03Z"/>
  </g>
  <g class="cls-3">
    <path class="cls-11" d="m57.05,9.98c-.08-.24-.14-.48-.17-.72-.03-.24-.02-.48-.04-.71.03-.24.03-.47.08-.71.04-.24.11-.47.2-.71h.03c0,.95-.04,1.9-.08,2.85h-.03Z"/>
  </g>
</svg>