<?xml version="1.0" encoding="UTF-8"?>
<svg id="Layer_1" data-name="Layer 1" xmlns="http://www.w3.org/2000/svg" viewBox="0 0 168.1 184.75">
  <defs>
    <style>
      .cls-1 {
        fill: #f0f0f0;
      }

      .cls-2 {
        fill: #fff;
      }

      .cls-3 {
        fill: #dce6e6;
      }

      .cls-4 {
        fill: #ffbdd2;
      }

      .cls-5 {
        fill: #00001c;
      }

      .cls-6 {
        fill: #f9d64f;
      }

      .cls-7 {
        fill: #42591c;
      }
    </style>
  </defs>
  <ellipse class="cls-5" cx="50.5" cy="130.75" rx="32.5" ry="54"/>
  <ellipse class="cls-1" cx="50.5" cy="126.04" rx="13.5" ry="25.72"/>
  <g>
    <path class="cls-5" d="m111.87,12.72c-4.67-2.74-37.16,14.07-37.16,14.07l27.38,24.18s12.22-36.81,9.78-38.25Z"/>
    <path class="cls-4" d="m89.41,47.24c9.11.77,18.05-22.51,14.28-25.37-1.02-.78-2.31.45-11.68,3.87-9.39,3.42-11.32,3.36-12.35,5.38-2.54,4.96,3.84,15.61,9.75,16.12Z"/>
  </g>
  <g>
    <path class="cls-5" d="m27.47,0c-2.68.19-14.69,39.04-14.69,39.04l32.9-13.37S35.31-.55,27.47,0Z"/>
    <path class="cls-4" d="m25.67,46.46c-8.7-5.24-1.96-34.59,3.26-34.98,1.42-.11,1.79,1.99,8.07,11.62,6.29,9.66,8.06,10.87,7.71,13.58-.87,6.69-13.4,13.18-19.04,9.78Z"/>
  </g>
  <path class="cls-5" d="m104.14,53.75c2.89,14,8.07,32.25-3.85,42-12.17,9.96-23.93,10-43.71,10s-34.3,0-48.59-11C-1.11,87.75-.85,76.13,1.12,63.75c2.03-12.77,11.78-25.38,17.89-30,10.59-8,13.79-10,36.03-10,10.59,0,28.97,4,36.97,12,4.74,4.76,9.56,5.56,12.13,18Z"/>
  <path class="cls-2" d="m18,101.75c-3.23-3.23,17-15,23-23,.92-1.22,4.94-5.83,7-11,2.18-5.47,1.98-11.71,3-12,2.34-.66,3.1,3.68,5,17,1,7,4.37,7.91,8,12.07,1.43,1.63,1.06.68,12,8.47,6.77,4.82,9.39,8,9,9.47-.62,2.31-6.89,2.49-10,3-18.09,2.97-53,0-57-4.01Z"/>
  <path class="cls-4" d="m50.94,76.75c-3.05-.01-5.36-4.12-4.55-5.66.59-1.12,2.96-1.13,3.41-1.13.79,0,1.04-.38,2.41,0,1.76.49,3.07,1.3,3.28,1.7.66,1.31-1.62,5.1-4.55,5.09Z"/>
  <g>
    <circle class="cls-6" cx="29" cy="57.75" r="10"/>
    <circle class="cls-5" cx="29.23" cy="57.98" r="7.69"/>
  </g>
  <g>
    <circle class="cls-6" cx="74.48" cy="57.59" r="10"/>
    <circle class="cls-5" cx="74.71" cy="57.82" r="7.69"/>
  </g>
  <circle class="cls-7" cx="28.62" cy="58.02" r="6.73"/>
  <circle class="cls-7" cx="74.11" cy="57.86" r="6.73"/>
  <ellipse class="cls-4" cx="51" cy="85.76" rx="3.95" ry="5.22"/>
  <g>
    <g>
      <ellipse class="cls-1" cx="42" cy="82.19" rx="9" ry="6.56"/>
      <path class="cls-2" d="m51,81.25c0,3.62-4.03,6.56-9,6.56s-9-2.44-9-6.06,5-7,9-8c4.82-1.2,9,3.88,9,7.5Z"/>
    </g>
    <g>
      <ellipse class="cls-1" cx="59.92" cy="82.03" rx="9" ry="6.56"/>
      <path class="cls-2" d="m68.92,81.09c1.08,2.66-4.03,6.56-9,6.56s-9-2.94-9-6.56,4.15-8.61,9-7.5c5.08,1.16,7.63,4.14,9,7.5Z"/>
    </g>
  </g>
  <path class="cls-3" d="m67.94,44.52c1.22-2.61,4.59-4.06,7.32-3.15-2.72.57-5.02,1.53-7.32,3.15h0Z"/>
  <path class="cls-3" d="m35.35,39.65c-1.75-1.18-3.27-2.74-5.25-3.47-.62-.2-1.27-.22-1.98.11,2.28-2.63,6.24,1.05,7.23,3.36h0Z"/>
  <path class="cls-5" d="m76.75,147.55c19.35-15.48,25.87-31.8,31.48-47.23,8.74-24.05,11.64-56.23,27.9-61.34,7.4-2.33,14.5.16,15.48.52,10.68,3.89,18.52,15.67,16,20.13-1.82,3.22-9.69,3.73-13.94.52-3.6-2.73-2.76-6.75-5.68-8.26-4.83-2.5-13.43,5.27-14.45,6.19-23.87,21.55-10.95,70.88-38.71,90.84-2.61,1.87-17.87,13.15-19.12,13.73"/>
</svg>