<?xml version="1.0" encoding="UTF-8"?>
<svg id="Layer_1" data-name="Layer 1" xmlns="http://www.w3.org/2000/svg" viewBox="0 0 214.19 46.24">
  <defs>
    <style>
      .cls-1 {
        fill: #c8c8c8;
      }

      .cls-2 {
        fill: #dcdcdc;
      }

      .cls-3 {
        fill-rule: evenodd;
      }
    </style>
  </defs>
  <rect class="cls-1" x="0" y="39.1" width="214.19" height="7.14" rx="2" ry="2"/>
  <g>
    <path class="cls-2" d="m211.06,42.84H3.13c-2.75,0-3.77-2.25-2.27-5L18.75,5c1.5-2.75,4.51-5,6.69-5h164.86c2.18,0,5.11,2.25,6.51,5l16.71,32.84c1.4,2.75.29,5-2.46,5Z"/>
    <g id="Layer_1-2" data-name="Layer_1">
      <g>
        <path class="cls-3" d="m183.12,31.93h-8.94c-.48,0-.95-.23-1.04-.51l-1.67-5.24c-.09-.28.22-.51.68-.51h8.65c.47,0,.93.23,1.04.51l1.96,5.24c.11.28-.2.51-.68.51Z"/>
        <path class="cls-3" d="m170.05,31.93h-8.94c-.48,0-.93-.23-1.01-.51l-1.32-5.24c-.07-.28.25-.51.72-.51h8.65c.47,0,.92.23,1.01.51l1.61,5.24c.09.28-.23.51-.72.51Z"/>
        <path class="cls-3" d="m156.97,31.93h-8.94c-.48,0-.92-.23-.97-.51l-.97-5.24c-.05-.28.28-.51.75-.51h8.65c.47,0,.9.23.97.51l1.26,5.24c.07.28-.27.51-.75.51Z"/>
        <path class="cls-3" d="m143.9,31.93h-8.94c-.48,0-.9-.23-.94-.51l-.62-5.24c-.03-.28.32-.51.79-.51h8.65c.47,0,.89.23.94.51l.91,5.24c.05.28-.3.51-.79.51Z"/>
        <path class="cls-3" d="m130.82,31.93h-8.94c-.48,0-.89-.23-.9-.51l-.27-5.24c-.01-.28.35-.51.82-.51h8.65c.47,0,.87.23.9.51l.56,5.24c.03.28-.34.51-.82.51Z"/>
        <path class="cls-3" d="m117.75,31.93h-8.94c-.48,0-.87-.23-.87-.51l.08-5.24c0-.28.39-.51.86-.51h8.65c.47,0,.86.23.87.51l.21,5.24c.01.28-.37.51-.86.51Z"/>
        <path class="cls-3" d="m104.67,31.93h-8.94c-.48,0-.86-.23-.83-.51l.43-5.24c.02-.28.42-.51.89-.51h8.65c.47,0,.84.23.83.51l-.14,5.24c0,.28-.41.51-.89.51Z"/>
        <path class="cls-3" d="m91.6,31.93h-8.94c-.48,0-.84-.23-.8-.51l.78-5.24c.04-.28.46-.51.92-.51h8.65c.47,0,.83.23.8.51l-.49,5.24c-.03.28-.44.51-.92.51Z"/>
        <path class="cls-3" d="m78.52,31.93h-8.94c-.48,0-.83-.23-.77-.51l1.13-5.24c.06-.28.49-.51.96-.51h8.65c.47,0,.81.23.77.51l-.84,5.24c-.05.28-.47.51-.96.51Z"/>
        <path class="cls-3" d="m65.46,31.93h-8.94c-.48,0-.81-.23-.73-.51l1.48-5.24c.08-.28.52-.51.99-.51h8.65c.47,0,.8.23.73.51l-1.19,5.24c-.06.28-.51.51-.99.51Z"/>
        <path class="cls-3" d="m176.62,24.42h-8.59c-.47,0-.91-.23-1-.51l-1.57-5.24c-.08-.28.21-.51.66-.51h8.31c.45,0,.9.23,1,.51l1.85,5.24c.1.28-.2.51-.66.51Z"/>
        <path class="cls-3" d="m164.04,24.42h-8.59c-.47,0-.9-.23-.96-.51l-1.22-5.24c-.07-.28.25-.51.7-.51h8.31c.45,0,.88.23.96.51l1.5,5.24c.08.28-.23.51-.7.51Z"/>
        <path class="cls-3" d="m151.47,24.42h-8.59c-.47,0-.88-.23-.93-.51l-.87-5.24c-.05-.28.28-.51.73-.51h8.31c.45,0,.86.23.93.51l1.15,5.24c.06.28-.26.51-.73.51Z"/>
        <path class="cls-3" d="m138.89,24.42h-8.59c-.47,0-.86-.23-.89-.51l-.52-5.24c-.03-.28.31-.51.76-.51h8.31c.45,0,.85.23.89.51l.8,5.24c.04.28-.3.51-.76.51Z"/>
        <path class="cls-3" d="m126.32,24.42h-8.59c-.47,0-.85-.23-.86-.51l-.17-5.24c0-.28.35-.51.8-.51h8.31c.45,0,.83.23.86.51l.45,5.24c.02.28-.33.51-.8.51Z"/>
        <path class="cls-3" d="m113.74,24.42h-8.59c-.47,0-.83-.23-.82-.51l.18-5.24c0-.28.38-.51.83-.51h8.31c.45,0,.82.23.82.51l.1,5.24c0,.28-.37.51-.83.51Z"/>
        <path class="cls-3" d="m101.18,24.42h-8.59c-.47,0-.82-.23-.79-.51l.53-5.24c.03-.28.42-.51.87-.51h8.31c.45,0,.8.23.79.51l-.25,5.24c-.01.28-.4.51-.87.51Z"/>
        <path class="cls-3" d="m88.59,24.42h-8.59c-.47,0-.8-.23-.76-.51l.88-5.24c.05-.28.45-.51.9-.51h8.31c.45,0,.79.23.76.51l-.6,5.24c-.03.28-.44.51-.9.51Z"/>
        <path class="cls-3" d="m76.03,24.42h-8.59c-.47,0-.79-.23-.72-.51l1.23-5.24c.07-.28.49-.51.93-.51h8.31c.45,0,.77.23.72.51l-.94,5.24c-.05.28-.47.51-.93.51Z"/>
        <path class="cls-3" d="m170.71,16.86h-8.25c-.45,0-.87-.23-.95-.51l-1.47-5.24c-.08-.28.21-.51.64-.51h7.96c.43,0,.86.23.95.51l1.76,5.24c.1.28-.19.51-.64.51Z"/>
        <path class="cls-3" d="m158.64,16.86h-8.25c-.45,0-.86-.23-.92-.51l-1.12-5.24c-.06-.28.24-.51.67-.51h7.96c.43,0,.84.23.92.51l1.41,5.24c.08.28-.22.51-.67.51Z"/>
        <path class="cls-3" d="m146.57,16.86h-8.25c-.45,0-.84-.23-.88-.51l-.77-5.24c-.04-.28.27-.51.7-.51h7.96c.43,0,.83.23.88.51l1.06,5.24c.06.28-.26.51-.7.51Z"/>
        <path class="cls-3" d="m134.5,16.86h-8.25c-.45,0-.83-.23-.85-.51l-.42-5.24c-.02-.28.31-.51.74-.51h7.96c.43,0,.81.23.85.51l.71,5.24c.04.28-.29.51-.74.51Z"/>
        <path class="cls-3" d="m122.44,16.86h-8.25c-.45,0-.81-.23-.82-.51l-.07-5.24c0-.28.34-.51.77-.51h7.96c.43,0,.8.23.82.51l.36,5.24c.02.28-.33.51-.77.51Z"/>
        <path class="cls-3" d="m110.36,16.86h-8.25c-.45,0-.8-.23-.78-.51l.28-5.24c.01-.28.38-.51.81-.51h7.96c.43,0,.78.23.78.51v5.24c0,.28-.35.51-.8.51Z"/>
        <path class="cls-3" d="m98.3,16.86h-8.25c-.45,0-.78-.23-.75-.51l.63-5.24c.03-.28.41-.51.84-.51h7.96c.43,0,.77.23.75.51l-.34,5.24c-.02.28-.4.51-.84.51Z"/>
        <path class="cls-3" d="m63.45,24.42h-8.59c-.47,0-.77-.23-.69-.51l1.58-5.24c.09-.28.52-.51.97-.51h8.31c.45,0,.76.23.69.51l-1.29,5.24c-.07.28-.5.51-.97.51Z"/>
        <path class="cls-3" d="m50.88,24.42h-8.59c-.47,0-.76-.23-.65-.51l1.93-5.24c.1-.28.55-.51,1-.51h8.31c.45,0,.74.23.65.51l-1.64,5.24c-.09.28-.54.51-1,.51Z"/>
        <path class="cls-3" d="m52.37,31.93h-8.94c-.48,0-.8-.23-.7-.51l1.83-5.24c.1-.28.56-.51,1.03-.51h8.65c.47,0,.78.23.7.51l-1.54,5.24c-.08.28-.54.51-1.03.51Z"/>
        <path class="cls-3" d="m39.29,31.93h-8.94c-.48,0-.78-.23-.66-.51l2.18-5.24c.12-.28.59-.51,1.06-.51h8.65c.47,0,.76.23.66.51l-1.89,5.24c-.1.28-.58.51-1.06.51Z"/>
        <path class="cls-3" d="m86.22,16.86h-8.25c-.45,0-.77-.23-.71-.51l.98-5.24c.05-.28.45-.51.88-.51h7.96c.43,0,.75.23.71.51l-.69,5.24c-.04.28-.43.51-.88.51Z"/>
        <path class="cls-3" d="m74.16,16.86h-8.25c-.45,0-.75-.23-.68-.51l1.33-5.24c.07-.28.48-.51.91-.51h7.96c.43,0,.73.23.68.51l-1.04,5.24c-.06.28-.46.51-.91.51Z"/>
        <path class="cls-3" d="m62.08,16.86h-8.25c-.45,0-.73-.23-.64-.51l1.68-5.24c.09-.28.51-.51.94-.51h7.96c.43,0,.72.23.64.51l-1.39,5.24c-.08.28-.5.51-.94.51Z"/>
        <path class="cls-3" d="m26.21,31.93h-13.8c-.48,0-.76-.23-.62-.51l2.65-5.23c.14-.28.64-.51,1.11-.51h13.36c.47,0,.75.23.63.51l-2.24,5.23c-.12.28-.61.51-1.1.51Z"/>
        <path class="cls-3" d="m38.3,24.42h-22.12c-.46,0-.73-.23-.58-.51l2.65-5.23c.14-.28.63-.51,1.07-.51h21.39c.45,0,.73.23.62.51l-1.99,5.23c-.11.28-.57.51-1.04.51Z"/>
        <path class="cls-3" d="m50.01,16.86h-30.03c-.45,0-.69-.23-.55-.51l2.65-5.23c.14-.28.61-.51,1.04-.51h28.99c.43,0,.7.23.61.51l-1.74,5.23c-.09.28-.53.51-.98.51Z"/>
        <path class="cls-3" d="m201.08,31.93h-13.8c-.48,0-.96-.23-1.07-.51l-2.02-5.23c-.11-.28.18-.51.65-.51h13.36c.47,0,.96.23,1.09.51l2.43,5.23c.13.28-.15.51-.64.51Z"/>
        <path class="cls-3" d="m197.62,24.42h-17.02c-.46,0-.93-.23-1.03-.51l-1.91-5.23c-.1-.28.18-.51.63-.51h16.45c.45,0,.92.23,1.05.51l2.43,5.23c.13.28-.14.51-.6.51Z"/>
        <path class="cls-3" d="m194.14,16.86h-19.6c-.45,0-.89-.23-.99-.51l-1.82-5.23c-.1-.28.17-.51.6-.51h18.92c.43,0,.89.23,1.02.51l2.43,5.23c.13.28-.12.51-.57.51Z"/>
        <path class="cls-3" d="m190.7,9.39h-12.21c-.43,0-.86-.23-.97-.51l-2.02-5.23c-.11-.28.14-.51.55-.51h11.77c.41,0,.85.23.99.51l2.43,5.23c.13.28-.11.51-.54.51Z"/>
        <path class="cls-3" d="m174.8,9.39h-7.91c-.43,0-.85-.23-.94-.51l-1.67-5.24c-.09-.28.17-.51.58-.51h7.62c.41,0,.83.23.94.51l1.96,5.24c.11.28-.16.51-.58.51Z"/>
        <path class="cls-3" d="m163.23,9.39h-12.21c-.43,0-.83-.23-.89-.51l-1.19-5.23c-.06-.28.22-.51.63-.51h11.77c.41,0,.82.23.9.51l1.6,5.23c.09.28-.19.51-.62.51Z"/>
        <path class="cls-3" d="m31.64,9.39h-7.91c-.43,0-.66-.23-.51-.51l2.66-5.24c.14-.28.59-.51,1.01-.51h7.62c.41,0,.64.23.51.51l-2.37,5.24c-.13.28-.58.51-1.01.51Z"/>
        <path class="cls-3" d="m147.33,9.39h-73.79c-.43,0-.72-.23-.66-.51l1.15-5.23c.06-.28.45-.51.86-.51h71.13c.41,0,.8.23.86.51l1.12,5.23c.06.28-.24.51-.66.51Z"/>
        <path class="cls-3" d="m47.52,9.39h-12.21c-.43,0-.67-.23-.55-.51l2.3-5.23c.12-.28.56-.51.97-.51h11.77c.41,0,.66.23.56.51l-1.89,5.23c-.1.28-.53.51-.96.51Z"/>
        <path class="cls-3" d="m59.1,9.39h-7.91c-.43,0-.69-.23-.6-.51l1.83-5.24c.1-.28.51-.51.93-.51h7.62c.41,0,.68.23.6.51l-1.54,5.24c-.08.28-.5.51-.93.51Z"/>
        <path class="cls-3" d="m70.68,9.39h-7.91c-.43,0-.71-.23-.63-.51l1.48-5.24c.08-.28.48-.51.89-.51h7.62c.41,0,.69.23.63.51l-1.19,5.24c-.06.28-.46.51-.89.51Z"/>
        <path class="cls-3" d="m183.12,31.93h-8.94c-.48,0-.95-.23-1.04-.51l-1.67-5.24c-.09-.28.22-.51.68-.51h8.65c.47,0,.93.23,1.04.51l1.96,5.24c.11.28-.2.51-.68.51Z"/>
        <path class="cls-3" d="m170.05,31.93h-8.94c-.48,0-.93-.23-1.01-.51l-1.32-5.24c-.07-.28.25-.51.72-.51h8.65c.47,0,.92.23,1.01.51l1.61,5.24c.09.28-.23.51-.72.51Z"/>
        <path class="cls-3" d="m156.97,31.93h-8.94c-.48,0-.92-.23-.97-.51l-.97-5.24c-.05-.28.28-.51.75-.51h8.65c.47,0,.9.23.97.51l1.26,5.24c.07.28-.27.51-.75.51Z"/>
        <path class="cls-3" d="m143.9,31.93h-8.94c-.48,0-.9-.23-.94-.51l-.62-5.24c-.03-.28.32-.51.79-.51h8.65c.47,0,.89.23.94.51l.91,5.24c.05.28-.3.51-.79.51Z"/>
        <path class="cls-3" d="m130.82,31.93h-8.94c-.48,0-.89-.23-.9-.51l-.27-5.24c-.01-.28.35-.51.82-.51h8.65c.47,0,.87.23.9.51l.56,5.24c.03.28-.34.51-.82.51Z"/>
        <path class="cls-3" d="m117.75,31.93h-8.94c-.48,0-.87-.23-.87-.51l.08-5.24c0-.28.39-.51.86-.51h8.65c.47,0,.86.23.87.51l.21,5.24c.01.28-.37.51-.86.51Z"/>
        <path class="cls-3" d="m104.67,31.93h-8.94c-.48,0-.86-.23-.83-.51l.43-5.24c.02-.28.42-.51.89-.51h8.65c.47,0,.84.23.83.51l-.14,5.24c0,.28-.41.51-.89.51Z"/>
        <path class="cls-3" d="m91.6,31.93h-8.94c-.48,0-.84-.23-.8-.51l.78-5.24c.04-.28.46-.51.92-.51h8.65c.47,0,.83.23.8.51l-.49,5.24c-.03.28-.44.51-.92.51Z"/>
        <path class="cls-3" d="m78.52,31.93h-8.94c-.48,0-.83-.23-.77-.51l1.13-5.24c.06-.28.49-.51.96-.51h8.65c.47,0,.81.23.77.51l-.84,5.24c-.05.28-.47.51-.96.51Z"/>
        <path class="cls-3" d="m65.46,31.93h-8.94c-.48,0-.81-.23-.73-.51l1.48-5.24c.08-.28.52-.51.99-.51h8.65c.47,0,.8.23.73.51l-1.19,5.24c-.06.28-.51.51-.99.51Z"/>
        <path class="cls-3" d="m52.37,31.93h-8.94c-.48,0-.8-.23-.7-.51l1.83-5.24c.1-.28.56-.51,1.03-.51h8.65c.47,0,.78.23.7.51l-1.54,5.24c-.08.28-.54.51-1.03.51Z"/>
        <path class="cls-3" d="m39.29,31.93h-8.94c-.48,0-.78-.23-.66-.51l2.18-5.24c.12-.28.59-.51,1.06-.51h8.65c.47,0,.76.23.66.51l-1.89,5.24c-.1.28-.58.51-1.06.51Z"/>
        <path class="cls-3" d="m204.54,39.43h-9.28c-.5,0-1-.23-1.12-.51l-2.15-5.24c-.12-.28.18-.51.67-.51h8.99c.49,0,.99.23,1.12.51l2.44,5.24c.13.28-.17.51-.67.51Z"/>
        <path class="cls-3" d="m190.95,39.43h-9.28c-.5,0-.99-.23-1.09-.51l-1.8-5.24c-.1-.28.22-.51.7-.51h8.99c.49,0,.97.23,1.09.51l2.09,5.24c.11.28-.2.51-.7.51Z"/>
        <path class="cls-3" d="m177.38,39.43h-9.28c-.5,0-.97-.23-1.05-.51l-1.45-5.24c-.08-.28.25-.51.74-.51h8.99c.49,0,.96.23,1.05.51l1.74,5.24c.09.28-.24.51-.74.51Z"/>
        <path class="cls-3" d="m163.8,39.43h-9.28c-.5,0-.96-.23-1.02-.51l-1.1-5.24c-.06-.28.29-.51.77-.51h8.99c.49,0,.94.23,1.02.51l1.39,5.24c.08.28-.27.51-.77.51Z"/>
        <path class="cls-3" d="m150.23,39.43h-9.28c-.5,0-.94-.23-.98-.51l-.75-5.24c-.04-.28.32-.51.81-.51h8.99c.49,0,.93.23.98.51l1.04,5.24c.06.28-.31.51-.81.51Z"/>
        <path class="cls-3" d="m136.65,39.43h-9.28c-.5,0-.93-.23-.95-.51l-.4-5.24c-.02-.28.36-.51.84-.51h8.99c.49,0,.91.23.95.51l.69,5.24c.04.28-.34.51-.84.51Z"/>
        <path class="cls-3" d="m123.08,39.43h-9.28c-.5,0-.91-.23-.91-.51l-.05-5.24c0-.28.39-.51.88-.51h8.99c.49,0,.9.23.91.51l.34,5.24c.02.28-.37.51-.88.51Z"/>
        <path class="cls-3" d="m109.5,39.43h-9.28c-.5,0-.9-.23-.88-.51l.3-5.24c.02-.28.42-.51.91-.51h8.99c.49,0,.88.23.88.51v5.24c-.01.28-.42.51-.92.51Z"/>
        <path class="cls-3" d="m95.93,39.43h-9.28c-.5,0-.88-.23-.85-.51l.65-5.24c.04-.28.46-.51.94-.51h8.99c.49,0,.87.23.85.51l-.36,5.24c-.02.28-.44.51-.94.51Z"/>
        <path class="cls-3" d="m82.35,39.43h-9.28c-.5,0-.87-.23-.81-.51l1-5.24c.05-.28.49-.51.98-.51h8.99c.49,0,.85.23.81.51l-.71,5.24c-.04.28-.48.51-.98.51Z"/>
        <path class="cls-3" d="m68.78,39.43h-9.28c-.5,0-.85-.23-.78-.51l1.35-5.24c.07-.28.53-.51,1.01-.51h8.99c.49,0,.83.23.78.51l-1.06,5.24c-.06.28-.51.51-1.01.51Z"/>
        <path class="cls-3" d="m55.2,39.43h-9.28c-.5,0-.83-.23-.74-.51l1.7-5.24c.09-.28.56-.51,1.05-.51h8.99c.49,0,.82.23.74.51l-1.41,5.24c-.08.28-.55.51-1.05.51Z"/>
        <path class="cls-3" d="m41.63,39.43h-9.28c-.5,0-.82-.23-.71-.51l2.05-5.24c.11-.28.6-.51,1.08-.51h8.99c.49,0,.8.23.71.51l-1.76,5.24c-.1.28-.58.51-1.08.51Z"/>
        <path class="cls-3" d="m28.05,39.43H8.64c-.5,0-.79-.23-.65-.51l2.65-5.23c.14-.28.66-.51,1.14-.51h18.81c.49,0,.79.23.67.51l-2.11,5.23c-.11.28-.61.51-1.12.51Z"/>
      </g>
    </g>
  </g>
</svg>