<?xml version="1.0" encoding="utf-8"?>
<!-- Generator: Adobe Illustrator 27.2.0, SVG Export Plug-In . SVG Version: 6.00 Build 0)  -->
<svg version="1.1" xmlns="http://www.w3.org/2000/svg" xmlns:xlink="http://www.w3.org/1999/xlink" x="0px" y="0px"
	 viewBox="0 0 1280 1024" style="enable-background:new 0 0 1280 1024;" xml:space="preserve">
<style type="text/css">
	.st0{fill:#424750;}
	.st1{fill:#6F5D1C;}
	.st2{fill:#F4E3D9;}
	.st3{fill:#FFD5CB;}
	.st4{fill:#F7BCB5;}
	.st5{fill:none;stroke:#6F5D1C;stroke-width:2.8346;stroke-miterlimit:10;}
	.st6{fill:#FFFFFF;}
	.st7{fill:#00001C;}
	.st8{fill:#FBDCCE;}
	.st9{fill:none;stroke:#B4651C;stroke-miterlimit:10;}
	.st10{fill:#F4FFFF;}
	.st11{fill:#C6C6C6;}
	.st12{fill:#969696;}
	.st13{fill:#FFDD1C;}
	.st14{fill:#ECCB1C;}
	.st15{fill:#F8EEE8;}
	.st16{fill:#551442;}
	.st17{fill:#F0F0F0;}
	.st18{fill:#FFBDD2;}
	.st19{fill:#F9D64F;}
	.st20{fill:#FAF5F5;}
	.st21{fill:#DCE6E6;}
	.st22{fill:#FAFAFA;}
	.st23{fill:#42591C;}
	.st24{fill:#F5F5F5;}
</style>
<g id="Layer_3">
	<rect x="124.28" y="26.42" class="st0" width="882.27" height="700"/>
</g>
<g id="Layer_1">
</g>
<g id="Layer_2">
	<g>
		<g>
			<polygon class="st1" points="1924.89,975.08 1830.35,1325.28 1993.35,1323.28 			"/>
			<ellipse class="st1" cx="1829.85" cy="1202.28" rx="85.5" ry="123"/>
		</g>
		<g>
			<polygon class="st1" points="1973.81,975.08 2067.35,1326.28 1913.35,1326.28 			"/>
			<ellipse class="st1" cx="2067.85" cy="1203.28" rx="85.5" ry="123"/>
		</g>
		<g>
			
				<ellipse transform="matrix(0.1425 -0.9898 0.9898 0.1425 622.2631 3128.8005)" class="st2" cx="2116.85" cy="1205.28" rx="24" ry="19.5"/>
		</g>
		
			<ellipse transform="matrix(0.2012 -0.9796 0.9796 0.2012 511.9191 3035.5332)" class="st3" cx="2117.13" cy="1203.9" rx="17.6" ry="15.51"/>
		<g>
			<ellipse class="st2" cx="1770.85" cy="1207.28" rx="19.5" ry="24"/>
		</g>
		
			<ellipse transform="matrix(0.9896 -0.1439 0.1439 0.9896 -155.0944 267.6609)" class="st3" cx="1772.87" cy="1206.04" rx="15.51" ry="17.55"/>
		<path class="st2" d="M2114.35,1166.28c0-98.31-73.34-177-167.5-177s-170.5,79.69-170.5,178c0,14.85,8.5,60.37,10,67
			c7.02,31.06,26.94,46.18,68,71c34,20,52.02,22,89,22c36.43,0,54-2,88-19c41.34-22.74,62.11-41.94,71-75
			C2104.25,1226.2,2114.35,1180.58,2114.35,1166.28z"/>
		<g>
			<path class="st1" d="M1997.63,1157.3c7.26-14.01,23.61-16.71,31.72-1.86C2017.53,1144.46,2008.67,1146.95,1997.63,1157.3
				L1997.63,1157.3z"/>
		</g>
		<path class="st1" d="M2148.35,1162.28c-1-10-6.15-33.7-8.54-42.91c-18.83-72.7-73.26-125.87-141.6-151.56c-12-5.36-18-6.43-29-7.5
			c-6.88-0.67-13.89-0.18-19.5,3.24c-0.52,0-1.04-0.02-1.57-0.02c-0.48,0-0.96,0.01-1.44,0.02c-5.61-3.42-10.03-4.1-18.49-3.23
			c-10.5,1.07-17,3.22-29,7.5c-93.04,23-136.86,106.56-149.86,194.47c0,0,0.85-0.2,2.35-0.55l-4.69,11.56c0,0,12.1,7.46,16.29,9.68
			c10.04,5.31,11.95,25.32,16.04,20.31c9-11,10.03-41.62,14-46c8.81-9.71,10.84-7.46,19-9c12.84-2.42,52.66-0.36,52.66-0.36
			s5.63-26.19,8.34-35.64c2.66-9.28,12.98-38.97,12.98-38.97s1.19,27.81,1.6,37.08c1.42,31.89-1.58,38.89-1.58,38.89
			s45.18-1.51,59.9-1.36c36.1,0.36,57.1-0.64,57.1-0.64c0.2,2.38,2.04-18.92,2.44-33.76c0.56-20.24-4.44-43.24-4.44-43.24
			l26.11,77.64c0,0,46.29,0.23,63.89,2.36c6.1,0.74,9.72,47.07,13,51c5,6,7,1,7,1s7.4-28.13,13-30
			C2130.35,1170.28,2148.35,1162.28,2148.35,1162.28z"/>
		<ellipse class="st4" cx="1832.35" cy="1239.28" rx="28" ry="15"/>
		<ellipse class="st4" cx="2054.35" cy="1237.28" rx="28" ry="15"/>
		<path class="st5" d="M2201.85,1170.78"/>
		<g>
			<circle class="st6" cx="1861.85" cy="1194.78" r="24.5"/>
			<ellipse class="st1" cx="1862.35" cy="1194.59" rx="20" ry="19.69"/>
			<ellipse class="st7" cx="1861.7" cy="1194.79" rx="11.37" ry="11.49"/>
			<ellipse class="st6" cx="1850.97" cy="1182.82" rx="6.38" ry="6.43"/>
		</g>
		
			<ellipse transform="matrix(0.4482 -0.894 0.894 0.4482 -49.6662 2411.094)" class="st8" cx="1928.1" cy="1245.78" rx="4.5" ry="7.25"/>
		<ellipse class="st8" cx="1933.08" cy="1296.98" rx="15.27" ry="11.3"/>
		<path class="st9" d="M1754.85,1323.78c0,0.55,0,1,0,1"/>
		<g>
			<path class="st1" d="M1843.52,1157.49c7.26-14.01,23.61-16.71,31.72-1.86C1863.42,1144.65,1854.56,1147.15,1843.52,1157.49
				L1843.52,1157.49z"/>
		</g>
		<g>
			
				<ellipse transform="matrix(0.3045 -0.9525 0.9525 0.3045 319.9317 2860.8501)" class="st10" cx="2119.05" cy="1211.34" rx="14.27" ry="10.16"/>
			<g>
				<polygon class="st10" points="2116.91,1239.14 2111.57,1236.19 2121.47,1213.38 2126.81,1216.33 				"/>
				
					<ellipse transform="matrix(0.5494 -0.8355 0.8355 0.5494 -81.7637 2324.1868)" class="st11" cx="2114.15" cy="1237.91" rx="2.02" ry="3.03"/>
				
					<ellipse transform="matrix(0.5136 -0.858 0.858 0.5136 -33.3673 2416.1147)" class="st10" cx="2114.35" cy="1237.49" rx="1.56" ry="3.02"/>
			</g>
			
				<ellipse transform="matrix(0.8636 -0.5041 0.5041 0.8636 -317.3795 1232.2328)" class="st6" cx="2118.85" cy="1202.73" rx="6.49" ry="3.07"/>
			<g>
				<g>
					<path class="st11" d="M2122.94,1211.85l0.07,0.03c0.63,0.29,0.87,1.26,0.55,2.14l-2.33,6.46c-0.3,0.83-1.02,1.23-1.61,0.88
						l-0.06-0.04c-0.6-0.34-0.86-1.28-0.57-2.1l2.25-6.33C2121.53,1212.03,2122.31,1211.56,2122.94,1211.85z"/>
					<path class="st12" d="M2123.22,1211.84l0.07,0.03c0.63,0.3,0.87,1.27,0.54,2.15l-2.34,6.47c-0.3,0.84-1.02,1.23-1.61,0.88
						l-0.06-0.04c-0.6-0.34-0.86-1.28-0.57-2.1l2.26-6.34C2121.82,1212.03,2122.59,1211.55,2123.22,1211.84z"/>
				</g>
			</g>
			<path class="st6" d="M2116.26,1237.18L2116.26,1237.18c-0.4-0.22-0.57-0.77-0.37-1.22l5.19-11.95c0.2-0.45,0.68-0.64,1.08-0.42
				l0,0c0.4,0.22,0.57,0.77,0.37,1.22l-5.19,11.95C2117.15,1237.21,2116.66,1237.4,2116.26,1237.18z"/>
		</g>
		<g>
			
				<ellipse transform="matrix(0.9407 -0.3393 0.3393 0.9407 -306.0593 673.2625)" class="st10" cx="1772.35" cy="1211.89" rx="10.16" ry="14.27"/>
			<g>
				<polygon class="st10" points="1775.51,1239.6 1780.73,1236.45 1770,1214.02 1764.77,1217.17 				"/>
				
					<ellipse transform="matrix(0.8148 -0.5798 0.5798 0.8148 -388.5446 1260.2743)" class="st11" cx="1778.22" cy="1238.26" rx="3.03" ry="2.02"/>
				
					<ellipse transform="matrix(0.8386 -0.5448 0.5448 0.8386 -387.3471 1168.3729)" class="st10" cx="1778" cy="1237.85" rx="3.02" ry="1.56"/>
			</g>
			
				<ellipse transform="matrix(0.4721 -0.8816 0.8816 0.4721 -125.1685 2197.5439)" class="st6" cx="1772.24" cy="1203.28" rx="3.07" ry="6.49"/>
			<g>
				<g>
					<path class="st11" d="M1766.56,1212.89l-0.07,0.04c-0.63,0.43-0.9,1.41-0.6,2.18l2.17,6.03c0.27,0.82,0.99,1.19,1.59,0.8
						l0.06-0.04c0.61-0.39,0.89-1.4,0.63-2.24l-2.1-6.14C1767.96,1212.74,1767.2,1212.45,1766.56,1212.89z"/>
					<path class="st12" d="M1766.28,1212.95l-0.07,0.04c-0.63,0.43-0.9,1.4-0.59,2.18l2.18,6.01c0.27,0.82,0.99,1.19,1.59,0.8
						l0.06-0.04c0.61-0.39,0.89-1.4,0.63-2.23l-2.11-6.12C1767.68,1212.8,1766.91,1212.51,1766.28,1212.95z"/>
				</g>
			</g>
			<path class="st6" d="M1776.09,1237.61L1776.09,1237.61c0.39-0.24,0.54-0.79,0.33-1.24l-5.62-11.75c-0.21-0.44-0.71-0.61-1.1-0.38
				l0,0c-0.39,0.24-0.54,0.79-0.33,1.24l5.62,11.75C1775.2,1237.67,1775.69,1237.84,1776.09,1237.61z"/>
		</g>
		<g>
			<g>
				<path class="st1" d="M1937.42,1267.04c-3.31,2.05-7.73,2.61-11.36,1.22c-1.02-0.39-1.46,1.25-0.45,1.64
					c4.02,1.55,9.01,0.87,12.67-1.39C1939.21,1267.93,1938.35,1266.46,1937.42,1267.04L1937.42,1267.04z"/>
			</g>
		</g>
		<g>
			<circle class="st6" cx="2006.44" cy="1196.95" r="24.5"/>
			<ellipse class="st1" cx="2006.94" cy="1196.76" rx="20" ry="19.69"/>
			<ellipse class="st7" cx="2006.3" cy="1196.96" rx="11.37" ry="11.49"/>
			<ellipse class="st6" cx="1995.56" cy="1185" rx="6.38" ry="6.43"/>
		</g>
		<g>
			<g>
				<path class="st1" d="M1929.96,1224.78c0.21,3.89,0.7,7.92,0.45,11.82c-0.02,0.32-0.07,0.55-0.12,0.85
					c-0.06,0.34-0.03,0.15-0.03,0.16c0-0.1,0.19,0.01,0.01-0.05c-0.24-0.07-0.48-0.13-0.72-0.21c-2.23-0.71-4.83-2.08-7.21-1.81
					c-3.16,0.37-3.15,4.54-2.27,6.86c1.06,2.8,4.54,4.39,6.81,6.03c0.82,0.59,2.23,1.31,2.81,2.14c0.1,0.15,0.15,0.07-0.05,0.35
					c-0.56,0.81-1.67,1.32-2.51,1.77c-2.54,1.35-5.26,2.31-7.86,3.53c-1.06,0.5-3.57,1.92-1.59,3.09c0.84,0.5,1.98,0.57,2.91,0.67
					c1.77,0.18,3.56,0.16,5.33,0.08c5.95-0.26,11.86-1.32,17.63-2.74c1.06-0.26,0.61-1.9-0.45-1.64
					c-5.13,1.26-10.35,2.22-15.62,2.59c-2.71,0.19-5.83,0.48-8.49-0.27c-0.07-0.02-0.38-0.1-0.31-0.09
					c-0.24-0.04-0.13-0.14-0.17-0.08c0.04-0.07,0.24,0.89,0.01,0.78c-0.01,0,0.29-0.23,0.28-0.23c0.88-0.54,1.85-0.95,2.8-1.36
					c2.54-1.1,5.22-2.07,7.57-3.56c1.4-0.88,3.28-2.58,1.63-4.19c-1.6-1.56-3.7-2.78-5.53-4.06c-1.06-0.74-2.31-1.47-3.11-2.51
					c-0.71-0.93-0.83-2.11-0.84-3.25c-0.01-0.66-0.03-1.6,0.57-2.04c0.53-0.38,1.35-0.22,1.93-0.1c1.98,0.4,3.83,1.34,5.79,1.82
					c1.62,0.4,2.3-0.7,2.45-2.18c0.13-1.32,0.05-2.68,0-4c-0.11-2.74-0.27-5.47-0.42-8.21
					C1931.6,1223.69,1929.9,1223.68,1929.96,1224.78L1929.96,1224.78z"/>
			</g>
		</g>
	</g>
	<g>
		<polygon class="st1" points="583.5,124.69 677.04,475.89 523.04,475.89 		"/>
		<ellipse class="st1" cx="677.54" cy="352.89" rx="85.5" ry="123"/>
	</g>
	<g>
		<polygon class="st1" points="534.58,124.69 440.04,474.89 603.04,472.89 		"/>
		<ellipse class="st1" cx="439.54" cy="351.89" rx="85.5" ry="123"/>
	</g>
	<path class="st13" d="M656.48,610.09c2.37-11.17,3.65-22.9,3.65-35c0-75.66-48.97-116-110-116c-59,0-111,40.34-111,116
		c0,12.1,1.27,23.83,3.65,35H656.48z"/>
	<g>
		<path class="st14" d="M522.12,502.09c-8.18-2.91-44.25-12.55-43.85-26c0.21-7.34,20.91-6.43,27.99-8.95
			c24.77-8.82,56.64,7.99,74.7,3.08c0.68-0.19,2.79-0.79,5.58-0.62c7.98,0.51,28.69,0.63,29.73,6.48c2.48,14.01-41.99,33.8-72.15,27
			C542.1,502.64,525.89,503.43,522.12,502.09z"/>
		<path class="st13" d="M531.4,498.47c-8.18-2.91-53.53-9.93-53.14-23.38c0.21-7.34,20.92-19.1,28-21.62
			c24.77-8.82,56.64,7.99,74.7,3.08c0.68-0.19,20.5,9.36,23.3,9.54c7.98,0.51,10.97,1.14,12,7c2.48,14.01-47.03,34.65-77.19,27.84
			C537.06,500.48,535.17,499.81,531.4,498.47z"/>
		<path class="st14" d="M527.12,494.09c-6.84-2.47-34.11-16-31-27c1.39-4.92,11.28-11.94,17.18-11.79
			c20.09,0.53,49.59,12.81,62.46,2.62c0.46-0.37,2.33-0.67,4.67-0.52c6.67,0.43,9.36,8.22,5.69,11.69c-19,18-28.48,13.31-44,34
			C539.12,507.09,530.27,495.23,527.12,494.09z"/>
		<path class="st8" d="M523.27,484.09c-6.84-2.47-7-15-7-18c0-20.1,49.85-21,51.85,2c0.95,10.96-8,11-23.63,27.58
			C541.06,499.32,526.42,485.23,523.27,484.09z"/>
	</g>
	<g>
		
			<ellipse transform="matrix(0.1425 -0.9898 0.9898 0.1425 271.7554 1023.4449)" class="st15" cx="726.54" cy="354.89" rx="24" ry="19.5"/>
	</g>
	
		<ellipse transform="matrix(0.2012 -0.9796 0.9796 0.2012 234.3159 994.3406)" class="st8" cx="726.81" cy="353.51" rx="17.6" ry="15.51"/>
	<g>
		<ellipse class="st15" cx="380.54" cy="356.89" rx="19.5" ry="24"/>
	</g>
	
		<ellipse transform="matrix(0.9896 -0.1439 0.1439 0.9896 -47.1957 58.7502)" class="st8" cx="382.56" cy="355.65" rx="15.51" ry="17.55"/>
	<path class="st15" d="M724.04,315.89c0-98.31-73.34-177-167.5-177s-170.5,79.69-170.5,178c0,14.85,8.5,60.37,10,67
		c7.02,31.06,24.17,46.39,65.23,71.21c43.23,18.21,54.78,21.79,91.77,21.79c36.43,0,52.23-4.79,86.23-21.79
		c41.34-22.74,63.88-39.15,72.77-72.21C713.94,375.81,724.04,330.19,724.04,315.89z"/>
	<g>
		<path class="st1" d="M607.32,306.91c2.32-7.93,9.91-25.2,20.17-23.51c8.09,2.19,10.55,14.54,11.55,21.66
			c-2.61-6.18-4.56-13.24-9.59-17.71C621.36,280.82,610.93,301.28,607.32,306.91L607.32,306.91z"/>
	</g>
	<path class="st1" d="M758.04,311.89c-1-10-6.15-33.7-8.54-42.91c-18.83-72.7-73.26-125.87-141.6-151.56c-12-5.36-18-6.43-29-7.5
		c-6.88-0.67-13.89-0.18-19.5,3.24c-0.52,0-1.04-0.02-1.57-0.02c-0.48,0-0.96,0.01-1.44,0.02c-5.61-3.42-10.03-4.1-18.49-3.23
		c-10.5,1.07-17,3.22-29,7.5c-93.04,23-136.86,106.56-149.86,194.47c0,0,0.85-0.2,2.35-0.55l-4.69,11.56c0,0,12.1,7.46,16.29,9.68
		c10.04,5.31,11.95,25.32,16.04,20.31c9-11,10.03-41.62,14-46c8.81-9.71,10.84-7.46,19-9c12.84-2.42,52.66-0.36,52.66-0.36
		s5.63-26.19,8.34-35.64c2.66-9.28,12.98-38.97,12.98-38.97s1.19,27.81,1.6,37.08c1.42,31.89-1.58,38.89-1.58,38.89
		s45.18-1.51,59.9-1.36c36.1,0.36,57.1-0.64,57.1-0.64c0.2,2.38,2.04-18.92,2.44-33.76c0.56-20.24-4.44-43.24-4.44-43.24
		l26.11,77.64c0,0,46.29,0.23,63.89,2.36c6.1,0.74,9.72,47.07,13,51c5,6,7,1,7,1s7.4-28.13,13-30
		C740.04,319.89,758.04,311.89,758.04,311.89z"/>
	<ellipse class="st4" cx="442.04" cy="388.89" rx="28" ry="15"/>
	<ellipse class="st4" cx="664.04" cy="386.89" rx="28" ry="15"/>
	<path class="st5" d="M811.54,320.39"/>
	<g>
		<circle class="st6" cx="471.54" cy="344.39" r="24.5"/>
		<ellipse class="st1" cx="472.04" cy="344.2" rx="20" ry="19.69"/>
		<ellipse class="st7" cx="472.04" cy="344.39" rx="13.94" ry="14.08"/>
		<ellipse class="st6" cx="460.66" cy="332.43" rx="6.38" ry="6.43"/>
	</g>
	
		<ellipse transform="matrix(0.4482 -0.894 0.894 0.4482 -56.6848 698.9434)" class="st8" cx="537.79" cy="395.39" rx="4.5" ry="7.25"/>
	<ellipse class="st8" cx="542.77" cy="446.59" rx="15.27" ry="11.3"/>
	<path class="st9" d="M364.54,473.39c0,0.55,0,1,0,1"/>
	<g>
		<path class="st1" d="M456.18,307.1c1.73-9.4,10.15-27.17,21.88-18.82c5.27,4.26,7.92,10.75,9.84,16.97
			c-3.44-5.32-6.31-11.03-11.4-14.79C467.24,283.88,459.76,300.58,456.18,307.1L456.18,307.1z"/>
	</g>
	<g>
		
			<ellipse transform="matrix(0.3045 -0.9525 0.9525 0.3045 163.0117 945.1544)" class="st10" cx="728.74" cy="360.95" rx="14.27" ry="10.16"/>
		<g>
			<polygon class="st10" points="726.6,388.75 721.26,385.8 731.16,362.99 736.5,365.94 			"/>
			
				<ellipse transform="matrix(0.5494 -0.8355 0.8355 0.5494 2.3484 779.3865)" class="st11" cx="723.84" cy="387.52" rx="2.02" ry="3.03"/>
			
				<ellipse transform="matrix(0.5136 -0.858 0.858 0.5136 20.0373 809.541)" class="st10" cx="724.04" cy="387.1" rx="1.56" ry="3.02"/>
		</g>
		
			<ellipse transform="matrix(0.8636 -0.5041 0.5041 0.8636 -78.2716 415.339)" class="st6" cx="728.54" cy="352.34" rx="6.49" ry="3.07"/>
		<g>
			<g>
				<path class="st11" d="M732.62,361.46l0.07,0.03c0.63,0.29,0.87,1.26,0.55,2.14l-2.33,6.46c-0.3,0.83-1.02,1.23-1.61,0.88
					l-0.06-0.04c-0.6-0.34-0.86-1.28-0.57-2.1l2.25-6.33C731.22,361.64,732,361.17,732.62,361.46z"/>
				<path class="st12" d="M732.91,361.45l0.07,0.03c0.63,0.3,0.87,1.27,0.54,2.15l-2.34,6.47c-0.3,0.84-1.02,1.23-1.61,0.88
					l-0.06-0.04c-0.6-0.34-0.86-1.28-0.57-2.1l2.26-6.34C731.5,361.64,732.28,361.16,732.91,361.45z"/>
			</g>
		</g>
		<path class="st6" d="M725.95,386.78L725.95,386.78c-0.4-0.22-0.57-0.77-0.37-1.22l5.19-11.95c0.2-0.45,0.68-0.64,1.08-0.42l0,0
			c0.4,0.22,0.57,0.77,0.37,1.22l-5.19,11.95C726.84,386.82,726.35,387.01,725.95,386.78z"/>
	</g>
	<g>
		
			<ellipse transform="matrix(0.9407 -0.3393 0.3393 0.9407 -99.9955 151.073)" class="st10" cx="382.04" cy="361.5" rx="10.16" ry="14.27"/>
		<g>
			<polygon class="st10" points="385.19,389.21 390.42,386.06 379.69,363.63 374.46,366.77 			"/>
			
				<ellipse transform="matrix(0.8148 -0.5798 0.5798 0.8148 -153.025 296.7321)" class="st11" cx="387.91" cy="387.87" rx="3.03" ry="2.02"/>
			
				<ellipse transform="matrix(0.8386 -0.5448 0.5448 0.8386 -148.4956 273.7352)" class="st10" cx="387.69" cy="387.46" rx="3.02" ry="1.56"/>
		</g>
		
			<ellipse transform="matrix(0.4721 -0.8816 0.8816 0.4721 -109.4683 522.9808)" class="st6" cx="381.92" cy="352.89" rx="3.07" ry="6.49"/>
		<g>
			<g>
				<path class="st11" d="M376.25,362.5l-0.07,0.04c-0.63,0.43-0.9,1.41-0.6,2.18l2.17,6.03c0.27,0.82,0.99,1.19,1.59,0.8l0.06-0.04
					c0.61-0.39,0.89-1.4,0.63-2.24l-2.1-6.14C377.65,362.35,376.88,362.06,376.25,362.5z"/>
				<path class="st12" d="M375.96,362.56l-0.07,0.04c-0.63,0.43-0.9,1.4-0.59,2.18l2.18,6.01c0.27,0.82,0.99,1.19,1.59,0.8
					l0.06-0.04c0.61-0.39,0.89-1.4,0.63-2.23l-2.11-6.12C377.37,362.41,376.6,362.12,375.96,362.56z"/>
			</g>
		</g>
		<path class="st6" d="M385.77,387.22L385.77,387.22c0.39-0.24,0.54-0.79,0.33-1.24l-5.62-11.75c-0.21-0.44-0.71-0.61-1.1-0.38l0,0
			c-0.39,0.24-0.54,0.79-0.33,1.24l5.62,11.75C384.89,387.28,385.38,387.45,385.77,387.22z"/>
	</g>
	<g>
		<g>
			<path class="st1" d="M552.19,406.12c-0.14,3.28-0.61,6.57-1.33,9.77c-0.55,2.47-1.27,4.96-2.45,7.21
				c-0.93,1.77-2.28,3.64-4.27,4.2c-2.94,0.84-5.94-1.42-8.01-3.27c-0.81-0.73-2.02,0.47-1.2,1.2c2.24,2,5.15,4.14,8.33,3.93
				c2.46-0.16,4.37-1.74,5.72-3.7c2.99-4.33,3.93-10.08,4.55-15.2c0.17-1.38,0.31-2.76,0.37-4.15
				C553.93,405.03,552.23,405.03,552.19,406.12L552.19,406.12z"/>
		</g>
	</g>
	<g>
		<circle class="st6" cx="616.13" cy="346.56" r="24.5"/>
		<ellipse class="st1" cx="616.63" cy="346.37" rx="20" ry="19.69"/>
		<ellipse class="st7" cx="616.63" cy="346.56" rx="14.55" ry="14.7"/>
		<ellipse class="st6" cx="605.25" cy="334.61" rx="6.38" ry="6.43"/>
	</g>
	<g>
		<g>
			<path class="st1" d="M539.65,374.39c0.21,3.89,0.7,7.92,0.45,11.82c-0.02,0.32-0.07,0.55-0.12,0.85
				c-0.06,0.34-0.03,0.15-0.03,0.16c0-0.1,0.19,0.01,0.01-0.05c-0.24-0.07-0.48-0.13-0.72-0.21c-2.23-0.71-4.83-2.08-7.21-1.81
				c-3.16,0.37-3.15,4.54-2.27,6.86c1.06,2.8,4.54,4.39,6.81,6.03c0.82,0.59,2.23,1.31,2.81,2.14c0.1,0.15,0.15,0.07-0.05,0.35
				c-0.56,0.81-1.67,1.32-2.51,1.77c-2.54,1.35-5.26,2.31-7.86,3.53c-1.06,0.5-3.57,1.92-1.59,3.09c0.84,0.5,1.98,0.57,2.91,0.67
				c1.77,0.18,3.56,0.16,5.33,0.08c5.95-0.26,11.86-1.32,17.63-2.74c1.06-0.26,0.61-1.9-0.45-1.64c-5.13,1.26-10.35,2.22-15.62,2.59
				c-2.71,0.19-5.83,0.48-8.49-0.27c-0.07-0.02-0.38-0.1-0.31-0.09c-0.24-0.04-0.13-0.14-0.17-0.08c0.04-0.07,0.24,0.89,0.01,0.78
				c-0.01,0,0.29-0.23,0.28-0.23c0.88-0.54,1.85-0.95,2.8-1.36c2.54-1.1,5.22-2.07,7.57-3.56c1.4-0.88,3.28-2.58,1.63-4.19
				c-1.6-1.56-3.7-2.78-5.53-4.06c-1.06-0.74-2.31-1.47-3.11-2.51c-0.71-0.93-0.83-2.11-0.84-3.25c-0.01-0.66-0.03-1.6,0.57-2.04
				c0.53-0.38,1.35-0.22,1.93-0.1c1.98,0.4,3.83,1.34,5.79,1.82c1.62,0.4,2.3-0.7,2.45-2.18c0.13-1.32,0.05-2.68,0-4
				c-0.11-2.74-0.27-5.47-0.42-8.21C541.29,373.3,539.59,373.29,539.65,374.39L539.65,374.39z"/>
		</g>
	</g>
	
		<ellipse transform="matrix(0.9236 -0.3833 0.3833 0.9236 -150.0724 239.5995)" class="st16" cx="526.23" cy="496.4" rx="1.85" ry="1.73"/>
	<ellipse class="st16" cx="554.12" cy="497.46" rx="1.85" ry="1.73"/>
	<g>
		<g>
			<path class="st6" d="M525.53,496.52c2.48,3.98,5.12,8.84,4.6,13.72c-0.15,1.39-0.54,2.9-1.66,3.83c-1.81,1.5-4.5,1.67-6.73,1.39
				c-2.01-0.25-4.2-0.86-5.89-2.01c-1.1-0.75-2.15-1.57-3.2-2.38c-2.87-2.22-5.71-4.49-8.59-6.69c-1.15-0.87-2.29-1.79-3.52-2.55
				c-0.65-0.4-2.11-0.87-2.07,0.46c0.03,1.09,1.73,1.1,1.7,0c-0.02-0.75-0.8,1.05-1.01,0.72c0.03,0.05,0.15,0.06,0.19,0.1
				c0.1,0.1,0.3,0.18,0.42,0.25c0.5,0.32,0.99,0.67,1.47,1.02c1.31,0.95,2.59,1.95,3.87,2.94c2.83,2.2,5.62,4.44,8.48,6.59
				c3.15,2.35,7.05,3.69,11.03,3.3c2.02-0.2,4.15-0.87,5.55-2.42c0.96-1.06,1.38-2.52,1.58-3.91c0.79-5.39-2.01-10.79-4.75-15.21
				C526.43,494.74,524.95,495.59,525.53,496.52L525.53,496.52z"/>
		</g>
	</g>
	<g>
		<g>
			<path class="st6" d="M573.86,507.62c-1.9,5.57-5.77,14.16-12.97,13.63c-2.15-0.16-4.17-1.24-5.73-2.7
				c-0.8-0.75-1.5-1.59-2.08-2.52c-0.83-1.34-0.77-2.5-0.3-3.97c0.66-2.1,1.56-4.09,1.96-6.27c0.5-2.65,0.44-5.42,0.3-8.11
				c-0.06-1.09-1.76-1.1-1.7,0c0.14,2.76,0.23,5.63-0.38,8.34c-0.47,2.08-1.39,4-1.96,6.05c-0.43,1.56-0.42,3.04,0.4,4.47
				c0.61,1.07,1.38,2.06,2.25,2.93c3.95,3.93,9.74,4.66,14.21,1.15c3.91-3.07,6.07-7.96,7.63-12.54
				C575.85,507.03,574.21,506.58,573.86,507.62L573.86,507.62z"/>
		</g>
	</g>
	<ellipse class="st7" cx="685.17" cy="567.99" rx="32.5" ry="54"/>
	<ellipse class="st17" cx="685.17" cy="563.28" rx="13.5" ry="25.72"/>
	<g>
		<g>
			<path class="st7" d="M746.54,449.96c-4.67-2.74-37.16,14.07-37.16,14.07l27.38,24.18C736.76,488.21,748.98,451.4,746.54,449.96z"
				/>
		</g>
		<g>
			<path class="st18" d="M724.08,484.48c9.11,0.77,18.05-22.51,14.28-25.37c-1.02-0.78-2.31,0.45-11.68,3.87
				c-9.39,3.42-11.32,3.36-12.35,5.38C711.79,473.32,718.17,483.97,724.08,484.48z"/>
		</g>
	</g>
	<g>
		<path class="st7" d="M662.14,437.25c-2.68,0.19-14.69,39.04-14.69,39.04l32.9-13.37C680.35,462.92,669.98,436.69,662.14,437.25z"
			/>
		<g>
			<path class="st18" d="M660.34,483.7c-8.7-5.24-1.96-34.59,3.26-34.98c1.42-0.11,1.79,1.99,8.07,11.62
				c6.29,9.66,8.06,10.87,7.71,13.58C678.51,480.61,665.98,487.1,660.34,483.7z"/>
		</g>
	</g>
	<path class="st7" d="M738.81,490.99c2.89,14,8.07,32.25-3.85,42c-12.17,9.96-23.93,10-43.71,10c-19.95,0-34.3,0-48.59-11
		c-9.1-7-8.84-18.62-6.87-31c2.03-12.77,11.78-25.38,17.89-30c10.59-8,13.79-10,36.03-10c10.59,0,28.97,4,36.97,12
		C731.42,477.75,736.24,478.55,738.81,490.99z"/>
	<path class="st6" d="M652.67,538.99c-3.23-3.23,17-15,23-23c0.92-1.22,4.94-5.83,7-11c2.18-5.47,1.98-11.71,3-12
		c2.34-0.66,3.1,3.68,5,17c1,7,4.37,7.91,8,12.07c1.43,1.63,1.06,0.68,12,8.47c6.77,4.82,9.39,8,9,9.47c-0.62,2.31-6.89,2.49-10,3
		C691.58,545.97,656.67,542.99,652.67,538.99z"/>
	<path class="st18" d="M685.61,513.99c-3.05-0.01-5.36-4.12-4.55-5.66c0.59-1.12,2.96-1.13,3.41-1.13c0.79,0,1.04-0.38,2.41,0
		c1.76,0.49,3.07,1.3,3.28,1.7C690.82,510.21,688.54,514,685.61,513.99z"/>
	<g>
		<circle class="st19" cx="663.67" cy="494.99" r="10"/>
		<circle class="st7" cx="663.9" cy="495.22" r="7.69"/>
	</g>
	<g>
		<circle class="st19" cx="709.15" cy="494.83" r="10"/>
		<circle class="st7" cx="709.38" cy="495.06" r="7.69"/>
	</g>
	<ellipse class="st6" cx="210.06" cy="676.06" rx="38.51" ry="63.98"/>
	<ellipse class="st20" cx="209.91" cy="664.24" rx="19.62" ry="34.9"/>
	<g>
		<g>
			<path class="st6" d="M275.05,551.06c-3.76-4.51-43.53,1.9-43.53,1.9l18.74,34.26C250.27,587.22,277.02,553.42,275.05,551.06z"/>
		</g>
		<g>
			<path class="st18" d="M241.25,578.53c9.06,3.99,27.11-17.46,24.33-21.8c-0.75-1.18-2.55-0.33-13.47,0.01
				c-10.95,0.34-12.91-0.4-14.74,1.38C232.86,562.49,235.38,575.95,241.25,578.53z"/>
		</g>
	</g>
	<g>
		<path class="st6" d="M151.5,554.6c-1.52,2.79,31.71,39.48,31.71,39.48l5.53-41.21C188.75,552.88,155.97,546.42,151.5,554.6z"/>
		<g>
			<path class="st18" d="M196.66,586.13c-10.8,5.31-35.74-20.19-32.78-25.65c0.8-1.48,3.13-0.52,16.75-0.6
				c13.66-0.09,16-1.08,18.48,1.01C205.21,566.04,203.66,582.68,196.66,586.13z"/>
		</g>
	</g>
	<path class="st6" d="M260.03,590.14c3.94,16.43-10.24,28.44-26.16,39.1c-10.17,6.81-37.42,5.6-48.66-0.58
		c-11.66-6.42-26.42-19.56-23.01-33.78c3.57-14.86,4.42-26.52,11.38-31.99c12.05-9.48,12.36-12.42,37.66-12.42
		c12.05,0,34.58,3.08,40.83,14.79C257.76,575.92,256.62,575.92,260.03,590.14z"/>
	<g>
		<path class="st17" d="M206.25,620.64c1.96,1.11,4.25,1.03,6.41,0.85c0.68-0.12,1.47-0.19,1.89-0.85c0.03,0.42-0.29,0.79-0.61,1.05
			C211.72,623.1,207.78,623.02,206.25,620.64L206.25,620.64z"/>
	</g>
	<g>
		<g>
			
				<ellipse transform="matrix(0.0986 -0.9951 0.9951 0.0986 -415.5772 721.4216)" class="st19" cx="190.41" cy="590.1" rx="9.09" ry="9.32"/>
			
				<ellipse transform="matrix(0.0986 -0.9951 0.9951 0.0986 -415.6317 721.8212)" class="st7" cx="190.61" cy="590.33" rx="6.99" ry="7.17"/>
		</g>
		<g>
			<path class="st6" d="M199.9,588.15c-2.06-3.7-12.48-7.05-16.63-7.86c-2.04-0.4-6.12,1.85-3.41-7.77
				c1.34-3.16,5.02-4.65,8.18-3.31l17.22,7.31c3.16,1.34,0.75,15.36-0.59,18.52C203.32,598.2,202.42,592.67,199.9,588.15z"/>
			<g>
				<g>
					<path class="st21" d="M180.34,582.31c2.13-0.91,4.5-1.8,6.85-1.2c2.29,0.22,4.78,0.49,6.84,1.72c3.31,1.89,6.79,3.36,6.06,7.92
						c-0.11,1.23-0.76,2.26-1.28,3.28c0.12-0.57,0.36-1.11,0.52-1.66c0.39-1.55,0.35-3.42-0.39-4.83c-0.53-0.89-1.46-1.54-2.41-2.13
						c-1.94-1.09-3.86-2.42-6.08-2.93c-1.09-0.28-2.22-0.39-3.39-0.65C184.87,581.08,182.58,581.77,180.34,582.31L180.34,582.31z"/>
				</g>
				<g>
					<path class="st21" d="M198.05,578.11c-2.47,1.19-6.12-0.76-5.84-3.7C193.51,576.81,195.46,577.66,198.05,578.11L198.05,578.11z
						"/>
				</g>
			</g>
		</g>
	</g>
	<g>
		<g>
			<path class="st22" d="M211.36,608.67c-1.82,7.09,3.27,9.66,9.17,6.73c1.36-1.03,2.85-3.16,0.29-3.73
				c0.46,0.01,0.96,0.1,1.36,0.42c1.25,1.2-0.21,3.02-1.15,3.91C214.87,619.97,207.88,616.08,211.36,608.67L211.36,608.67z"/>
		</g>
		<g>
			<path class="st22" d="M209.78,608.67c3.48,7.41-3.51,11.29-9.67,7.33c-0.94-0.89-2.4-2.71-1.15-3.91c0.4-0.32,0.9-0.41,1.36-0.42
				c-2.56,0.57-1.08,2.7,0.29,3.73C206.52,618.34,211.6,615.76,209.78,608.67L209.78,608.67z"/>
		</g>
	</g>
	<g>
		<path class="st17" d="M204.29,617.51c2.98,0.16,4.8-2.07,6.01-4.4c0.13-0.34,0.24-0.72,0.09-1.11c0.36,0.26,0.42,0.78,0.4,1.21
			C210.42,616.11,207.2,619.1,204.29,617.51L204.29,617.51z"/>
	</g>
	<g>
		<path class="st17" d="M216.9,617.38c-2.92,1.59-6.13-1.4-6.5-4.29c-0.02-0.43,0.05-0.95,0.4-1.21c-0.15,0.39-0.04,0.76,0.09,1.11
			C212.1,615.31,213.92,617.54,216.9,617.38L216.9,617.38z"/>
	</g>
	<path class="st18" d="M210.7,612.31c-0.57,0.49-3.53-2.46-3-3.39c0.39-0.67,1.95-0.68,2.25-0.68c0.52,0,0.69-0.23,1.59,0
		c1.16,0.29,2.03,0.78,2.16,1.02C214.14,610.04,211.41,611.7,210.7,612.31z"/>
	<circle class="st23" cx="663.29" cy="495.26" r="6.73"/>
	<circle class="st23" cx="708.78" cy="495.1" r="6.73"/>
	<g>
		<g>
			
				<ellipse transform="matrix(0.9951 -0.0986 0.0986 0.9951 -57.0285 25.8382)" class="st19" cx="232.99" cy="590.1" rx="9.32" ry="9.09"/>
			
				<ellipse transform="matrix(0.9951 -0.0986 0.0986 0.9951 -57.0521 25.8203)" class="st7" cx="232.8" cy="590.33" rx="7.17" ry="6.99"/>
		</g>
		<g>
			<path class="st6" d="M223.51,588.15c2.06-3.7,12.48-7.05,16.63-7.86c2.04-0.4,6.12,1.85,3.41-7.77
				c-1.34-3.16-5.02-4.65-8.18-3.31l-17.22,7.31c-3.16,1.34-0.75,15.36,0.59,18.52C220.08,598.2,220.99,592.67,223.51,588.15z"/>
			<g>
				<g>
					<path class="st21" d="M243.07,582.31c-2.24-0.54-4.53-1.23-6.71-0.49c-1.17,0.26-2.3,0.37-3.39,0.65
						c-2.22,0.51-4.14,1.84-6.08,2.93c-0.96,0.59-1.88,1.24-2.41,2.13c-0.74,1.42-0.78,3.28-0.39,4.83
						c0.16,0.55,0.39,1.09,0.52,1.66c-0.51-1.02-1.16-2.05-1.28-3.28c-0.72-4.56,2.75-6.03,6.06-7.92c2.05-1.23,4.55-1.51,6.84-1.72
						C238.57,580.52,240.94,581.4,243.07,582.31L243.07,582.31z"/>
				</g>
				<g>
					<path class="st21" d="M225.35,578.11c2.59-0.45,4.54-1.31,5.84-3.7C231.47,577.36,227.82,579.3,225.35,578.11L225.35,578.11z"
						/>
				</g>
			</g>
		</g>
	</g>
	<rect x="124.28" y="591.79" class="st24" width="882.27" height="134.63"/>
	<ellipse class="st18" cx="685.67" cy="523" rx="3.95" ry="5.22"/>
	<g>
		<g>
			<ellipse class="st17" cx="676.67" cy="519.43" rx="9" ry="6.56"/>
			<path class="st6" d="M685.67,518.49c0,3.62-4.03,6.56-9,6.56c-4.97,0-9-2.44-9-6.06c0-3.62,5-7,9-8
				C681.49,509.79,685.67,514.87,685.67,518.49z"/>
		</g>
		<g>
			<ellipse class="st17" cx="694.59" cy="519.27" rx="9" ry="6.56"/>
			<path class="st6" d="M703.59,518.33c1.08,2.66-4.03,6.56-9,6.56c-4.97,0-9-2.94-9-6.56c0-3.62,4.15-8.61,9-7.5
				C699.67,511.99,702.22,514.97,703.59,518.33z"/>
		</g>
	</g>
	<g>
		<path class="st21" d="M702.61,481.76c1.22-2.61,4.59-4.06,7.32-3.15C707.21,479.18,704.91,480.14,702.61,481.76L702.61,481.76z"/>
	</g>
	<g>
		<path class="st21" d="M670.02,476.89c-1.75-1.18-3.27-2.74-5.25-3.47c-0.62-0.2-1.27-0.22-1.98,0.11
			C665.07,470.9,669.03,474.58,670.02,476.89L670.02,476.89z"/>
	</g>
	<path class="st7" d="M709.38,592.12c18.15-24.02,27.94-45.47,33.55-60.9c8.74-24.05,12.64-48.05,28.9-53.16
		c7.4-2.33,14.5,0.16,15.48,0.52c10.68,3.89,18.52,15.67,16,20.13c-1.82,3.22-9.69,3.73-13.94,0.52c-3.6-2.73-2.76-6.75-5.68-8.26
		c-4.83-2.5-13.43,5.27-14.45,6.19c-23.87,21.55-10.95,70.88-38.71,90.84c-2.61,1.87-4.94,3.03-6.19,3.61"/>
</g>
</svg>
