<?xml version="1.0" encoding="UTF-8"?>
<svg id="Layer_1" data-name="Layer 1" xmlns="http://www.w3.org/2000/svg" viewBox="0 0 457.5 500.5">
  <defs>
    <style>
      .cls-1 {
        fill: #fff;
      }

      .cls-2 {
        fill: #eccb1c;
      }

      .cls-3 {
        fill: #f8eee8;
      }

      .cls-4 {
        fill: #f4ffff;
      }

      .cls-5 {
        fill: #ffdd1c;
      }

      .cls-6 {
        fill: #551442;
      }

      .cls-7 {
        fill: #969696;
      }

      .cls-8 {
        fill: #fbdcce;
      }

      .cls-9 {
        fill: #f7bcb5;
      }

      .cls-10 {
        fill: #00001c;
      }

      .cls-11 {
        fill: #6f5d1c;
      }

      .cls-12 {
        fill: #c6c6c6;
      }
    </style>
  </defs>
  <g>
    <polygon class="cls-11" points="229.46 15.1 323 366.3 169 366.3 229.46 15.1"/>
    <ellipse class="cls-11" cx="323.5" cy="243.3" rx="85.5" ry="123"/>
  </g>
  <g>
    <polygon class="cls-11" points="180.54 15.1 86 365.3 249 363.3 180.54 15.1"/>
    <ellipse class="cls-11" cx="85.5" cy="242.3" rx="85.5" ry="123"/>
  </g>
  <path class="cls-5" d="m302.44,500.5c2.37-11.17,3.65-22.9,3.65-35,0-75.66-48.97-116-110-116s-111,40.34-111,116c0,12.1,1.27,23.83,3.65,35h213.7Z"/>
  <g>
    <path class="cls-2" d="m168.08,392.5c-8.18-2.91-44.25-12.55-43.85-26,.21-7.34,20.91-6.43,27.99-8.95,24.77-8.82,56.64,7.99,74.7,3.08.68-.19,2.79-.79,5.58-.62,7.98.51,28.69.63,29.73,6.48,2.48,14.01-41.99,33.8-72.15,27-2.02-.44-18.23.35-22-.99Z"/>
    <path class="cls-5" d="m177.36,388.88c-8.18-2.91-53.53-9.93-53.14-23.38.21-7.34,20.92-19.1,28-21.62,24.77-8.82,56.64,7.99,74.7,3.08.68-.19,20.5,9.36,23.3,9.54,7.98.51,10.97,1.14,12,7,2.48,14.01-47.03,34.65-77.19,27.84-2.01-.45-3.9-1.12-7.67-2.46Z"/>
    <path class="cls-2" d="m173.08,384.5c-6.84-2.47-34.11-16-31-27,1.39-4.92,11.28-11.94,17.18-11.79,20.09.53,49.59,12.81,62.46,2.62.46-.37,2.33-.67,4.67-.52,6.67.43,9.36,8.22,5.69,11.69-19,18-28.48,13.31-44,34-3,4-11.85-7.86-15-9Z"/>
    <path class="cls-8" d="m169.23,374.5c-6.84-2.47-7-15-7-18,0-20.1,49.85-21,51.85,2,.95,10.96-8,11-23.63,27.58-3.43,3.65-18.07-10.44-21.22-11.58Z"/>
  </g>
  <ellipse class="cls-3" cx="372.52" cy="245.3" rx="24" ry="19.5" transform="translate(76.64 579.06) rotate(-81.81)"/>
  <ellipse class="cls-8" cx="372.81" cy="243.9" rx="17.6" ry="15.51" transform="translate(58.89 560.01) rotate(-78.39)"/>
  <ellipse class="cls-3" cx="26.5" cy="247.3" rx="19.5" ry="24"/>
  <ellipse class="cls-8" cx="28.52" cy="246.06" rx="15.51" ry="17.55" transform="translate(-35.11 6.67) rotate(-8.27)"/>
  <path class="cls-3" d="m370,206.3c0-98.31-73.34-177-167.5-177S32,108.99,32,207.3c0,14.85,8.5,60.37,10,67,7.02,31.06,24.17,46.39,65.23,71.21,43.23,18.21,54.78,21.79,91.77,21.79s52.23-4.79,86.23-21.79c41.34-22.74,63.88-39.15,72.77-72.21,1.9-7.08,12-52.7,12-67Z"/>
  <path class="cls-11" d="m253.28,197.32c7.26-14.01,23.61-16.71,31.72-1.86-11.82-10.98-20.68-8.49-31.72,1.86h0Z"/>
  <path class="cls-11" d="m404,202.3c-1-10-6.15-33.7-8.54-42.91-18.83-72.7-73.26-125.87-141.6-151.56-12-5.36-18-6.43-29-7.5-6.88-.67-13.89-.18-19.5,3.24-.52,0-1.04-.02-1.57-.02-.48,0-.96.01-1.44.02-5.61-3.42-10.03-4.1-18.49-3.23-10.5,1.07-17,3.22-29,7.5C61.82,30.84,18,114.4,5,202.31c0,0,.85-.2,2.35-.55l-4.69,11.56s12.1,7.46,16.29,9.68c10.04,5.31,11.95,25.32,16.04,20.31,9-11,10.03-41.62,14-46,8.81-9.71,10.84-7.46,19-9,12.84-2.42,52.66-.36,52.66-.36,0,0,5.63-26.19,8.34-35.64,2.66-9.28,12.98-38.97,12.98-38.97,0,0,1.19,27.81,1.6,37.08,1.42,31.89-1.58,38.89-1.58,38.89,0,0,45.18-1.51,59.9-1.36,36.1.36,57.1-.64,57.1-.64.2,2.38,2.04-18.92,2.44-33.76.56-20.24-4.44-43.24-4.44-43.24l26.11,77.64s46.29.23,63.89,2.36c6.1.74,9.72,47.07,13,51,5,6,7,1,7,1,0,0,7.4-28.13,13-30,6.01-2.01,24.01-10.01,24.01-10.01Z"/>
  <ellipse class="cls-9" cx="88" cy="279.3" rx="28" ry="15"/>
  <ellipse class="cls-9" cx="310" cy="277.3" rx="28" ry="15"/>
  <g>
    <circle class="cls-1" cx="117.5" cy="234.8" r="24.5"/>
    <ellipse class="cls-11" cx="118" cy="234.61" rx="20" ry="19.69"/>
    <ellipse class="cls-10" cx="117.35" cy="234.81" rx="11.37" ry="11.49"/>
    <ellipse class="cls-1" cx="106.62" cy="222.84" rx="6.38" ry="6.43"/>
  </g>
  <ellipse class="cls-8" cx="183.79" cy="285.79" rx="4.5" ry="7.25" transform="translate(-154.06 322) rotate(-63.37)"/>
  <ellipse class="cls-8" cx="188.73" cy="337" rx="15.27" ry="11.3"/>
  <path class="cls-11" d="m99.16,197.51c7.26-14.01,23.61-16.71,31.72-1.86-11.82-10.98-20.67-8.48-31.72,1.86h0Z"/>
  <g>
    <ellipse class="cls-4" cx="374.68" cy="251.35" rx="14.27" ry="10.16" transform="translate(21.17 531.7) rotate(-72.27)"/>
    <g>
      <polygon class="cls-4" points="372.56 279.16 367.22 276.21 377.12 253.4 382.46 256.35 372.56 279.16"/>
      <ellipse class="cls-12" cx="369.76" cy="277.94" rx="2.02" ry="3.03" transform="translate(-65.62 434.18) rotate(-56.67)"/>
      <ellipse class="cls-4" cx="370" cy="277.54" rx="1.56" ry="3.02" transform="translate(-58.18 452.46) rotate(-59.1)"/>
    </g>
    <ellipse class="cls-1" cx="374.47" cy="242.78" rx="6.49" ry="3.07" transform="translate(-71.32 221.88) rotate(-30.27)"/>
    <g>
      <path class="cls-12" d="m378.58,251.87l.07.03c.63.29.87,1.26.55,2.14l-2.33,6.46c-.3.83-1.02,1.23-1.61.88l-.06-.04c-.6-.34-.86-1.28-.57-2.1l2.25-6.33c.3-.86,1.08-1.33,1.7-1.04Z"/>
      <path class="cls-7" d="m378.87,251.86l.07.03c.63.3.87,1.27.54,2.15l-2.34,6.47c-.3.84-1.02,1.23-1.61.88l-.06-.04c-.6-.34-.86-1.28-.57-2.1l2.26-6.34c.3-.86,1.08-1.34,1.71-1.05Z"/>
    </g>
    <path class="cls-1" d="m371.91,277.19h0c-.4-.22-.57-.77-.37-1.22l5.19-11.95c.2-.45.68-.64,1.08-.42h0c.4.22.57.77.37,1.22l-5.19,11.95c-.19.46-.68.65-1.08.42Z"/>
  </g>
  <g>
    <ellipse class="cls-4" cx="28.01" cy="251.92" rx="10.16" ry="14.27" transform="translate(-83.81 24.45) rotate(-19.83)"/>
    <g>
      <polygon class="cls-4" points="31.15 279.62 36.38 276.47 25.65 254.04 20.42 257.18 31.15 279.62"/>
      <ellipse class="cls-12" cx="33.89" cy="278.27" rx="3.03" ry="2.02" transform="translate(-155.06 71.19) rotate(-35.44)"/>
      <ellipse class="cls-4" cx="33.67" cy="277.86" rx="3.02" ry="1.56" transform="translate(-145.94 63.2) rotate(-33.01)"/>
    </g>
    <ellipse class="cls-1" cx="27.9" cy="243.29" rx="3.07" ry="6.49" transform="translate(-199.75 153.04) rotate(-61.83)"/>
    <g>
      <path class="cls-12" d="m22.21,252.91l-.07.04c-.63.43-.9,1.41-.6,2.18l2.17,6.03c.27.82.99,1.19,1.59.8l.06-.04c.61-.39.89-1.4.63-2.24l-2.1-6.14c-.28-.78-1.05-1.07-1.68-.63Z"/>
      <path class="cls-7" d="m21.92,252.97l-.07.04c-.63.43-.9,1.4-.59,2.18l2.18,6.01c.27.82.99,1.19,1.59.8l.06-.04c.61-.39.89-1.4.63-2.23l-2.11-6.12c-.28-.79-1.05-1.08-1.69-.64Z"/>
    </g>
    <path class="cls-1" d="m31.73,277.63h0c.39-.24.54-.79.33-1.24l-5.62-11.75c-.21-.44-.71-.61-1.1-.38h0c-.39.24-.54.79-.33,1.24l5.62,11.75c.22.44.71.61,1.1.38Z"/>
  </g>
  <path class="cls-11" d="m193.07,307.06c-3.31,2.05-7.73,2.61-11.36,1.22-1.02-.39-1.46,1.25-.45,1.64,4.02,1.55,9.01.87,12.67-1.39.92-.58.07-2.05-.86-1.47h0Z"/>
  <g>
    <circle class="cls-1" cx="262.09" cy="236.97" r="24.5"/>
    <ellipse class="cls-11" cx="262.59" cy="236.78" rx="20" ry="19.69"/>
    <ellipse class="cls-10" cx="261.95" cy="236.98" rx="11.37" ry="11.49"/>
    <ellipse class="cls-1" cx="251.21" cy="225.02" rx="6.38" ry="6.43"/>
  </g>
  <path class="cls-11" d="m185.61,264.8c.21,3.89.7,7.92.45,11.82-.02.32-.07.55-.12.85-.06.34-.03.15-.03.16,0-.1.19.01.01-.05-.24-.07-.48-.13-.72-.21-2.23-.71-4.83-2.08-7.21-1.81-3.16.37-3.15,4.54-2.27,6.86,1.06,2.8,4.54,4.39,6.81,6.03.82.59,2.23,1.31,2.81,2.14.1.15.15.07-.05.35-.56.81-1.67,1.32-2.51,1.77-2.54,1.35-5.26,2.31-7.86,3.53-1.06.5-3.57,1.92-1.59,3.09.84.5,1.98.57,2.91.67,1.77.18,3.56.16,5.33.08,5.95-.26,11.86-1.32,17.63-2.74,1.06-.26.61-1.9-.45-1.64-5.13,1.26-10.35,2.22-15.62,2.59-2.71.19-5.83.48-8.49-.27-.07-.02-.38-.1-.31-.09-.24-.04-.13-.14-.17-.08.04-.07.24.89.01.78-.01,0,.29-.23.28-.23.88-.54,1.85-.95,2.8-1.36,2.54-1.1,5.22-2.07,7.57-3.56,1.4-.88,3.28-2.58,1.63-4.19-1.6-1.56-3.7-2.78-5.53-4.06-1.06-.74-2.31-1.47-3.11-2.51-.71-.93-.83-2.11-.84-3.25-.01-.66-.03-1.6.57-2.04.53-.38,1.35-.22,1.93-.1,1.98.4,3.83,1.34,5.79,1.82,1.62.4,2.3-.7,2.45-2.18.13-1.32.05-2.68,0-4-.11-2.74-.27-5.47-.42-8.21-.04-1.05-1.74-1.06-1.68.04h0Z"/>
  <ellipse class="cls-6" cx="172.18" cy="386.78" rx="1.85" ry="1.73" transform="translate(-135.11 95.54) rotate(-22.54)"/>
  <ellipse class="cls-6" cx="200.08" cy="387.87" rx="1.85" ry="1.73"/>
  <path class="cls-1" d="m171.49,386.93c2.74,4.4,5.98,10.36,4.15,15.71-.81,2.39-2.62,4.37-3.7,6.64-1.53,3.18-2.02,6.73-1.57,10.22.14,1.07,1.84,1.08,1.7,0-.5-3.81.19-7.5,2.11-10.83,1.18-2.05,2.7-3.94,3.3-6.26,1.47-5.67-1.63-11.68-4.53-16.34-.56-.92-2.04-.07-1.46.86h0Z"/>
  <path class="cls-1" d="m200.53,425.28c-1.43-5.89-2.68-12.22-1.85-18.3.36-2.6,1.2-5.11,1.68-7.69.68-3.69.84-7.46.65-11.21-.06-1.09-1.76-1.1-1.7,0,.2,3.82.03,7.67-.72,11.43-.51,2.55-1.31,5.03-1.63,7.62-.76,6.2.48,12.6,1.93,18.6.26,1.06,1.9.61,1.64-.45h0Z"/>
</svg>