<?xml version="1.0" encoding="utf-8"?>
<!-- Generator: Adobe Illustrator 27.2.0, SVG Export Plug-In . SVG Version: 6.00 Build 0)  -->
<svg version="1.1" id="Layer_1" xmlns="http://www.w3.org/2000/svg" xmlns:xlink="http://www.w3.org/1999/xlink" x="0px" y="0px"
	 viewBox="0 0 713.58 660.39" style="enable-background:new 0 0 713.58 660.39;" xml:space="preserve">
<style type="text/css">
	.st0{fill:#6F5D1C;}
	.st1{fill:#F8EEE8;}
	.st2{fill:#FBDCCE;}
	.st3{fill:#F7BCB5;}
	.st4{fill:none;stroke:#6F5D1C;stroke-width:2.8346;stroke-miterlimit:10;}
	.st5{fill:#FFFFFF;}
	.st6{fill:#00001C;}
	.st7{fill:#F4FFFF;}
	.st8{fill:#C6C6C6;}
	.st9{fill:#969696;}
	.st10{fill:#FFDD1C;}
	.st11{fill:#ECCB1C;}
	.st12{fill:#551442;}
	.st13{fill:#F0F0F0;}
	.st14{fill:#FFBDD2;}
	.st15{fill:#F9D64F;}
	.st16{fill:#FAF5F5;}
	.st17{fill:#DCE6E6;}
	.st18{fill:#FAFAFA;}
</style>
<g>
	<polygon class="st0" points="382.4,90.56 475.94,441.76 321.94,441.76 	"/>
	<ellipse class="st0" cx="476.44" cy="318.76" rx="85.5" ry="123"/>
</g>
<g>
	<polygon class="st0" points="333.48,90.56 238.94,440.76 401.94,438.76 	"/>
	<ellipse class="st0" cx="238.44" cy="317.76" rx="85.5" ry="123"/>
</g>
<g>
	
		<ellipse transform="matrix(0.1425 -0.9898 0.9898 0.1425 133.1036 795.1439)" class="st1" cx="525.46" cy="320.75" rx="24" ry="19.5"/>
</g>
<ellipse transform="matrix(0.2012 -0.9796 0.9796 0.2012 107.1567 770.1002)" class="st2" cx="525.75" cy="319.35" rx="17.6" ry="15.51"/>
<g>
	<ellipse class="st1" cx="179.44" cy="322.76" rx="19.5" ry="24"/>
</g>
<ellipse transform="matrix(0.9896 -0.1439 0.1439 0.9896 -44.3772 29.4591)" class="st2" cx="181.47" cy="321.52" rx="15.51" ry="17.55"/>
<path class="st1" d="M522.94,281.76c0-98.31-73.34-177-167.5-177s-170.5,79.69-170.5,178c0,14.85,8.5,60.37,10,67
	c7.02,31.06,24.17,46.39,65.23,71.21c43.23,18.21,54.78,21.79,91.77,21.79c36.43,0,52.23-4.79,86.23-21.79
	c41.34-22.74,63.88-39.15,72.77-72.21C512.84,341.68,522.94,296.06,522.94,281.76z"/>
<g>
	<path class="st0" d="M406.22,272.78c7.26-14.01,23.61-16.71,31.72-1.86C426.12,259.94,417.26,262.43,406.22,272.78L406.22,272.78z"
		/>
</g>
<path class="st0" d="M556.94,277.76c-1-10-6.15-33.7-8.54-42.91c-18.83-72.7-73.26-125.87-141.6-151.56c-12-5.36-18-6.43-29-7.5
	c-6.88-0.67-13.89-0.18-19.5,3.24c-0.52,0-1.04-0.02-1.57-0.02c-0.48,0-0.96,0.01-1.44,0.02c-5.61-3.42-10.03-4.1-18.49-3.23
	c-10.5,1.07-17,3.22-29,7.5c-93.04,23-136.86,106.56-149.86,194.47c0,0,0.85-0.2,2.35-0.55l-4.69,11.56c0,0,12.1,7.46,16.29,9.68
	c10.04,5.31,11.95,25.32,16.04,20.31c9-11,10.03-41.62,14-46c8.81-9.71,10.84-7.46,19-9c12.84-2.42,52.66-0.36,52.66-0.36
	s5.63-26.19,8.34-35.64c2.66-9.28,12.98-38.97,12.98-38.97s1.19,27.81,1.6,37.08c1.42,31.89-1.58,38.89-1.58,38.89
	s45.18-1.51,59.9-1.36c36.1,0.36,57.1-0.64,57.1-0.64c0.2,2.38,2.04-18.92,2.44-33.76c0.56-20.24-4.44-43.24-4.44-43.24l26.11,77.64
	c0,0,46.29,0.23,63.89,2.36c6.1,0.74,9.72,47.07,13,51c5,6,7,1,7,1s7.4-28.13,13-30C538.94,285.76,556.94,277.76,556.94,277.76z"/>
<ellipse class="st3" cx="240.94" cy="354.76" rx="28" ry="15"/>
<ellipse class="st3" cx="462.94" cy="352.76" rx="28" ry="15"/>
<g>
	<circle class="st5" cx="270.44" cy="310.26" r="24.5"/>
	<ellipse class="st0" cx="270.94" cy="310.07" rx="20" ry="19.69"/>
	<ellipse class="st6" cx="270.29" cy="310.27" rx="11.37" ry="11.49"/>
	<ellipse class="st5" cx="259.56" cy="298.3" rx="6.38" ry="6.43"/>
</g>
<ellipse transform="matrix(0.4482 -0.8939 0.8939 0.4482 -137.1085 500.3636)" class="st2" cx="336.73" cy="361.24" rx="4.5" ry="7.25"/>
<ellipse class="st2" cx="341.67" cy="412.46" rx="15.27" ry="11.3"/>
<g>
	<path class="st0" d="M252.1,272.97c7.26-14.01,23.61-16.71,31.72-1.86C272,260.13,263.15,262.63,252.1,272.97L252.1,272.97z"/>
</g>
<g>
	
		<ellipse transform="matrix(0.3045 -0.9525 0.9525 0.3045 55.6741 729.856)" class="st7" cx="527.62" cy="326.8" rx="14.27" ry="10.16"/>
	<g>
		<polygon class="st7" points="525.5,354.62 520.16,351.67 530.06,328.86 535.4,331.81 		"/>
		
			<ellipse transform="matrix(0.5494 -0.8355 0.8355 0.5494 -59.754 595.9659)" class="st8" cx="522.7" cy="353.39" rx="2.02" ry="3.03"/>
		
			<ellipse transform="matrix(0.5136 -0.858 0.858 0.5136 -48.5262 620.3852)" class="st7" cx="522.94" cy="352.99" rx="1.56" ry="3.02"/>
	</g>
	
		<ellipse transform="matrix(0.8636 -0.5041 0.5041 0.8636 -88.5036 309.275)" class="st5" cx="527.41" cy="318.23" rx="6.49" ry="3.07"/>
	<g>
		<g>
			<path class="st8" d="M531.52,327.33l0.07,0.03c0.63,0.29,0.87,1.26,0.55,2.14l-2.33,6.46c-0.3,0.83-1.02,1.23-1.61,0.88
				l-0.06-0.04c-0.6-0.34-0.86-1.28-0.57-2.1l2.25-6.33C530.12,327.51,530.9,327.04,531.52,327.33z"/>
			<path class="st9" d="M531.81,327.32l0.07,0.03c0.63,0.3,0.87,1.27,0.54,2.15l-2.34,6.47c-0.3,0.84-1.02,1.23-1.61,0.88
				l-0.06-0.04c-0.6-0.34-0.86-1.28-0.57-2.1l2.26-6.34C530.4,327.51,531.18,327.03,531.81,327.32z"/>
		</g>
	</g>
	<path class="st5" d="M524.85,352.65L524.85,352.65c-0.4-0.22-0.57-0.77-0.37-1.22l5.19-11.95c0.2-0.45,0.68-0.64,1.08-0.42l0,0
		c0.4,0.22,0.57,0.77,0.37,1.22l-5.19,11.95C525.74,352.69,525.25,352.88,524.85,352.65z"/>
</g>
<g>
	
		<ellipse transform="matrix(0.9407 -0.3393 0.3393 0.9407 -100.3423 80.8146)" class="st7" cx="180.95" cy="327.38" rx="10.16" ry="14.27"/>
	<g>
		<polygon class="st7" points="184.09,355.08 189.32,351.93 178.59,329.5 173.36,332.64 		"/>
		
			<ellipse transform="matrix(0.8148 -0.5798 0.5798 0.8148 -170.4752 173.8422)" class="st8" cx="186.83" cy="353.72" rx="3.03" ry="2.02"/>
		
			<ellipse transform="matrix(0.8386 -0.5448 0.5448 0.8386 -162.3545 158.6965)" class="st7" cx="186.61" cy="353.31" rx="3.02" ry="1.56"/>
	</g>
	
		<ellipse transform="matrix(0.4721 -0.8816 0.8816 0.4721 -185.5183 327.6997)" class="st5" cx="180.85" cy="318.74" rx="3.07" ry="6.49"/>
	<g>
		<g>
			<path class="st8" d="M175.15,328.37l-0.07,0.04c-0.63,0.43-0.9,1.41-0.6,2.18l2.17,6.03c0.27,0.82,0.99,1.19,1.59,0.8l0.06-0.04
				c0.61-0.39,0.89-1.4,0.63-2.24l-2.1-6.14C176.55,328.22,175.78,327.93,175.15,328.37z"/>
			<path class="st9" d="M174.86,328.43l-0.07,0.04c-0.63,0.43-0.9,1.4-0.59,2.18l2.18,6.01c0.27,0.82,0.99,1.19,1.59,0.8l0.06-0.04
				c0.61-0.39,0.89-1.4,0.63-2.23l-2.11-6.12C176.27,328.28,175.5,327.99,174.86,328.43z"/>
		</g>
	</g>
	<path class="st5" d="M184.67,353.09L184.67,353.09c0.39-0.24,0.54-0.79,0.33-1.24l-5.62-11.75c-0.21-0.44-0.71-0.61-1.1-0.38l0,0
		c-0.39,0.24-0.54,0.79-0.33,1.24l5.62,11.75C183.79,353.15,184.28,353.32,184.67,353.09z"/>
</g>
<g>
	<g>
		<path class="st0" d="M346.01,382.52c-3.31,2.05-7.73,2.61-11.36,1.22c-1.02-0.39-1.46,1.25-0.45,1.64
			c4.02,1.55,9.01,0.87,12.67-1.39C347.79,383.41,346.94,381.94,346.01,382.52L346.01,382.52z"/>
	</g>
</g>
<g>
	<circle class="st5" cx="415.03" cy="312.43" r="24.5"/>
	<ellipse class="st0" cx="415.53" cy="312.24" rx="20" ry="19.69"/>
	<ellipse class="st6" cx="414.89" cy="312.44" rx="11.37" ry="11.49"/>
	<ellipse class="st5" cx="404.15" cy="300.48" rx="6.38" ry="6.43"/>
</g>
<g>
	<g>
		<path class="st0" d="M338.55,340.26c0.21,3.89,0.7,7.92,0.45,11.82c-0.02,0.32-0.07,0.55-0.12,0.85
			c-0.06,0.34-0.03,0.15-0.03,0.16c0-0.1,0.19,0.01,0.01-0.05c-0.24-0.07-0.48-0.13-0.72-0.21c-2.23-0.71-4.83-2.08-7.21-1.81
			c-3.16,0.37-3.15,4.54-2.27,6.86c1.06,2.8,4.54,4.39,6.81,6.03c0.82,0.59,2.23,1.31,2.81,2.14c0.1,0.15,0.15,0.07-0.05,0.35
			c-0.56,0.81-1.67,1.32-2.51,1.77c-2.54,1.35-5.26,2.31-7.86,3.53c-1.06,0.5-3.57,1.92-1.59,3.09c0.84,0.5,1.98,0.57,2.91,0.67
			c1.77,0.18,3.56,0.16,5.33,0.08c5.95-0.26,11.86-1.32,17.63-2.74c1.06-0.26,0.61-1.9-0.45-1.64c-5.13,1.26-10.35,2.22-15.62,2.59
			c-2.71,0.19-5.83,0.48-8.49-0.27c-0.07-0.02-0.38-0.1-0.31-0.09c-0.24-0.04-0.13-0.14-0.17-0.08c0.04-0.07,0.24,0.89,0.01,0.78
			c-0.01,0,0.29-0.23,0.28-0.23c0.88-0.54,1.85-0.95,2.8-1.36c2.54-1.1,5.22-2.07,7.57-3.56c1.4-0.88,3.28-2.58,1.63-4.19
			c-1.6-1.56-3.7-2.78-5.53-4.06c-1.06-0.74-2.31-1.47-3.11-2.51c-0.71-0.93-0.83-2.11-0.84-3.25c-0.01-0.66-0.03-1.6,0.57-2.04
			c0.53-0.38,1.35-0.22,1.93-0.1c1.98,0.4,3.83,1.34,5.79,1.82c1.62,0.4,2.3-0.7,2.45-2.18c0.13-1.32,0.05-2.68,0-4
			c-0.11-2.74-0.27-5.47-0.42-8.21C340.19,339.17,338.49,339.16,338.55,340.26L338.55,340.26z"/>
	</g>
</g>
</svg>
