<?xml version="1.0" encoding="utf-8"?>
<!-- Generator: Adobe Illustrator 27.2.0, SVG Export Plug-In . SVG Version: 6.00 Build 0)  -->
<svg version="1.1" id="Layer_1" xmlns="http://www.w3.org/2000/svg" xmlns:xlink="http://www.w3.org/1999/xlink" x="0px" y="0px"
	 viewBox="0 0 221 159.23" style="enable-background:new 0 0 221 159.23;" xml:space="preserve">
<style type="text/css">
	.st0{fill:#FFDD1C;}
	.st1{fill:#ECCB1C;}
	.st2{fill:#FBDCCE;}
	.st3{fill:#551442;}
	.st4{fill:#FFFFFF;}
</style>
<g>
	<path class="st0" d="M217.35,159.23c2.37-11.17,3.65-22.9,3.65-35c0-75.66-48.97-116-110-116c-59,0-111,40.34-111,116
		c0,12.1,1.27,23.83,3.65,35H217.35z"/>
	<g>
		<path class="st1" d="M82.99,51.23c-8.18-2.91-44.25-12.55-43.85-26c0.21-7.34,20.91-6.43,27.99-8.95
			c24.77-8.82,56.64,7.99,74.7,3.08c0.68-0.19,2.79-0.79,5.58-0.62c7.98,0.51,28.69,0.63,29.73,6.48c2.48,14.01-41.99,33.8-72.15,27
			C102.97,51.78,86.76,52.57,82.99,51.23z"/>
		<path class="st0" d="M92.27,47.61c-8.18-2.91-53.53-9.93-53.14-23.38c0.21-7.34,20.92-19.1,28-21.62
			c24.77-8.82,56.64,7.99,74.7,3.08c0.68-0.19,20.5,9.36,23.3,9.54c7.98,0.51,10.97,1.14,12,7c2.48,14.01-47.03,34.65-77.19,27.84
			C97.93,49.62,96.04,48.95,92.27,47.61z"/>
		<path class="st1" d="M87.99,43.23c-6.84-2.47-34.11-16-31-27c1.39-4.92,11.28-11.94,17.18-11.79
			c20.09,0.53,49.59,12.81,62.46,2.62c0.46-0.37,2.33-0.67,4.67-0.52c6.67,0.43,9.36,8.22,5.69,11.69c-19,18-28.48,13.31-44,34
			C99.99,56.23,91.14,44.37,87.99,43.23z"/>
		<path class="st2" d="M84.14,33.23c-6.84-2.47-7-15-7-18c0-20.1,49.85-21,51.85,2c0.95,10.96-8,11-23.63,27.58
			C101.93,48.46,87.29,34.37,84.14,33.23z"/>
	</g>
	
		<ellipse transform="matrix(0.9236 -0.3833 0.3833 0.9236 -10.7912 36.8544)" class="st3" cx="87.08" cy="45.5" rx="1.85" ry="1.73"/>
	<ellipse class="st3" cx="114.99" cy="46.6" rx="1.85" ry="1.73"/>
	<g>
		<g>
			<path class="st4" d="M86.4,45.66c2.74,4.4,5.98,10.36,4.15,15.71c-0.81,2.39-2.62,4.37-3.7,6.64c-1.53,3.18-2.02,6.73-1.57,10.22
				c0.14,1.07,1.84,1.08,1.7,0c-0.5-3.81,0.19-7.5,2.11-10.83c1.18-2.05,2.7-3.94,3.3-6.26c1.47-5.67-1.63-11.68-4.53-16.34
				C87.3,43.88,85.82,44.73,86.4,45.66L86.4,45.66z"/>
		</g>
	</g>
	<g>
		<g>
			<path class="st4" d="M115.44,84.01c-1.43-5.89-2.68-12.22-1.85-18.3c0.36-2.6,1.2-5.11,1.68-7.69c0.68-3.69,0.84-7.46,0.65-11.21
				c-0.06-1.09-1.76-1.1-1.7,0c0.2,3.82,0.03,7.67-0.72,11.43c-0.51,2.55-1.31,5.03-1.63,7.62c-0.76,6.2,0.48,12.6,1.93,18.6
				C114.06,85.52,115.7,85.07,115.44,84.01L115.44,84.01z"/>
		</g>
	</g>
</g>
</svg>
