<?xml version="1.0" encoding="UTF-8"?>
<svg id="Layer_2" data-name="Layer 2" xmlns="http://www.w3.org/2000/svg" viewBox="0 0 268.39 235.35">
  <defs>
    <style>
      .cls-1 {
        fill: #fff;
      }

      .cls-2 {
        fill: #dce6e6;
      }

      .cls-3 {
        fill: #ffbdd2;
      }

      .cls-4 {
        fill: #00001c;
      }

      .cls-5 {
        fill: #f9d64f;
      }
    </style>
  </defs>
  <g>
    <path class="cls-1" d="m186.46,65.87c-3.76-4.51-43.53,1.9-43.53,1.9l18.74,34.26s26.76-33.8,24.79-36.16Z"/>
    <path class="cls-3" d="m152.65,93.34c9.06,3.99,27.11-17.46,24.33-21.8-.75-1.18-2.55-.33-13.47.01-10.95.34-12.91-.4-14.74,1.38-4.51,4.36-2,17.82,3.88,20.41Z"/>
  </g>
  <g>
    <path class="cls-1" d="m62.91,69.41c-1.52,2.79,31.71,39.48,31.71,39.48l5.53-41.21s-32.78-6.46-37.25,1.72Z"/>
    <path class="cls-3" d="m108.06,100.94c-10.8,5.31-35.74-20.19-32.78-25.65.8-1.48,3.13-.52,16.75-.6,13.66-.09,16-1.08,18.48,1.01,6.11,5.15,4.56,21.79-2.45,25.24Z"/>
  </g>
  <path class="cls-1" d="m171.43,104.94c3.94,16.43-10.24,28.44-26.16,39.1-10.17,6.81-37.42,5.6-48.66-.58s-26.42-19.56-23.01-33.78,4.42-26.52,11.38-31.99c12.05-9.48,12.36-12.42,37.66-12.42,12.05,0,34.58,3.08,40.83,14.79,5.69,10.66,4.55,10.66,7.96,24.88Z"/>
  <g>
    <g>
      <ellipse class="cls-5" cx="101.82" cy="104.91" rx="9.09" ry="9.32" transform="translate(-12.61 195.89) rotate(-84.34)"/>
      <ellipse class="cls-4" cx="102.01" cy="105.14" rx="6.99" ry="7.17" transform="translate(-12.67 196.29) rotate(-84.34)"/>
    </g>
    <g>
      <path class="cls-1" d="m111.3,102.96c-2.06-3.7-12.48-7.05-16.63-7.86-2.04-.4-6.12,1.85-3.41-7.77,1.34-3.16,5.02-4.65,8.18-3.31l17.22,7.31c3.16,1.34.75,15.36-.59,18.52-1.34,3.16-2.25-2.37-4.76-6.89Z"/>
      <g>
        <path class="cls-2" d="m91.74,97.12c2.13-.91,4.5-1.8,6.85-1.2,2.29.22,4.78.49,6.84,1.72,3.31,1.89,6.79,3.36,6.06,7.92-.11,1.23-.76,2.26-1.28,3.28.12-.57.36-1.11.52-1.66.39-1.55.35-3.42-.39-4.83-.53-.89-1.46-1.54-2.41-2.13-1.94-1.09-3.86-2.42-6.08-2.93-1.09-.28-2.22-.39-3.39-.65-2.18-.74-4.47-.05-6.71.49h0Z"/>
        <path class="cls-2" d="m109.45,92.92c-2.47,1.19-6.12-.76-5.84-3.7,1.29,2.39,3.25,3.25,5.84,3.7h0Z"/>
      </g>
    </g>
  </g>
  <g>
    <g>
      <ellipse class="cls-5" cx="144.39" cy="104.91" rx="9.32" ry="9.09" transform="translate(-9.64 14.74) rotate(-5.66)"/>
      <ellipse class="cls-4" cx="144.2" cy="105.14" rx="7.17" ry="6.99" transform="translate(-9.66 14.72) rotate(-5.66)"/>
    </g>
    <g>
      <path class="cls-1" d="m134.91,102.96c2.06-3.7,12.48-7.05,16.63-7.86,2.04-.4,6.12,1.85,3.41-7.77-1.34-3.16-5.02-4.65-8.18-3.31l-17.22,7.31c-3.16,1.34-.75,15.36.59,18.52,1.34,3.16,2.25-2.37,4.76-6.89Z"/>
      <g>
        <path class="cls-2" d="m154.47,97.12c-2.24-.54-4.53-1.23-6.71-.49-1.17.26-2.3.37-3.39.65-2.22.51-4.14,1.84-6.08,2.93-.96.59-1.88,1.24-2.41,2.13-.74,1.42-.78,3.28-.39,4.83.16.55.39,1.09.52,1.66-.51-1.02-1.16-2.05-1.28-3.28-.72-4.56,2.75-6.03,6.06-7.92,2.05-1.23,4.55-1.51,6.84-1.72,2.35-.6,4.72.29,6.85,1.2h0Z"/>
        <path class="cls-2" d="m136.75,92.92c2.59-.45,4.54-1.31,5.84-3.7.28,2.94-3.37,4.88-5.84,3.7h0Z"/>
      </g>
    </g>
  </g>
</svg>