<?xml version="1.0" encoding="utf-8"?>
<!-- Generator: Adobe Illustrator 27.2.0, SVG Export Plug-In . SVG Version: 6.00 Build 0)  -->
<svg version="1.1" id="Layer_1" xmlns="http://www.w3.org/2000/svg" xmlns:xlink="http://www.w3.org/1999/xlink" x="0px" y="0px"
	 viewBox="0 0 696.77 527.23" style="enable-background:new 0 0 696.77 527.23;" xml:space="preserve">
<style type="text/css">
	.st0{fill:#6F5D1C;}
	.st1{fill:#F8EEE8;}
	.st2{fill:#FBDCCE;}
	.st3{fill:#F7BCB5;}
	.st4{fill:none;stroke:#6F5D1C;stroke-width:2.8346;stroke-miterlimit:10;}
	.st5{fill:#FFFFFF;}
	.st6{fill:#00001C;}
	.st7{fill:#F4FFFF;}
	.st8{fill:#C6C6C6;}
	.st9{fill:#969696;}
	.st10{fill:#FFDD1C;}
	.st11{fill:#ECCB1C;}
	.st12{fill:#551442;}
	.st13{fill:#F0F0F0;}
	.st14{fill:#FFBDD2;}
	.st15{fill:#F9D64F;}
	.st16{fill:#FAF5F5;}
	.st17{fill:#DCE6E6;}
	.st18{fill:#FAFAFA;}
</style>
<g>
	<path class="st5" d="M232.03,293.84c2.67,7.45,29.25-4.27,40.69,9.61c6.12,7.42,5.16,18.83,5,20.74
		c-0.98,11.67-7.81,14.92-9.46,30.42c-0.84,7.94,0.48,11.49,1.81,13.72c3.32,5.55,9.23,7.03,11.42,7.59
		c6.49,1.63,16.22,0.8,19.68-5.44c1.39-2.51,2.01-6.33,0.53-7.73c-1.74-1.65-5.07,1.29-13.01,2.01c-3.79,0.35-5.69,0.52-7.32-0.51
		c-5.5-3.46-3.63-16.4-3.3-18.68c1.61-11.17,5.83-12.2,9.05-24.62c2.05-7.87-1.42-15.17-4.93-21.71c-3.26-6.05-5-9.9-19.26-13.96
		c-13.52-3.85-16.22-5.75-20.77-5.32C232.7,280.86,230.3,289.03,232.03,293.84z"/>
	<ellipse class="st5" cx="332.31" cy="340.19" rx="38.51" ry="63.98"/>
	<ellipse class="st16" cx="332.15" cy="328.38" rx="19.62" ry="34.9"/>
	<g>
		<g>
			<path class="st5" d="M375.83,194.04c-5.75-1.19-32.88,28.59-32.88,28.59l35.99,15.14C378.94,237.77,378.84,194.66,375.83,194.04z
				"/>
		</g>
		<g>
			<path class="st14" d="M366.48,236.58c9.57-2.52,10.35-30.54,5.47-32.2c-1.32-0.45-2.2,1.33-10.53,8.4
				c-8.36,7.09-10.35,7.72-10.68,10.25C349.93,229.25,360.27,238.22,366.48,236.58z"/>
		</g>
	</g>
	<g>
		<path class="st5" d="M296.05,190.82c-3.06,0.87-5.93,50.29-5.93,50.29l33.27-24.93C323.39,216.18,305.02,188.27,296.05,190.82z"/>
		<g>
			<path class="st14" d="M305.21,245.12c-11.36-3.98-10.64-39.64-4.68-41.36c1.62-0.47,2.56,1.87,12.17,11.52
				c9.63,9.68,11.98,10.65,12.23,13.89C325.54,237.14,312.58,247.7,305.21,245.12z"/>
		</g>
	</g>
	<path class="st5" d="M382.28,254.27c3.94,16.43-10.24,28.44-26.16,39.1c-10.17,6.81-37.42,5.6-48.66-0.58
		c-11.66-6.42-26.42-19.56-23.01-33.78c3.57-14.86,4.42-26.52,11.38-31.99c12.05-9.48,12.36-12.42,37.66-12.42
		c12.05,0,34.58,3.08,40.83,14.79C380,240.05,378.86,240.05,382.28,254.27z"/>
	<g>
		<path class="st13" d="M328.5,284.77c1.96,1.11,4.25,1.03,6.41,0.85c0.68-0.12,1.47-0.19,1.89-0.85c0.03,0.42-0.29,0.79-0.61,1.05
			C333.96,287.23,330.02,287.15,328.5,284.77L328.5,284.77z"/>
	</g>
	<g>
		<g>
			
				<ellipse transform="matrix(0.0986 -0.9951 0.9951 0.0986 28.8058 540.3189)" class="st15" cx="312.65" cy="254.26" rx="9.09" ry="9.32"/>
			
				<ellipse transform="matrix(0.0986 -0.9951 0.9951 0.0986 28.7478 540.7213)" class="st6" cx="312.85" cy="254.49" rx="6.99" ry="7.17"/>
		</g>
		<path class="st5" d="M321.61,254.4c-2.06-3.7-12.48-7.05-16.63-7.86c-2.04-0.4-6.12,1.85-3.41-7.77c1.34-3.16,5.02-4.65,8.18-3.31
			l17.22,7.31c3.16,1.34,0.75,15.36-0.59,18.52C325.03,264.45,324.13,258.93,321.61,254.4z"/>
		<g>
			<path class="st17" d="M302.25,246.06c4.53,0.32,9.14,0.85,13.3,2.87c2.94,1.63,6.16,3.89,6.98,7.41c0.27,1.2-0.12,2.38-0.61,3.38
				c0.11-0.56,0.25-1.11,0.28-1.65c-0.07-4.01-3.98-6.43-7.12-8.27C311.14,247.84,306.55,247.03,302.25,246.06L302.25,246.06z"/>
		</g>
		<g>
			<path class="st17" d="M320.59,247.53c2.73-0.18,5.4,2.98,4.04,5.6C324.32,250.43,322.83,248.91,320.59,247.53L320.59,247.53z"/>
		</g>
	</g>
	<g>
		<g>
			<path class="st18" d="M333.6,272.81c-1.82,7.09,3.27,9.66,9.17,6.73c1.36-1.03,2.85-3.16,0.29-3.73c0.46,0.01,0.96,0.1,1.36,0.42
				c1.25,1.2-0.21,3.02-1.15,3.91C337.11,284.1,330.13,280.21,333.6,272.81L333.6,272.81z"/>
		</g>
		<g>
			<path class="st18" d="M332.03,272.81c3.48,7.41-3.51,11.29-9.67,7.33c-0.94-0.89-2.4-2.71-1.15-3.91c0.4-0.32,0.9-0.41,1.36-0.42
				c-2.56,0.57-1.08,2.7,0.29,3.73C328.76,282.47,333.85,279.89,332.03,272.81L332.03,272.81z"/>
		</g>
	</g>
	<g>
		<path class="st13" d="M326.53,281.64c2.98,0.16,4.8-2.07,6.01-4.4c0.13-0.34,0.24-0.72,0.09-1.11c0.36,0.26,0.42,0.78,0.4,1.21
			C332.66,280.24,329.45,283.23,326.53,281.64L326.53,281.64z"/>
	</g>
	<g>
		<path class="st13" d="M339.14,281.51c-2.92,1.59-6.13-1.4-6.5-4.29c-0.02-0.43,0.05-0.95,0.4-1.21c-0.15,0.39-0.04,0.76,0.09,1.11
			C334.35,279.44,336.16,281.67,339.14,281.51L339.14,281.51z"/>
	</g>
	<path class="st14" d="M332.95,276.44c-0.57,0.49-3.53-2.46-3-3.39c0.39-0.67,1.95-0.68,2.25-0.68c0.52,0,0.69-0.23,1.59,0
		c1.16,0.29,2.03,0.78,2.16,1.02C336.38,274.18,333.65,275.83,332.95,276.44z"/>
	<g>
		<g>
			
				<ellipse transform="matrix(0.9951 -0.0986 0.0986 0.9951 -23.3813 36.0878)" class="st15" cx="353.41" cy="254.59" rx="9.32" ry="9.09"/>
			
				<ellipse transform="matrix(0.9951 -0.0986 0.0986 0.9951 -23.4049 36.0702)" class="st6" cx="353.22" cy="254.82" rx="7.17" ry="6.99"/>
		</g>
		<path class="st5" d="M344.46,254.79c2.06-3.7,12.48-7.05,16.63-7.86c2.04-0.4,6.12,1.85,3.41-7.77c-1.34-3.16-5.02-4.65-8.18-3.31
			l-17.22,7.31c-3.16,1.34-0.75,15.36,0.59,18.52C341.03,264.84,341.94,259.31,344.46,254.79z"/>
		<g>
			<path class="st17" d="M363.82,246.44c-4.3,0.98-8.9,1.78-12.83,3.74c-3.14,1.84-7.06,4.26-7.12,8.27
				c0.03,0.55,0.17,1.1,0.28,1.66c-0.49-1-0.87-2.18-0.61-3.38c0.82-3.52,4.04-5.78,6.98-7.41
				C354.68,247.29,359.29,246.76,363.82,246.44L363.82,246.44z"/>
		</g>
		<g>
			<path class="st17" d="M345.48,247.92c-2.24,1.38-3.73,2.9-4.04,5.6C340.08,250.9,342.74,247.74,345.48,247.92L345.48,247.92z"/>
		</g>
	</g>
</g>
</svg>
