<?xml version="1.0" encoding="UTF-8"?>
<svg id="Layer_1" data-name="Layer 1" xmlns="http://www.w3.org/2000/svg" viewBox="0 0 151.43 200.59">
  <defs>
    <style>
      .cls-1 {
        fill: #f0f0f0;
      }

      .cls-2 {
        fill: #fff;
      }

      .cls-3 {
        fill: #fafafa;
      }

      .cls-4 {
        fill: #ffbdd2;
      }

      .cls-5 {
        fill: #00001c;
      }

      .cls-6 {
        fill: #dcdcdc;
      }

      .cls-7 {
        fill: #faf5f5;
      }

      .cls-8 {
        fill: #f9d64f;
      }
    </style>
  </defs>
  <path class="cls-2" d="m.52,103.11c2.67,7.45,29.25-4.27,40.69,9.61,6.12,7.42,5.16,18.83,5,20.74-.98,11.67-7.81,14.92-9.46,30.42-.84,7.94.48,11.49,1.81,13.72,3.32,5.55,9.23,7.03,11.42,7.59,6.49,1.63,16.22.8,19.68-5.44,1.39-2.51,2.01-6.33.53-7.73-1.74-1.65-5.07,1.29-13.01,2.01-3.79.35-5.69.52-7.32-.51-5.5-3.46-3.63-16.4-3.3-18.68,1.61-11.17,5.83-12.2,9.05-24.62,2.05-7.87-1.42-15.17-4.93-21.71-3.26-6.05-5-9.9-19.26-13.96-13.52-3.85-16.22-5.75-20.77-5.32-9.46.9-11.86,9.07-10.13,13.88Z"/>
  <path class="cls-2" d="m100.8,85.48c21.27,0,38.51,28.64,38.51,63.98s-16.1,51.13-37.37,51.13-39.65-15.79-39.65-51.13,17.24-63.98,38.51-63.98Z"/>
  <ellipse class="cls-7" cx="100.64" cy="137.65" rx="19.62" ry="34.9"/>
  <g>
    <path class="cls-2" d="m144.32,3.31c-5.75-1.19-32.88,28.59-32.88,28.59l35.6,15.9s.29-43.87-2.72-44.49Z"/>
    <path class="cls-4" d="m134.97,45.85c9.57-2.52,10.35-30.54,5.47-32.2-1.32-.45-2.2,1.33-10.53,8.4-8.36,7.09-10.35,7.72-10.68,10.25-.81,6.22,9.53,15.19,15.74,13.55Z"/>
  </g>
  <g>
    <path class="cls-2" d="m64.54.09c-3.06.87-5.93,50.29-5.93,50.29l33.27-24.93S73.51-2.46,64.54.09Z"/>
    <path class="cls-4" d="m73.7,54.39c-11.36-3.98-10.64-39.64-4.68-41.36,1.62-.47,2.56,1.87,12.17,11.52,9.63,9.68,11.98,10.65,12.23,13.89.61,7.97-12.35,18.53-19.72,15.95Z"/>
  </g>
  <path class="cls-2" d="m150.77,63.54c3.94,16.43-10.24,28.44-26.16,39.1-10.17,6.81-37.42,5.6-48.66-.58-11.66-6.42-26.42-19.56-23.01-33.78,3.57-14.86,4.42-26.52,11.38-31.99,12.05-9.48,12.36-12.42,37.66-12.42,12.05,0,34.58,3.08,40.83,14.79,5.68,10.66,4.54,10.66,7.96,24.88Z"/>
  <path class="cls-1" d="m96.99,94.04c1.96,1.11,4.25,1.03,6.41.85.68-.12,1.47-.19,1.89-.85.03.42-.29.79-.61,1.05-2.23,1.41-6.17,1.33-7.69-1.05h0Z"/>
  <g>
    <ellipse class="cls-8" cx="81.14" cy="63.53" rx="9.09" ry="9.32" transform="translate(9.91 138.01) rotate(-84.34)"/>
    <ellipse class="cls-5" cx="81.33" cy="63.77" rx="6.99" ry="7.17" transform="translate(9.85 138.41) rotate(-84.34)"/>
  </g>
  <path class="cls-2" d="m90.1,63.67c-2.06-3.7-12.48-7.05-16.63-7.86-2.04-.4-6.12,1.85-3.41-7.77,1.34-3.16,5.02-4.65,8.18-3.31l17.22,7.31c3.16,1.34.75,15.36-.59,18.52-1.35,3.16-2.25-2.36-4.77-6.89Z"/>
  <path class="cls-5" d="m70.74,55.33c4.53.32,9.14.85,13.3,2.87,2.94,1.63,6.16,3.89,6.98,7.41.27,1.2-.12,2.38-.61,3.38.11-.56.25-1.11.28-1.65-.07-4.01-3.98-6.43-7.12-8.27-4.03-1.81-8.53-2.77-12.83-3.74h0Z"/>
  <path class="cls-6" d="m89.08,56.8c2.73-.18,5.4,2.98,4.04,5.6-.31-2.7-1.8-4.22-4.04-5.6h0Z"/>
  <g>
    <path class="cls-3" d="m102.09,82.08c-1.82,7.09,3.27,9.66,9.17,6.73,1.36-1.03,2.85-3.16.29-3.73.46.01.96.1,1.36.42,1.25,1.2-.21,3.02-1.15,3.91-6.16,3.96-13.14.07-9.67-7.33h0Z"/>
    <path class="cls-3" d="m100.52,82.08c3.48,7.41-3.51,11.29-9.67,7.33-.94-.89-2.4-2.71-1.15-3.91.4-.32.9-.41,1.36-.42-2.56.57-1.08,2.7.29,3.73,5.9,2.93,10.99.35,9.17-6.73h0Z"/>
  </g>
  <path class="cls-6" d="m95.02,90.91c2.98.16,4.8-2.07,6.01-4.4.13-.34.24-.72.09-1.11.36.26.42.78.4,1.21-.37,2.9-3.58,5.89-6.5,4.3h0Z"/>
  <path class="cls-6" d="m107.63,90.78c-2.92,1.59-6.13-1.4-6.5-4.29-.02-.43.05-.95.4-1.21-.15.39-.04.76.09,1.11,1.22,2.32,3.03,4.55,6.01,4.39h0Z"/>
  <path class="cls-4" d="m101.44,85.71c-.57.49-3.53-2.46-3-3.39.39-.67,1.95-.68,2.25-.68.52,0,.69-.23,1.59,0,1.16.29,2.03.78,2.16,1.02.43.79-2.3,2.44-3,3.05Z"/>
  <g>
    <ellipse class="cls-8" cx="121.89" cy="63.85" rx="9.32" ry="9.09" transform="translate(-5.7 12.33) rotate(-5.66)"/>
    <ellipse class="cls-5" cx="121.7" cy="64.08" rx="7.17" ry="6.99" transform="translate(-5.73 12.31) rotate(-5.66)"/>
  </g>
  <path class="cls-2" d="m112.95,64.06c2.06-3.7,12.48-7.05,16.63-7.86,2.04-.4,6.12,1.85,3.41-7.77-1.34-3.16-5.02-4.65-8.18-3.31l-17.22,7.31c-3.16,1.34-.75,15.36.59,18.52,1.34,3.16,2.25-2.37,4.77-6.89Z"/>
  <path class="cls-5" d="m132.31,55.71c-4.3.98-8.83,2.15-12.83,3.74-3.14,1.84-7.06,4.26-7.12,8.27.03.55.17,1.1.28,1.66-.49-1-.87-2.18-.61-3.38.82-3.52,4.04-5.78,6.98-7.41,4.16-2.03,8.77-2.56,13.3-2.88h0Z"/>
  <path class="cls-6" d="m113.97,57.19c-2.24,1.38-3.73,2.9-4.04,5.6-1.36-2.62,1.3-5.78,4.04-5.6h0Z"/>
</svg>