<?xml version="1.0" encoding="UTF-8"?>
<svg id="Layer_1" data-name="Layer 1" xmlns="http://www.w3.org/2000/svg" viewBox="0 0 160.67 190.33">
  <defs>
    <style>
      .cls-1 {
        fill: #f0f0f0;
      }

      .cls-2 {
        fill: #fff;
      }

      .cls-3 {
        fill: #dce6e6;
      }

      .cls-4 {
        fill: #ffbdd2;
      }

      .cls-5 {
        fill: #00001c;
      }

      .cls-6 {
        fill: none;
      }

      .cls-7 {
        fill: #f9d64f;
      }

      .cls-8 {
        fill: #42591c;
      }
    </style>
  </defs>
  <path class="cls-5" d="m62.68,132.38c13.99,10.56,28.54,13.89,42.28,16.74,21.42,4.42,50.05,5.45,54.77,14.46,2.13,4.09,0,8.11-.26,8.67-3.34,6.05-13.73,10.63-17.67,9.31-2.86-.95-3.4-5.35-.61-7.76,2.36-2.06,6.01-1.69,7.31-3.34,2.16-2.73-4.86-7.39-5.67-7.99-19.46-12.96-63.1-4.84-81.09-19.96-1.72-1.42-11.84-9.76-12.39-10.42"/>
  <path class="cls-5" d="m3.94,67.4c2.53-1.42,4.76.68,6.41,3.64.54.97,1.25,1.82,1.89,2.61,3.34,4.11,10.73,5.18,17.31,10.13,11.8,8.88,18.92,19.33,15.9,23.34-3.02,4.01-15.03.07-26.84-8.81-9.9-7.45-16.51-16.01-16.59-20.94-.31-.36-1.18-1.02-1.42-1.46-1.66-2.96.8-7.1,3.34-8.51Z"/>
  <g>
    <path class="cls-6" d="m90.25,170.39c.28-.11.56-.22.83-.32-.16-.1-.33-.19-.49-.29-.11.2-.22.42-.34.61Z"/>
    <path class="cls-5" d="m77.65,154.06c-.47-1.1-.9-2.24-1.28-3.42-4.95-15.31.09-30.45,11.26-33.81,4.95-1.49,11.91-5.84,15.15-1.31-.89-25.96-15.52-46.6-33.43-46.6s-33.47,21.99-33.47,49.13,14.99,49.13,33.47,49.13c2.36,0,4.67-.37,6.89-1.05-.01-3.57.44-7.69,1.41-12.05Z"/>
    <path class="cls-5" d="m116.81,138.48c-2.74-8.49-9.03-15.79-13.99-22.91-.01-.02-.03-.03-.04-.05-3.24-4.52-10.19-.18-15.15,1.31-11.17,3.36-16.21,18.5-11.26,33.81.38,1.17.81,2.31,1.28,3.42-.97,4.36-1.43,8.48-1.41,12.05.02,4.67.84,8.38,2.4,10.39-.14.09-.27.18-.4.28-1.8.19-3.78,1.06-5.5,2.56-3.39,2.95-4.51,7.23-2.49,9.54,2.02,2.32,6.4,1.8,9.8-1.15,1.27-1.11,2.65-2.38,3.69-3.37,1.55-1.46,3.23-2.05,5.4-3.16,5.24-2.69,8.71-6.88,11.86-8.25,1.41-.61,3.06-.21,4.56-.66,11.17-3.36,16.21-18.5,11.26-33.81Z"/>
  </g>
  <path class="cls-5" d="m66.49,156.66c-.8-1.57-4.77-1.25-9.97.51,1.41-4.13,1.54-9.34.05-14.64-2.96-10.54-11.18-17.46-18.37-15.44-7.18,2.02-10.61,12.2-7.65,22.74,2,7.13,10.78,9.45,11.27,14.76.01.11-.19.13-.28.19-2.06-.12-4.52.77-6.62,2.59-3.39,2.95-4.51,7.23-2.49,9.54,2.02,2.32,6.4,1.8,9.8-1.15,1.18-1.02,1.66-2.53,2.66-3.41,1.94-1.7,5.15-1.98,7.94-3.41,8.72-4.48,14.84-9.97,13.66-12.28Z"/>
  <path class="cls-1" d="m63.14,83.57c4.63,0,5.26,9.48,7.7,17.86,1.48,5.11,9.37,10.5,9.37,17.16s-4.86,14.41-6.34,19.53c-1.62,5.58,3.39,16.56-.24,19.63-2.04,1.73-11.01,1.93-12.71,1.15-4.11-1.9-6.43-12.4-8.86-20.78-1.48-5.11-5.99-12.86-5.99-19.53s7.89-12.05,9.37-17.16c2.43-8.38,3.06-17.86,7.7-17.86Z"/>
  <g>
    <g>
      <path class="cls-5" d="m119.34,11.58c-4.17-2.46-33,12.85-33,12.85l24.31,22.06s10.82-33.54,8.69-34.91Z"/>
      <path class="cls-4" d="m99.38,43.03c8.07.73,15.97-20.51,12.69-23.15-.89-.73-2.04.46-10.38,3.55-8.34,3.1-10.02,3.1-10.91,4.92-2.31,4.56,3.37,14.22,8.6,14.67Z"/>
    </g>
    <g>
      <path class="cls-5" d="m44.47,0c-2.4.18-12.79,36.09-12.79,36.09l28.94-12.76c0,.09-9.23-23.88-16.15-23.33Z"/>
      <path class="cls-4" d="m42.87,42.39c-7.72-4.74-1.77-31.54,2.93-31.9,1.24-.09,1.6,1.82,7.19,10.57,5.59,8.84,7.19,9.93,6.83,12.4-.8,6.11-11.98,12.03-16.94,8.93Z"/>
    </g>
    <path class="cls-5" d="m112.51,48.95c2.57,12.76,7.19,29.44-3.37,38.28-10.82,9.11-21.2,9.11-38.77,9.11s-30.43,0-43.11-10.03c-8.07-6.38-7.81-16.95-6.12-28.25,1.77-11.67,10.47-23.15,15.88-27.34,9.4-7.29,12.24-9.11,31.94-9.11,9.4,0,25.73,3.65,32.82,10.94,4.17,4.37,8.43,5.1,10.73,16.41Z"/>
    <path class="cls-2" d="m36.04,92.05c-2.84-2.92,15.08-13.67,20.4-20.96.8-1.09,4.35-5.29,6.21-10.03,1.95-5.01,1.77-10.66,2.66-10.94,2.04-.64,2.75,3.37,4.44,15.49.89,6.38,3.9,7.2,7.1,11.03,1.24,1.46.98.64,10.65,7.75,6.03,4.37,8.34,7.29,7.98,8.66-.53,2.1-6.12,2.28-8.87,2.73-16.06,2.64-47.02-.09-50.57-3.74Z"/>
    <path class="cls-4" d="m65.32,69.92c-2.66,0-4.79-3.74-3.99-5.2.53-1,2.66-1,3.02-1,.71,0,.89-.36,2.13,0,1.6.46,2.75,1.18,2.93,1.55.53,1.28-1.51,4.74-4.08,4.65Z"/>
    <g>
      <ellipse class="cls-7" cx="45.8" cy="52.6" rx="8.87" ry="9.11"/>
      <ellipse class="cls-5" cx="46.07" cy="52.87" rx="6.83" ry="7.02"/>
    </g>
    <g>
      <ellipse class="cls-7" cx="86.16" cy="52.51" rx="8.87" ry="9.11"/>
      <ellipse class="cls-5" cx="86.34" cy="52.69" rx="6.83" ry="7.02"/>
    </g>
    <ellipse class="cls-8" cx="45.45" cy="52.87" rx="5.94" ry="6.11"/>
    <ellipse class="cls-8" cx="85.81" cy="52.78" rx="5.94" ry="6.11"/>
    <ellipse class="cls-4" cx="65.32" cy="78.21" rx="3.55" ry="4.74"/>
    <g>
      <g>
        <ellipse class="cls-1" cx="57.33" cy="74.93" rx="7.98" ry="6.02"/>
        <path class="cls-2" d="m65.32,74.02c0,3.28-3.55,6.02-7.98,6.02s-7.98-2.19-7.98-5.56,4.44-6.38,7.98-7.29c4.26-1.09,7.98,3.55,7.98,6.84Z"/>
      </g>
      <g>
        <ellipse class="cls-1" cx="73.21" cy="74.75" rx="7.98" ry="6.02"/>
        <path class="cls-2" d="m81.2,73.93c.98,2.46-3.55,6.02-7.98,6.02s-7.98-2.64-7.98-6.02,3.73-7.84,7.98-6.84c4.52,1,6.83,3.74,7.98,6.84Z"/>
      </g>
    </g>
    <path class="cls-3" d="m80.4,40.57c1.06-2.37,4.08-3.74,6.48-2.83-2.4.46-4.44,1.37-6.48,2.83h0Z"/>
    <path class="cls-3" d="m51.48,36.1c-1.6-1.09-2.93-2.46-4.7-3.19-.53-.18-1.15-.18-1.77.09,2.04-2.28,5.59,1,6.48,3.1h0Z"/>
  </g>
  <path class="cls-5" d="m132.8,69.19c-2.53-1.42-4.76.68-6.41,3.64-.54.97-1.25,1.82-1.89,2.61-3.34,4.11-10.73,5.18-17.31,10.13-11.8,8.88-18.92,19.33-15.9,23.34,3.02,4.01,15.03.07,26.84-8.81,9.9-7.45,16.51-16.01,16.59-20.94.31-.36,1.18-1.02,1.42-1.46,1.66-2.96-.8-7.1-3.34-8.51Z"/>
  <path class="cls-1" d="m132.8,69.1c-2.53-1.42-4.76.68-6.41,3.64-.54.97-1.25,1.82-1.89,2.61-3.34,4.11,10.13,8.65,10.21,3.72.31-.36,1.18-1.02,1.42-1.46,1.66-2.96-.8-7.1-3.34-8.51Z"/>
  <g>
    <path class="cls-4" d="m127.29,75.33c-.14.01-.28.05-.41.12-.54.29-.74.96-.45,1.5.15.28.4.46.68.54.02.05.04.1.06.15.22.41.55.72.95.92-.05.25-.03.51.09.75.29.54.96.74,1.5.45.43-.23.63-.7.56-1.15.08-.03.16-.06.24-.1,1.23-.66,1.74-2.12,1.13-3.26-.61-1.14-2.11-1.53-3.34-.87-.43.23-.77.56-1,.94Z"/>
    <ellipse class="cls-4" cx="133.05" cy="77.07" rx="1.13" ry=".75" transform="translate(-4.63 145.53) rotate(-56.52)"/>
    <ellipse class="cls-4" cx="133.03" cy="73.8" rx="1.22" ry=".91" transform="translate(-8.79 128.85) rotate(-50.23)"/>
    <ellipse class="cls-4" cx="131.13" cy="72.48" rx="1.22" ry=".91" transform="translate(-8.46 126.91) rotate(-50.23)"/>
    <ellipse class="cls-4" cx="128.53" cy="72.9" rx=".84" ry=".61" transform="translate(-9.72 125.06) rotate(-50.23)"/>
    <ellipse class="cls-4" cx="126.93" cy="82.46" rx=".84" ry=".61" transform="translate(-17.65 127.28) rotate(-50.23)"/>
  </g>
  <path class="cls-1" d="m3.87,67.4c2.53-1.42,4.76.68,6.41,3.64.54.97,1.25,1.82,1.89,2.61,2,2.47.12,5.18-3.46,5.81-2.38.42-6.72-.12-6.75-2.09-.31-.36-1.18-1.02-1.42-1.46-1.66-2.96.8-7.1,3.34-8.51Z"/>
  <g>
    <path class="cls-4" d="m9.45,73.55c.14.01.28.05.41.12.54.29.74.96.45,1.5-.15.28-.4.46-.68.54-.02.05-.04.1-.06.15-.22.41-.55.72-.95.92.05.25.03.51-.09.75-.29.54-.96.74-1.5.45-.43-.23-.63-.7-.56-1.15-.08-.03-.16-.06-.24-.1-1.23-.66-1.74-2.12-1.13-3.26.61-1.14,2.11-1.53,3.34-.87.43.23.77.56,1,.94Z"/>
    <ellipse class="cls-4" cx="3.69" cy="75.29" rx=".75" ry="1.13" transform="translate(-40.92 14.53) rotate(-33.48)"/>
    <ellipse class="cls-4" cx="3.71" cy="72.02" rx=".91" ry="1.22" transform="translate(-45.21 19.03) rotate(-39.77)"/>
    <ellipse class="cls-4" cx="5.6" cy="70.69" rx=".91" ry="1.22" transform="translate(-43.92 19.94) rotate(-39.77)"/>
    <ellipse class="cls-4" cx="8.21" cy="71.12" rx=".61" ry=".84" transform="translate(-43.59 21.7) rotate(-39.77)"/>
    <ellipse class="cls-4" cx="9.8" cy="80.68" rx=".61" ry=".84" transform="translate(-49.34 24.94) rotate(-39.77)"/>
  </g>
</svg>