<?xml version="1.0" encoding="utf-8"?>
<!-- Generator: Adobe Illustrator 27.2.0, SVG Export Plug-In . SVG Version: 6.00 Build 0)  -->
<svg version="1.1" id="Layer_1" xmlns="http://www.w3.org/2000/svg" xmlns:xlink="http://www.w3.org/1999/xlink" x="0px" y="0px"
	 viewBox="0 0 664.26 527.23" style="enable-background:new 0 0 664.26 527.23;" xml:space="preserve">
<style type="text/css">
	.st0{fill:#6F5D1C;}
	.st1{fill:#F8EEE8;}
	.st2{fill:#FBDCCE;}
	.st3{fill:#F7BCB5;}
	.st4{fill:none;stroke:#6F5D1C;stroke-width:2.8346;stroke-miterlimit:10;}
	.st5{fill:#FFFFFF;}
	.st6{fill:#00001C;}
	.st7{fill:#F4FFFF;}
	.st8{fill:#C6C6C6;}
	.st9{fill:#969696;}
	.st10{fill:#FFDD1C;}
	.st11{fill:#ECCB1C;}
	.st12{fill:#551442;}
	.st13{fill:#F0F0F0;}
	.st14{fill:#FFBDD2;}
	.st15{fill:#F9D64F;}
	.st16{fill:#FAF5F5;}
	.st17{fill:#DCE6E6;}
	.st18{fill:#FAFAFA;}
</style>
<g>
	<path class="st6" d="M354.76,321.62c4.5-6.91,30.26,10.9,45.54-0.52c8.17-6.11,9.67-17.83,9.92-19.79
		c1.53-11.99-5.03-16.8-3.36-32.81c0.86-8.2,3.05-11.48,4.96-13.43c4.77-4.85,11.4-5.01,13.86-5.08c7.29-0.18,17.47,2.85,19.79,9.92
		c0.93,2.85,0.75,6.84-1.14,7.92c-2.22,1.27-5.12-2.45-13.43-4.96c-3.97-1.2-5.96-1.81-7.92-1.14c-6.63,2.25-7.5,15.73-7.66,18.09
		c-0.75,11.63,3.52,13.62,4.21,26.87c0.44,8.4-4.87,14.98-10.06,20.78c-4.81,5.37-7.53,8.86-23.63,9.73
		c-15.27,0.83-18.58,2.14-23.34,0.68C352.61,334.86,351.86,326.08,354.76,321.62z"/>
	<ellipse class="st6" cx="345.56" cy="314.75" rx="32.5" ry="54"/>
	<ellipse class="st13" cx="345.56" cy="310.04" rx="13.5" ry="25.72"/>
	<g>
		<g>
			<path class="st6" d="M395.53,189.28c-5.22-1.42-32.21,23.26-32.21,23.26l32.73,16.21C396.06,228.75,398.27,190.02,395.53,189.28z
				"/>
		</g>
		<g>
			<path class="st14" d="M382.84,228.45c8.99-1.63,11.56-26.43,7.18-28.22c-1.19-0.48-2.11,1.04-10.27,6.78
				c-8.18,5.75-10.05,6.19-10.52,8.41C368.07,220.89,377.01,229.5,382.84,228.45z"/>
		</g>
	</g>
	<g>
		<path class="st6" d="M304.81,190.88c-2.5,0.98-2.45,41.64-2.45,41.64L329.81,210C329.81,209.99,312.14,188.02,304.81,190.88z"/>
		<g>
			<path class="st14" d="M316.86,235.77c-9.86-2.43-12.12-32.45-7.25-34.37c1.32-0.52,2.3,1.36,11.15,8.7
				c8.87,7.36,10.92,7.99,11.39,10.69C333.3,227.43,323.26,237.34,316.86,235.77z"/>
		</g>
	</g>
	<path class="st6" d="M399.2,237.75c2.89,14,8.07,32.25-3.85,42c-12.17,9.96-23.93,10-43.71,10c-19.95,0-34.3,0-48.59-11
		c-9.1-7-8.84-18.62-6.87-31c2.03-12.77,11.78-25.38,17.89-30c10.59-8,13.79-10,36.03-10c10.59,0,28.97,4,36.97,12
		C391.82,224.51,396.64,225.31,399.2,237.75z"/>
	<path class="st5" d="M313.06,285.75c-3.23-3.23,17-15,23-23c0.92-1.22,4.94-5.83,7-11c2.18-5.47,1.98-11.71,3-12
		c2.34-0.66,3.1,3.68,5,17c1,7,4.37,7.91,8,12.07c1.43,1.63,1.06,0.68,12,8.47c6.77,4.82,9.39,8,9,9.47c-0.62,2.31-6.89,2.49-10,3
		C351.98,292.73,317.06,289.75,313.06,285.75z"/>
	<path class="st14" d="M345.94,260.75c-2.7-0.01-4.74-3.64-4.02-5c0.52-0.99,2.61-1,3.02-1c0.7,0,0.92-0.34,2.13,0
		c1.56,0.43,2.72,1.15,2.9,1.5C350.55,257.41,348.53,260.76,345.94,260.75z"/>
	<g>
		<g>
			<ellipse class="st13" cx="337.06" cy="266.19" rx="9" ry="6.56"/>
			<path class="st5" d="M346.06,265.25c0,3.62-4.03,6.56-9,6.56s-9-2.44-9-6.06s5-7,9-8C341.88,256.55,346.06,261.63,346.06,265.25z
				"/>
		</g>
		<g>
			<ellipse class="st13" cx="354.98" cy="266.03" rx="9" ry="6.56"/>
			<path class="st5" d="M363.98,265.09c1.08,2.66-4.03,6.56-9,6.56s-9-2.94-9-6.56s4.15-8.61,9-7.5
				C360.06,258.75,362.62,261.73,363.98,265.09z"/>
		</g>
	</g>
	<g>
		<circle class="st15" cx="324.06" cy="241.75" r="10"/>
		<circle class="st6" cx="324.29" cy="241.98" r="7.69"/>
	</g>
	<g>
		<circle class="st15" cx="369.55" cy="241.59" r="10"/>
		<circle class="st6" cx="369.78" cy="241.82" r="7.69"/>
	</g>
</g>
</svg>
