<?xml version="1.0" encoding="utf-8"?>
<!-- Generator: Adobe Illustrator 27.9.0, SVG Export Plug-In . SVG Version: 6.00 Build 0)  -->
<svg version="1.1" id="Layer_1" xmlns="http://www.w3.org/2000/svg" xmlns:xlink="http://www.w3.org/1999/xlink" x="0px" y="0px"
	 viewBox="0 0 409 500.5" style="enable-background:new 0 0 409 500.5;" xml:space="preserve">
<style type="text/css">
	.st0{fill:#6F5D1C;}
	.st1{fill:#FFDD1C;}
	.st2{fill:#ECCB1C;}
	.st3{fill:#FBDCCE;}
	.st4{fill:#F8EEE8;}
	.st5{fill:#F7BCB5;}
	.st6{fill:#FFFFFF;}
	.st7{fill:#00001C;}
	.st8{fill:#F4FFFF;}
	.st9{fill:#C6C6C6;}
	.st10{fill:#969696;}
	.st11{fill:#551442;}
</style>
<g>
	<polygon class="st0" points="229.5,15.1 323,366.3 169,366.3 	"/>
	<ellipse class="st0" cx="323.5" cy="243.3" rx="85.5" ry="123"/>
</g>
<g>
	<polygon class="st0" points="180.5,15.1 86,365.3 249,363.3 	"/>
	<ellipse class="st0" cx="85.5" cy="242.3" rx="85.5" ry="123"/>
</g>
<path class="st1" d="M302.4,500.5c2.4-11.2,3.6-22.9,3.6-35c0-75.7-49-116-110-116s-111,40.3-111,116c0,12.1,1.3,23.8,3.7,35H302.4z
	"/>
<g>
	<path class="st2" d="M168.1,392.5c-8.2-2.9-44.2-12.5-43.8-26c0.2-7.3,20.9-6.4,28-9c24.8-8.8,56.6,8,74.7,3.1
		c0.7-0.2,2.8-0.8,5.6-0.6c8,0.5,28.7,0.6,29.7,6.5c2.5,14-42,33.8-72.1,27C188.1,393,171.9,393.8,168.1,392.5L168.1,392.5z"/>
	<path class="st1" d="M177.4,388.9c-8.2-2.9-53.5-9.9-53.1-23.4c0.2-7.3,20.9-19.1,28-21.6c24.8-8.8,56.6,8,74.7,3.1
		c0.7-0.2,20.5,9.4,23.3,9.5c8,0.5,11,1.1,12,7c2.5,14-47,34.6-77.2,27.8C183,390.9,181.1,390.2,177.4,388.9z"/>
	<path class="st2" d="M173.1,384.5c-6.8-2.5-34.1-16-31-27c1.4-4.9,11.3-11.9,17.2-11.8c20.1,0.5,49.6,12.8,62.5,2.6
		c0.5-0.4,2.3-0.7,4.7-0.5c6.7,0.4,9.4,8.2,5.7,11.7c-19,18-28.5,13.3-44,34C185.1,397.5,176.2,385.6,173.1,384.5z"/>
	<path class="st3" d="M169.2,374.5c-6.8-2.5-7-15-7-18c0-20.1,49.8-21,51.8,2c0.9,11-8,11-23.6,27.6
		C187,389.7,172.4,375.6,169.2,374.5L169.2,374.5z"/>
</g>
<ellipse transform="matrix(0.1425 -0.9898 0.9898 0.1425 76.658 579.0485)" class="st4" cx="372.5" cy="245.3" rx="24" ry="19.5"/>
<ellipse transform="matrix(0.2012 -0.9795 0.9795 0.2012 58.8745 560.0246)" class="st3" cx="372.8" cy="243.9" rx="17.6" ry="15.5"/>
<ellipse class="st4" cx="26.5" cy="247.3" rx="19.5" ry="24"/>
<ellipse transform="matrix(0.9896 -0.1438 0.1438 0.9896 -35.0976 6.6591)" class="st3" cx="28.5" cy="246.1" rx="15.5" ry="17.5"/>
<path class="st4" d="M370,206.3c0-98.3-73.3-177-167.5-177S32,109,32,207.3c0,14.9,8.5,60.4,10,67c7,31.1,24.2,46.4,65.2,71.2
	c43.2,18.2,54.8,21.8,91.8,21.8s52.2-4.8,86.2-21.8c41.3-22.7,63.9-39.1,72.8-72.2C359.9,266.2,370,220.6,370,206.3L370,206.3z"/>
<path class="st0" d="M253.3,197.3c7.3-14,23.6-16.7,31.7-1.9C273.2,184.5,264.3,187,253.3,197.3L253.3,197.3z"/>
<path class="st0" d="M404,202.3c-1-10-6.1-33.7-8.5-42.9C376.6,86.7,322.2,33.5,253.9,7.8c-12-5.4-18-6.4-29-7.5
	C218-0.3,211,0.2,205.4,3.6c-0.5,0-1,0-1.6,0c-0.5,0-1,0-1.4,0c-5.6-3.4-10-4.1-18.5-3.2c-10.5,1.1-17,3.2-29,7.5
	C61.8,30.8,18,114.4,5,202.3c0,0,0.8-0.2,2.3-0.6l-4.7,11.6c0,0,12.1,7.5,16.3,9.7c10,5.3,12,25.3,16,20.3c9-11,10-41.6,14-46
	c8.8-9.7,10.8-7.5,19-9c12.8-2.4,52.7-0.4,52.7-0.4s5.6-26.2,8.3-35.6c2.7-9.3,13-39,13-39s1.2,27.8,1.6,37.1
	c1.4,31.9-1.6,38.9-1.6,38.9s45.2-1.5,59.9-1.4c36.1,0.4,57.1-0.6,57.1-0.6c0.2,2.4,2-18.9,2.4-33.8c0.6-20.2-4.4-43.2-4.4-43.2
	l26.1,77.6c0,0,46.3,0.2,63.9,2.4c6.1,0.7,9.7,47.1,13,51c5,6,7,1,7,1s7.4-28.1,13-30C386,210.3,404,202.3,404,202.3L404,202.3z"/>
<ellipse class="st5" cx="88" cy="279.3" rx="28" ry="15"/>
<ellipse class="st5" cx="310" cy="277.3" rx="28" ry="15"/>
<g>
	<circle class="st6" cx="117.5" cy="234.8" r="24.5"/>
	<ellipse class="st0" cx="118" cy="234.6" rx="20" ry="19.7"/>
	<ellipse class="st7" cx="117.3" cy="234.8" rx="11.4" ry="11.5"/>
	<ellipse class="st6" cx="106.6" cy="222.8" rx="6.4" ry="6.4"/>
</g>
<ellipse transform="matrix(0.4482 -0.8939 0.8939 0.4482 -154.0751 321.9958)" class="st3" cx="183.8" cy="285.8" rx="4.5" ry="7.2"/>
<ellipse class="st3" cx="188.7" cy="337" rx="15.3" ry="11.3"/>
<path class="st0" d="M99.2,197.5c7.3-14,23.6-16.7,31.7-1.9C119.1,184.7,110.2,187.2,99.2,197.5L99.2,197.5z"/>
<g>
	
		<ellipse transform="matrix(0.3045 -0.9525 0.9525 0.3045 21.1588 531.7001)" class="st8" cx="374.7" cy="251.4" rx="14.3" ry="10.2"/>
	<g>
		<polygon class="st8" points="372.6,279.2 367.2,276.2 377.1,253.4 382.5,256.4 		"/>
		<ellipse transform="matrix(0.5495 -0.8355 0.8355 0.5495 -65.6398 434.1824)" class="st9" cx="369.8" cy="278" rx="2" ry="3"/>
		<ellipse transform="matrix(0.5135 -0.8581 0.8581 0.5135 -58.1378 452.4591)" class="st8" cx="370" cy="277.5" rx="1.6" ry="3"/>
	</g>
	
		<ellipse transform="matrix(0.8637 -0.5041 0.5041 0.8637 -71.3326 221.8664)" class="st6" cx="374.5" cy="242.8" rx="6.5" ry="3.1"/>
	<g>
		<path class="st9" d="M378.6,251.9L378.6,251.9c0.7,0.3,0.9,1.3,0.6,2.2l-2.3,6.5c-0.3,0.8-1,1.2-1.6,0.9l-0.1,0
			c-0.6-0.3-0.9-1.3-0.6-2.1l2.2-6.3C377.2,252,378,251.6,378.6,251.9L378.6,251.9z"/>
		<path class="st10" d="M378.9,251.9L378.9,251.9c0.7,0.3,0.9,1.3,0.6,2.2l-2.3,6.5c-0.3,0.8-1,1.2-1.6,0.9l-0.1,0
			c-0.6-0.3-0.9-1.3-0.6-2.1l2.3-6.3C377.5,252,378.2,251.6,378.9,251.9L378.9,251.9z"/>
	</g>
	<path class="st6" d="M371.9,277.2L371.9,277.2c-0.4-0.2-0.6-0.8-0.4-1.2l5.2-12c0.2-0.5,0.7-0.6,1.1-0.4l0,0
		c0.4,0.2,0.6,0.8,0.4,1.2l-5.2,12C372.8,277.2,372.3,277.4,371.9,277.2z"/>
</g>
<g>
	<ellipse transform="matrix(0.9407 -0.3392 0.3392 0.9407 -83.8022 24.4364)" class="st8" cx="28" cy="251.9" rx="10.2" ry="14.3"/>
	<g>
		<polygon class="st8" points="31.1,279.6 36.4,276.5 25.6,254 20.4,257.2 		"/>
		<ellipse transform="matrix(0.8147 -0.5799 0.5799 0.8147 -155.0625 71.214)" class="st9" cx="33.9" cy="278.3" rx="3" ry="2"/>
		<ellipse transform="matrix(0.8386 -0.5448 0.5448 0.8386 -145.9411 63.1963)" class="st8" cx="33.7" cy="277.9" rx="3" ry="1.6"/>
	</g>
	
		<ellipse transform="matrix(0.4721 -0.8816 0.8816 0.4721 -199.7553 153.0301)" class="st6" cx="27.9" cy="243.3" rx="3.1" ry="6.5"/>
	<g>
		<path class="st9" d="M22.2,252.9L22.2,252.9c-0.7,0.5-1,1.4-0.7,2.2l2.2,6c0.3,0.8,1,1.2,1.6,0.8l0.1,0c0.6-0.4,0.9-1.4,0.6-2.2
			l-2.1-6.1C23.6,252.8,22.8,252.5,22.2,252.9L22.2,252.9z"/>
		<path class="st10" d="M21.9,253L21.9,253c-0.7,0.5-1,1.4-0.7,2.2l2.2,6c0.3,0.8,1,1.2,1.6,0.8l0.1,0c0.6-0.4,0.9-1.4,0.6-2.2
			l-2.1-6.1C23.3,252.8,22.6,252.5,21.9,253L21.9,253z"/>
	</g>
	<path class="st6" d="M31.7,277.6L31.7,277.6c0.4-0.2,0.5-0.8,0.3-1.2l-5.6-11.8c-0.2-0.4-0.7-0.6-1.1-0.4l0,0
		c-0.4,0.2-0.5,0.8-0.3,1.2l5.6,11.8C30.9,277.7,31.3,277.9,31.7,277.6z"/>
</g>
<path class="st0" d="M193.1,307.1c-3.3,2-7.7,2.6-11.4,1.2c-1-0.4-1.5,1.2-0.4,1.6c4,1.5,9,0.9,12.7-1.4
	C194.9,308,194,306.5,193.1,307.1L193.1,307.1z"/>
<g>
	<circle class="st6" cx="262.1" cy="237" r="24.5"/>
	<ellipse class="st0" cx="262.6" cy="236.8" rx="20" ry="19.7"/>
	<ellipse class="st7" cx="262" cy="237" rx="11.4" ry="11.5"/>
	<ellipse class="st6" cx="251.2" cy="225" rx="6.4" ry="6.4"/>
</g>
<path class="st0" d="M185.6,264.8c0.2,3.9,0.7,7.9,0.4,11.8c0,0.3-0.1,0.5-0.1,0.9c-0.1,0.3,0,0.1,0,0.2c0-0.1,0.2,0,0,0
	c-0.2-0.1-0.5-0.1-0.7-0.2c-2.2-0.7-4.8-2.1-7.2-1.8c-3.2,0.4-3.1,4.5-2.3,6.9c1.1,2.8,4.5,4.4,6.8,6c0.8,0.6,2.2,1.3,2.8,2.1
	c0.1,0.1,0.1,0.1-0.1,0.4c-0.6,0.8-1.7,1.3-2.5,1.8c-2.5,1.4-5.3,2.3-7.9,3.5c-1.1,0.5-3.6,1.9-1.6,3.1c0.8,0.5,2,0.6,2.9,0.7
	c1.8,0.2,3.6,0.2,5.3,0.1c5.9-0.3,11.9-1.3,17.6-2.7c1.1-0.3,0.6-1.9-0.4-1.6c-5.1,1.3-10.4,2.2-15.6,2.6c-2.7,0.2-5.8,0.5-8.5-0.3
	c-0.1,0-0.4-0.1-0.3-0.1c-0.2,0-0.1-0.1-0.2-0.1c0-0.1,0.2,0.9,0,0.8c0,0,0.3-0.2,0.3-0.2c0.9-0.5,1.9-1,2.8-1.4
	c2.5-1.1,5.2-2.1,7.6-3.6c1.4-0.9,3.3-2.6,1.6-4.2c-1.6-1.6-3.7-2.8-5.5-4.1c-1.1-0.7-2.3-1.5-3.1-2.5c-0.7-0.9-0.8-2.1-0.8-3.2
	c0-0.7,0-1.6,0.6-2c0.5-0.4,1.4-0.2,1.9-0.1c2,0.4,3.8,1.3,5.8,1.8c1.6,0.4,2.3-0.7,2.4-2.2c0.1-1.3,0.1-2.7,0-4
	c-0.1-2.7-0.3-5.5-0.4-8.2C187.3,263.7,185.6,263.7,185.6,264.8L185.6,264.8L185.6,264.8z"/>
<ellipse transform="matrix(0.9236 -0.3833 0.3833 0.9236 -135.1086 95.5467)" class="st11" cx="172.2" cy="386.8" rx="1.9" ry="1.7"/>
<ellipse class="st11" cx="200.1" cy="387.9" rx="1.9" ry="1.7"/>
<path class="st6" d="M171.5,386.9c2.7,4.4,6,10.4,4.1,15.7c-0.8,2.4-2.6,4.4-3.7,6.6c-1.5,3.2-2,6.7-1.6,10.2c0.1,1.1,1.8,1.1,1.7,0
	c-0.5-3.8,0.2-7.5,2.1-10.8c1.2-2,2.7-3.9,3.3-6.3c1.5-5.7-1.6-11.7-4.5-16.3C172.4,385.1,170.9,386,171.5,386.9L171.5,386.9
	L171.5,386.9z"/>
<path class="st6" d="M200.5,425.3c-1.4-5.9-2.7-12.2-1.9-18.3c0.4-2.6,1.2-5.1,1.7-7.7c0.7-3.7,0.8-7.5,0.6-11.2
	c-0.1-1.1-1.8-1.1-1.7,0c0.2,3.8,0,7.7-0.7,11.4c-0.5,2.5-1.3,5-1.6,7.6c-0.8,6.2,0.5,12.6,1.9,18.6
	C199.1,426.8,200.8,426.3,200.5,425.3L200.5,425.3L200.5,425.3z"/>
</svg>
